<?xml version="1.0" encoding="UTF-8" standalone="no"?>
<!DOCTYPE svg PUBLIC "-//W3C//DTD SVG 1.1//EN"
 "http://www.w3.org/Graphics/SVG/1.1/DTD/svg11.dtd">
<!-- Generated by graphviz version 2.43.0 (0)
 -->
<!-- Title: cnft Pages: 1 -->
<svg width="1319pt" height="655pt"
 viewBox="0.00 0.00 1319.00 655.00" xmlns="http://www.w3.org/2000/svg" xmlns:xlink="http://www.w3.org/1999/xlink">
<g id="graph0" class="graph" transform="scale(1 1) rotate(0) translate(4 651)">
<title>cnft</title>
<!-- Node1 -->
<g id="node1" class="node">
<title>Node1</title>
<g id="a_node1"><a xlink:title=" ">
<polygon fill="#bfbfbf" stroke="black" points="79,-240.5 79,-259.5 114,-259.5 114,-240.5 79,-240.5"/>
<text text-anchor="middle" x="96.5" y="-247.5" font-family="Helvetica,sans-Serif" font-size="10.00">cnft</text>
</a>
</g>
</g>
<!-- Node3 -->
<g id="node3" class="node">
<title>Node3</title>
<g id="a_node3"><a xlink:href="classcnf__clause__listt.html" target="_top" xlink:title=" ">
<polygon fill="none" stroke="black" points="159.5,-521.5 159.5,-540.5 251.5,-540.5 251.5,-521.5 159.5,-521.5"/>
<text text-anchor="middle" x="205.5" y="-528.5" font-family="Helvetica,sans-Serif" font-size="10.00">cnf_clause_listt</text>
</a>
</g>
</g>
<!-- Node1&#45;&gt;Node3 -->
<g id="edge2" class="edge">
<title>Node1&#45;&gt;Node3</title>
<path fill="none" stroke="midnightblue" d="M104.83,-269.26C125.79,-324.3 185.43,-480.91 200.83,-521.37"/>
<polygon fill="midnightblue" stroke="midnightblue" points="108.01,-267.77 101.18,-259.67 101.47,-270.26 108.01,-267.77"/>
</g>
<!-- Node22 -->
<g id="node22" class="node">
<title>Node22</title>
<g id="a_node22"><a xlink:href="classcnf__solvert.html" target="_top" xlink:title=" ">
<polygon fill="none" stroke="black" points="170,-240.5 170,-259.5 241,-259.5 241,-240.5 170,-240.5"/>
<text text-anchor="middle" x="205.5" y="-247.5" font-family="Helvetica,sans-Serif" font-size="10.00">cnf_solvert</text>
</a>
</g>
</g>
<!-- Node1&#45;&gt;Node22 -->
<g id="edge21" class="edge">
<title>Node1&#45;&gt;Node22</title>
<path fill="none" stroke="midnightblue" d="M124.46,-250C138.2,-250 155.06,-250 169.76,-250"/>
<polygon fill="midnightblue" stroke="midnightblue" points="124.22,-246.5 114.22,-250 124.22,-253.5 124.22,-246.5"/>
</g>
<!-- Node46 -->
<g id="node46" class="node">
<title>Node46</title>
<g id="a_node46"><a xlink:href="classdimacs__cnf__dumpt.html" target="_top" xlink:title=" ">
<polygon fill="none" stroke="black" points="151,-202.5 151,-221.5 260,-221.5 260,-202.5 151,-202.5"/>
<text text-anchor="middle" x="205.5" y="-209.5" font-family="Helvetica,sans-Serif" font-size="10.00">dimacs_cnf_dumpt</text>
</a>
</g>
</g>
<!-- Node1&#45;&gt;Node46 -->
<g id="edge49" class="edge">
<title>Node1&#45;&gt;Node46</title>
<path fill="none" stroke="midnightblue" d="M123.71,-240.69C140.05,-234.89 161.02,-227.44 177.5,-221.59"/>
<polygon fill="midnightblue" stroke="midnightblue" points="122.47,-237.42 114.22,-244.06 124.81,-244.01 122.47,-237.42"/>
</g>
<!-- Node2 -->
<g id="node2" class="node">
<title>Node2</title>
<g id="a_node2"><a xlink:href="classpropt.html" target="_top" xlink:title="TO_BE_DOCUMENTED.">
<polygon fill="none" stroke="black" points="0,-240.5 0,-259.5 42,-259.5 42,-240.5 0,-240.5"/>
<text text-anchor="middle" x="21" y="-247.5" font-family="Helvetica,sans-Serif" font-size="10.00">propt</text>
</a>
</g>
</g>
<!-- Node2&#45;&gt;Node1 -->
<g id="edge1" class="edge">
<title>Node2&#45;&gt;Node1</title>
<path fill="none" stroke="midnightblue" d="M52.36,-250C61.45,-250 71.07,-250 78.91,-250"/>
<polygon fill="midnightblue" stroke="midnightblue" points="52.08,-246.5 42.08,-250 52.08,-253.5 52.08,-246.5"/>
</g>
<!-- Node4 -->
<g id="node4" class="node">
<title>Node4</title>
<g id="a_node4"><a xlink:href="classcnf__clause__list__assignmentt.html" target="_top" xlink:title=" ">
<polygon fill="none" stroke="black" points="304,-614.5 304,-633.5 459,-633.5 459,-614.5 304,-614.5"/>
<text text-anchor="middle" x="381.5" y="-621.5" font-family="Helvetica,sans-Serif" font-size="10.00">cnf_clause_list_assignmentt</text>
</a>
</g>
</g>
<!-- Node3&#45;&gt;Node4 -->
<g id="edge3" class="edge">
<title>Node3&#45;&gt;Node4</title>
<path fill="none" stroke="midnightblue" d="M233.42,-545.39C269.35,-564.59 332.01,-598.08 362.63,-614.45"/>
<polygon fill="midnightblue" stroke="midnightblue" points="234.93,-542.23 224.47,-540.6 231.64,-548.4 234.93,-542.23"/>
</g>
<!-- Node6 -->
<g id="node6" class="node">
<title>Node6</title>
<g id="a_node6"><a xlink:href="classdimacs__cnft.html" target="_top" xlink:title=" ">
<polygon fill="none" stroke="black" points="344,-545.5 344,-564.5 419,-564.5 419,-545.5 344,-545.5"/>
<text text-anchor="middle" x="381.5" y="-552.5" font-family="Helvetica,sans-Serif" font-size="10.00">dimacs_cnft</text>
</a>
</g>
</g>
<!-- Node3&#45;&gt;Node6 -->
<g id="edge5" class="edge">
<title>Node3&#45;&gt;Node6</title>
<path fill="none" stroke="midnightblue" d="M261.79,-538.63C288.64,-542.33 320.14,-546.67 343.95,-549.96"/>
<polygon fill="midnightblue" stroke="midnightblue" points="262.15,-535.14 251.76,-537.24 261.19,-542.08 262.15,-535.14"/>
</g>
<!-- Node20 -->
<g id="node20" class="node">
<title>Node20</title>
<g id="a_node20"><a xlink:href="classsatcheck__zchaff__baset.html" target="_top" xlink:title=" ">
<polygon fill="none" stroke="black" points="318,-498.5 318,-517.5 445,-517.5 445,-498.5 318,-498.5"/>
<text text-anchor="middle" x="381.5" y="-505.5" font-family="Helvetica,sans-Serif" font-size="10.00">satcheck_zchaff_baset</text>
</a>
</g>
</g>
<!-- Node3&#45;&gt;Node20 -->
<g id="edge19" class="edge">
<title>Node3&#45;&gt;Node20</title>
<path fill="none" stroke="midnightblue" d="M261.96,-523.67C279.73,-521.32 299.53,-518.7 317.78,-516.29"/>
<polygon fill="midnightblue" stroke="midnightblue" points="261.22,-520.24 251.76,-525.02 262.13,-527.18 261.22,-520.24"/>
</g>
<!-- Node5 -->
<g id="node5" class="node">
<title>Node5</title>
<g id="a_node5"><a xlink:href="classexternal__satt.html" target="_top" xlink:title=" ">
<polygon fill="none" stroke="black" points="677,-627.5 677,-646.5 758,-646.5 758,-627.5 677,-627.5"/>
<text text-anchor="middle" x="717.5" y="-634.5" font-family="Helvetica,sans-Serif" font-size="10.00">external_satt</text>
</a>
</g>
</g>
<!-- Node4&#45;&gt;Node5 -->
<g id="edge4" class="edge">
<title>Node4&#45;&gt;Node5</title>
<path fill="none" stroke="midnightblue" d="M469.25,-627.38C536.21,-629.98 625.76,-633.47 676.67,-635.45"/>
<polygon fill="midnightblue" stroke="midnightblue" points="469.25,-623.87 459.13,-626.98 468.98,-630.87 469.25,-623.87"/>
</g>
<!-- Node7 -->
<g id="node7" class="node">
<title>Node7</title>
<g id="a_node7"><a xlink:href="classpbs__dimacs__cnft.html" target="_top" xlink:title=" ">
<polygon fill="none" stroke="black" points="668.5,-589.5 668.5,-608.5 766.5,-608.5 766.5,-589.5 668.5,-589.5"/>
<text text-anchor="middle" x="717.5" y="-596.5" font-family="Helvetica,sans-Serif" font-size="10.00">pbs_dimacs_cnft</text>
</a>
</g>
</g>
<!-- Node6&#45;&gt;Node7 -->
<g id="edge6" class="edge">
<title>Node6&#45;&gt;Node7</title>
<path fill="none" stroke="midnightblue" d="M429.4,-563.36C446.55,-566.29 466.13,-569.47 484,-572 547.57,-581.01 621.23,-589.18 668.32,-594.12"/>
<polygon fill="midnightblue" stroke="midnightblue" points="429.53,-559.83 419.08,-561.58 428.34,-566.73 429.53,-559.83"/>
</g>
<!-- Node8 -->
<g id="node8" class="node">
<title>Node8</title>
<g id="a_node8"><a xlink:href="classqdimacs__cnft.html" target="_top" xlink:title=" ">
<polygon fill="none" stroke="black" points="677,-551.5 677,-570.5 758,-570.5 758,-551.5 677,-551.5"/>
<text text-anchor="middle" x="717.5" y="-558.5" font-family="Helvetica,sans-Serif" font-size="10.00">qdimacs_cnft</text>
</a>
</g>
</g>
<!-- Node6&#45;&gt;Node8 -->
<g id="edge7" class="edge">
<title>Node6&#45;&gt;Node8</title>
<path fill="none" stroke="midnightblue" d="M429.33,-555.84C495.45,-557.03 614.97,-559.18 676.9,-560.29"/>
<polygon fill="midnightblue" stroke="midnightblue" points="429.26,-552.34 419.2,-555.66 429.13,-559.34 429.26,-552.34"/>
</g>
<!-- Node19 -->
<g id="node19" class="node">
<title>Node19</title>
<g id="a_node19"><a xlink:href="classsatcheck__zcoret.html" target="_top" xlink:title=" ">
<polygon fill="none" stroke="black" points="670,-513.5 670,-532.5 765,-532.5 765,-513.5 670,-513.5"/>
<text text-anchor="middle" x="717.5" y="-520.5" font-family="Helvetica,sans-Serif" font-size="10.00">satcheck_zcoret</text>
</a>
</g>
</g>
<!-- Node6&#45;&gt;Node19 -->
<g id="edge18" class="edge">
<title>Node6&#45;&gt;Node19</title>
<path fill="none" stroke="midnightblue" d="M429.36,-550.51C493.05,-544.41 606.28,-533.56 669.86,-527.47"/>
<polygon fill="midnightblue" stroke="midnightblue" points="428.82,-547.05 419.2,-551.48 429.49,-554.01 428.82,-547.05"/>
</g>
<!-- Node9 -->
<g id="node9" class="node">
<title>Node9</title>
<g id="a_node9"><a xlink:href="classqbf__quantort.html" target="_top" xlink:title=" ">
<polygon fill="none" stroke="black" points="882.5,-627.5 882.5,-646.5 961.5,-646.5 961.5,-627.5 882.5,-627.5"/>
<text text-anchor="middle" x="922" y="-634.5" font-family="Helvetica,sans-Serif" font-size="10.00">qbf_quantort</text>
</a>
</g>
</g>
<!-- Node8&#45;&gt;Node9 -->
<g id="edge8" class="edge">
<title>Node8&#45;&gt;Node9</title>
<path fill="none" stroke="midnightblue" d="M768.26,-566.59C781.1,-569.4 794.52,-573.64 806,-580 826.62,-591.43 822.53,-606.31 843,-618 854.98,-624.84 869.36,-629.23 882.49,-632.05"/>
<polygon fill="midnightblue" stroke="midnightblue" points="768.62,-563.09 758.14,-564.62 767.29,-569.96 768.62,-563.09"/>
</g>
<!-- Node10 -->
<g id="node10" class="node">
<title>Node10</title>
<g id="a_node10"><a xlink:href="classqbf__qubet.html" target="_top" xlink:title=" ">
<polygon fill="none" stroke="black" points="889.5,-589.5 889.5,-608.5 954.5,-608.5 954.5,-589.5 889.5,-589.5"/>
<text text-anchor="middle" x="922" y="-596.5" font-family="Helvetica,sans-Serif" font-size="10.00">qbf_qubet</text>
</a>
</g>
</g>
<!-- Node8&#45;&gt;Node10 -->
<g id="edge9" class="edge">
<title>Node8&#45;&gt;Node10</title>
<path fill="none" stroke="midnightblue" d="M768.3,-570.35C806.06,-577.43 856.81,-586.95 889.22,-593.04"/>
<polygon fill="midnightblue" stroke="midnightblue" points="768.5,-566.82 758.02,-568.42 767.21,-573.7 768.5,-566.82"/>
</g>
<!-- Node11 -->
<g id="node11" class="node">
<title>Node11</title>
<g id="a_node11"><a xlink:href="classqbf__skizzot.html" target="_top" xlink:title=" ">
<polygon fill="none" stroke="black" points="886,-551.5 886,-570.5 958,-570.5 958,-551.5 886,-551.5"/>
<text text-anchor="middle" x="922" y="-558.5" font-family="Helvetica,sans-Serif" font-size="10.00">qbf_skizzot</text>
</a>
</g>
</g>
<!-- Node8&#45;&gt;Node11 -->
<g id="edge10" class="edge">
<title>Node8&#45;&gt;Node11</title>
<path fill="none" stroke="midnightblue" d="M768.45,-561C804.95,-561 853.54,-561 885.97,-561"/>
<polygon fill="midnightblue" stroke="midnightblue" points="768.02,-557.5 758.02,-561 768.02,-564.5 768.02,-557.5"/>
</g>
<!-- Node12 -->
<g id="node12" class="node">
<title>Node12</title>
<g id="a_node12"><a xlink:href="classqbf__squolemt.html" target="_top" xlink:title=" ">
<polygon fill="none" stroke="black" points="880.5,-513.5 880.5,-532.5 963.5,-532.5 963.5,-513.5 880.5,-513.5"/>
<text text-anchor="middle" x="922" y="-520.5" font-family="Helvetica,sans-Serif" font-size="10.00">qbf_squolemt</text>
</a>
</g>
</g>
<!-- Node8&#45;&gt;Node12 -->
<g id="edge11" class="edge">
<title>Node8&#45;&gt;Node12</title>
<path fill="none" stroke="midnightblue" d="M767.88,-551.73C802.34,-545.27 847.78,-536.74 880.19,-530.66"/>
<polygon fill="midnightblue" stroke="midnightblue" points="767.21,-548.3 758.02,-553.58 768.5,-555.18 767.21,-548.3"/>
</g>
<!-- Node13 -->
<g id="node13" class="node">
<title>Node13</title>
<g id="a_node13"><a xlink:href="classqdimacs__coret.html" target="_top" xlink:title=" ">
<polygon fill="none" stroke="black" points="878,-475.5 878,-494.5 966,-494.5 966,-475.5 878,-475.5"/>
<text text-anchor="middle" x="922" y="-482.5" font-family="Helvetica,sans-Serif" font-size="10.00">qdimacs_coret</text>
</a>
</g>
</g>
<!-- Node8&#45;&gt;Node13 -->
<g id="edge12" class="edge">
<title>Node8&#45;&gt;Node13</title>
<path fill="none" stroke="midnightblue" d="M768.26,-555.41C781.1,-552.6 794.52,-548.36 806,-542 826.62,-530.57 822.53,-515.69 843,-504 853.53,-497.99 865.91,-493.87 877.67,-491.05"/>
<polygon fill="midnightblue" stroke="midnightblue" points="767.29,-552.04 758.14,-557.38 768.62,-558.91 767.29,-552.04"/>
</g>
<!-- Node14 -->
<g id="node14" class="node">
<title>Node14</title>
<g id="a_node14"><a xlink:href="classqbf__bdd__certificatet.html" target="_top" xlink:title=" ">
<polygon fill="none" stroke="black" points="1050.5,-513.5 1050.5,-532.5 1163.5,-532.5 1163.5,-513.5 1050.5,-513.5"/>
<text text-anchor="middle" x="1107" y="-520.5" font-family="Helvetica,sans-Serif" font-size="10.00">qbf_bdd_certificatet</text>
</a>
</g>
</g>
<!-- Node13&#45;&gt;Node14 -->
<g id="edge13" class="edge">
<title>Node13&#45;&gt;Node14</title>
<path fill="none" stroke="midnightblue" d="M976.26,-496.06C1002.81,-501.57 1034.6,-508.17 1060.07,-513.46"/>
<polygon fill="midnightblue" stroke="midnightblue" points="976.87,-492.61 966.37,-494.01 975.45,-499.47 976.87,-492.61"/>
</g>
<!-- Node17 -->
<g id="node17" class="node">
<title>Node17</title>
<g id="a_node17"><a xlink:href="classqbf__qube__coret.html" target="_top" xlink:title=" ">
<polygon fill="none" stroke="black" points="1061,-475.5 1061,-494.5 1153,-494.5 1153,-475.5 1061,-475.5"/>
<text text-anchor="middle" x="1107" y="-482.5" font-family="Helvetica,sans-Serif" font-size="10.00">qbf_qube_coret</text>
</a>
</g>
</g>
<!-- Node13&#45;&gt;Node17 -->
<g id="edge16" class="edge">
<title>Node13&#45;&gt;Node17</title>
<path fill="none" stroke="midnightblue" d="M976.69,-485C1003.38,-485 1035.28,-485 1060.71,-485"/>
<polygon fill="midnightblue" stroke="midnightblue" points="976.37,-481.5 966.37,-485 976.37,-488.5 976.37,-481.5"/>
</g>
<!-- Node18 -->
<g id="node18" class="node">
<title>Node18</title>
<g id="a_node18"><a xlink:href="classqbf__squolem__coret.html" target="_top" xlink:title=" ">
<polygon fill="none" stroke="black" points="1052,-437.5 1052,-456.5 1162,-456.5 1162,-437.5 1052,-437.5"/>
<text text-anchor="middle" x="1107" y="-444.5" font-family="Helvetica,sans-Serif" font-size="10.00">qbf_squolem_coret</text>
</a>
</g>
</g>
<!-- Node13&#45;&gt;Node18 -->
<g id="edge17" class="edge">
<title>Node13&#45;&gt;Node18</title>
<path fill="none" stroke="midnightblue" d="M976.26,-473.94C1002.81,-468.43 1034.6,-461.83 1060.07,-456.54"/>
<polygon fill="midnightblue" stroke="midnightblue" points="975.45,-470.53 966.37,-475.99 976.87,-477.39 975.45,-470.53"/>
</g>
<!-- Node15 -->
<g id="node15" class="node">
<title>Node15</title>
<g id="a_node15"><a xlink:href="classqbf__bdd__coret.html" target="_top" xlink:title=" ">
<polygon fill="none" stroke="black" points="1219,-532.5 1219,-551.5 1305,-551.5 1305,-532.5 1219,-532.5"/>
<text text-anchor="middle" x="1262" y="-539.5" font-family="Helvetica,sans-Serif" font-size="10.00">qbf_bdd_coret</text>
</a>
</g>
</g>
<!-- Node14&#45;&gt;Node15 -->
<g id="edge14" class="edge">
<title>Node14&#45;&gt;Node15</title>
<path fill="none" stroke="midnightblue" d="M1174.01,-531.2C1189.11,-533.07 1204.77,-535.02 1218.57,-536.73"/>
<polygon fill="midnightblue" stroke="midnightblue" points="1174.02,-527.67 1163.67,-529.91 1173.16,-534.62 1174.02,-527.67"/>
</g>
<!-- Node16 -->
<g id="node16" class="node">
<title>Node16</title>
<g id="a_node16"><a xlink:href="classqbf__skizzo__coret.html" target="_top" xlink:title=" ">
<polygon fill="none" stroke="black" points="1213,-494.5 1213,-513.5 1311,-513.5 1311,-494.5 1213,-494.5"/>
<text text-anchor="middle" x="1262" y="-501.5" font-family="Helvetica,sans-Serif" font-size="10.00">qbf_skizzo_coret</text>
</a>
</g>
</g>
<!-- Node14&#45;&gt;Node16 -->
<g id="edge15" class="edge">
<title>Node14&#45;&gt;Node16</title>
<path fill="none" stroke="midnightblue" d="M1173.6,-514.85C1186.72,-513.22 1200.29,-511.54 1212.7,-510"/>
<polygon fill="midnightblue" stroke="midnightblue" points="1173.16,-511.38 1163.67,-516.09 1174.02,-518.33 1173.16,-511.38"/>
</g>
<!-- Node21 -->
<g id="node21" class="node">
<title>Node21</title>
<g id="a_node21"><a xlink:href="classsatcheck__zchafft.html" target="_top" xlink:title=" ">
<polygon fill="none" stroke="black" points="668.5,-475.5 668.5,-494.5 766.5,-494.5 766.5,-475.5 668.5,-475.5"/>
<text text-anchor="middle" x="717.5" y="-482.5" font-family="Helvetica,sans-Serif" font-size="10.00">satcheck_zchafft</text>
</a>
</g>
</g>
<!-- Node20&#45;&gt;Node21 -->
<g id="edge20" class="edge">
<title>Node20&#45;&gt;Node21</title>
<path fill="none" stroke="midnightblue" d="M455.44,-502.98C520.04,-498.53 612.51,-492.16 668.3,-488.32"/>
<polygon fill="midnightblue" stroke="midnightblue" points="455.06,-499.5 445.32,-503.67 455.54,-506.48 455.06,-499.5"/>
</g>
<!-- Node23 -->
<g id="node23" class="node">
<title>Node23</title>
<g id="a_node23"><a xlink:href="classsatcheck__glucose__baset.html" target="_top" xlink:title=" ">
<polygon fill="none" stroke="black" points="650,-425 650,-455 785,-455 785,-425 650,-425"/>
<text text-anchor="start" x="658" y="-443" font-family="Helvetica,sans-Serif" font-size="10.00">satcheck_glucose_baset</text>
<text text-anchor="middle" x="717.5" y="-432" font-family="Helvetica,sans-Serif" font-size="10.00">&lt; Glucose::Solver &gt;</text>
</a>
</g>
</g>
<!-- Node22&#45;&gt;Node23 -->
<g id="edge22" class="edge">
<title>Node22&#45;&gt;Node23</title>
<path fill="none" stroke="midnightblue" d="M209.88,-269.8C217.57,-307.86 240.31,-390.55 297,-425 408.64,-492.84 569.61,-473.03 656.09,-455.06"/>
<polygon fill="midnightblue" stroke="midnightblue" points="213.24,-268.7 207.96,-259.52 206.36,-269.99 213.24,-268.7"/>
</g>
<!-- Node25 -->
<g id="node25" class="node">
<title>Node25</title>
<g id="a_node25"><a xlink:href="classsatcheck__glucose__baset.html" target="_top" xlink:title=" ">
<polygon fill="none" stroke="black" points="647.5,-376 647.5,-406 787.5,-406 787.5,-376 647.5,-376"/>
<text text-anchor="start" x="655.5" y="-394" font-family="Helvetica,sans-Serif" font-size="10.00">satcheck_glucose_baset</text>
<text text-anchor="middle" x="717.5" y="-383" font-family="Helvetica,sans-Serif" font-size="10.00">&lt; Glucose::SimpSolver &gt;</text>
</a>
</g>
</g>
<!-- Node22&#45;&gt;Node25 -->
<g id="edge24" class="edge">
<title>Node22&#45;&gt;Node25</title>
<path fill="none" stroke="midnightblue" d="M219.19,-268.02C234.88,-288.74 263.63,-321.94 297,-338 357.28,-367.01 544.34,-381.58 647.12,-387.56"/>
<polygon fill="midnightblue" stroke="midnightblue" points="221.85,-265.73 213.11,-259.74 216.21,-269.87 221.85,-265.73"/>
</g>
<!-- Node27 -->
<g id="node27" class="node">
<title>Node27</title>
<g id="a_node27"><a xlink:href="classsatcheck__minisat2__baset.html" target="_top" xlink:title=" ">
<polygon fill="none" stroke="black" points="647.5,-325 647.5,-355 787.5,-355 787.5,-325 647.5,-325"/>
<text text-anchor="start" x="655.5" y="-343" font-family="Helvetica,sans-Serif" font-size="10.00">satcheck_minisat2_baset</text>
<text text-anchor="middle" x="717.5" y="-332" font-family="Helvetica,sans-Serif" font-size="10.00">&lt; Minisat::SimpSolver &gt;</text>
</a>
</g>
</g>
<!-- Node22&#45;&gt;Node27 -->
<g id="edge26" class="edge">
<title>Node22&#45;&gt;Node27</title>
<path fill="none" stroke="midnightblue" d="M226.14,-266.03C243.62,-279.37 270.46,-297.62 297,-307 414.79,-348.61 562.39,-349.36 647.43,-345.26"/>
<polygon fill="midnightblue" stroke="midnightblue" points="227.94,-262.99 217.91,-259.58 223.62,-268.51 227.94,-262.99"/>
</g>
<!-- Node29 -->
<g id="node29" class="node">
<title>Node29</title>
<g id="a_node29"><a xlink:href="classsatcheck__minisat2__baset.html" target="_top" xlink:title=" ">
<polygon fill="none" stroke="black" points="647.5,-268 647.5,-298 787.5,-298 787.5,-268 647.5,-268"/>
<text text-anchor="start" x="655.5" y="-286" font-family="Helvetica,sans-Serif" font-size="10.00">satcheck_minisat2_baset</text>
<text text-anchor="middle" x="717.5" y="-275" font-family="Helvetica,sans-Serif" font-size="10.00">&lt; Minisat::Solver &gt;</text>
</a>
</g>
</g>
<!-- Node22&#45;&gt;Node29 -->
<g id="edge28" class="edge">
<title>Node22&#45;&gt;Node29</title>
<path fill="none" stroke="midnightblue" d="M251.21,-252.89C340.35,-258.66 540.76,-271.63 647.13,-278.51"/>
<polygon fill="midnightblue" stroke="midnightblue" points="251.36,-249.4 241.15,-252.24 250.91,-256.38 251.36,-249.4"/>
</g>
<!-- Node31 -->
<g id="node31" class="node">
<title>Node31</title>
<g id="a_node31"><a xlink:href="classsatcheck__booleforce__baset.html" target="_top" xlink:title=" ">
<polygon fill="none" stroke="black" points="323,-191 323,-221 440,-221 440,-191 323,-191"/>
<text text-anchor="start" x="331" y="-209" font-family="Helvetica,sans-Serif" font-size="10.00">satcheck_booleforce</text>
<text text-anchor="middle" x="381.5" y="-198" font-family="Helvetica,sans-Serif" font-size="10.00">_baset</text>
</a>
</g>
</g>
<!-- Node22&#45;&gt;Node31 -->
<g id="edge30" class="edge">
<title>Node22&#45;&gt;Node31</title>
<path fill="none" stroke="midnightblue" d="M251.27,-238.68C273.06,-233.17 299.53,-226.48 322.82,-220.59"/>
<polygon fill="midnightblue" stroke="midnightblue" points="250.13,-235.36 241.29,-241.2 251.85,-242.14 250.13,-235.36"/>
</g>
<!-- Node34 -->
<g id="node34" class="node">
<title>Node34</title>
<g id="a_node34"><a xlink:href="classsatcheck__cadical__baset.html" target="_top" xlink:title=" ">
<polygon fill="none" stroke="black" points="315.5,-152.5 315.5,-171.5 447.5,-171.5 447.5,-152.5 315.5,-152.5"/>
<text text-anchor="middle" x="381.5" y="-159.5" font-family="Helvetica,sans-Serif" font-size="10.00">satcheck_cadical_baset</text>
</a>
</g>
</g>
<!-- Node22&#45;&gt;Node34 -->
<g id="edge33" class="edge">
<title>Node22&#45;&gt;Node34</title>
<path fill="none" stroke="midnightblue" d="M250.34,-236.94C253.74,-235.19 257.01,-233.21 260,-231 282.22,-214.55 273.86,-196.12 297,-181 302.97,-177.1 309.64,-173.99 316.54,-171.52"/>
<polygon fill="midnightblue" stroke="midnightblue" points="248.8,-233.8 241.13,-241.1 251.68,-240.18 248.8,-233.8"/>
</g>
<!-- Node37 -->
<g id="node37" class="node">
<title>Node37</title>
<g id="a_node37"><a xlink:href="classsatcheck__glucose__baset.html" target="_top" xlink:title=" ">
<polygon fill="none" stroke="black" points="299.5,-396.5 299.5,-415.5 463.5,-415.5 463.5,-396.5 299.5,-396.5"/>
<text text-anchor="middle" x="381.5" y="-403.5" font-family="Helvetica,sans-Serif" font-size="10.00">satcheck_glucose_baset&lt; T &gt;</text>
</a>
</g>
</g>
<!-- Node22&#45;&gt;Node37 -->
<g id="edge36" class="edge">
<title>Node22&#45;&gt;Node37</title>
<path fill="none" stroke="midnightblue" d="M211.55,-269.6C220.12,-298.77 240.35,-353.25 278,-382 286.21,-388.27 295.78,-392.94 305.73,-396.41"/>
<polygon fill="midnightblue" stroke="midnightblue" points="214.87,-268.47 208.83,-259.77 208.12,-270.34 214.87,-268.47"/>
</g>
<!-- Node38 -->
<g id="node38" class="node">
<title>Node38</title>
<g id="a_node38"><a xlink:href="classsatcheck__ipasirt.html" target="_top" xlink:title="Interface for generic SAT solver interface IPASIR.">
<polygon fill="none" stroke="black" points="333.5,-114.5 333.5,-133.5 429.5,-133.5 429.5,-114.5 333.5,-114.5"/>
<text text-anchor="middle" x="381.5" y="-121.5" font-family="Helvetica,sans-Serif" font-size="10.00">satcheck_ipasirt</text>
</a>
</g>
</g>
<!-- Node22&#45;&gt;Node38 -->
<g id="edge39" class="edge">
<title>Node22&#45;&gt;Node38</title>
<path fill="none" stroke="midnightblue" d="M250.25,-238.1C253.78,-236.09 257.1,-233.74 260,-231 290.84,-201.86 264.5,-170.28 297,-143 307.13,-134.49 320.32,-129.61 333.2,-126.85"/>
<polygon fill="midnightblue" stroke="midnightblue" points="248.66,-234.98 241.13,-242.44 251.67,-241.3 248.66,-234.98"/>
</g>
<!-- Node39 -->
<g id="node39" class="node">
<title>Node39</title>
<g id="a_node39"><a xlink:href="classsatcheck__lingelingt.html" target="_top" xlink:title=" ">
<polygon fill="none" stroke="black" points="326,-76.5 326,-95.5 437,-95.5 437,-76.5 326,-76.5"/>
<text text-anchor="middle" x="381.5" y="-83.5" font-family="Helvetica,sans-Serif" font-size="10.00">satcheck_lingelingt</text>
</a>
</g>
</g>
<!-- Node22&#45;&gt;Node39 -->
<g id="edge40" class="edge">
<title>Node22&#45;&gt;Node39</title>
<path fill="none" stroke="midnightblue" d="M250.3,-238.6C253.87,-236.49 257.18,-233.98 260,-231 280.05,-209.8 275.74,-124.99 297,-105 304.91,-97.57 315.1,-92.83 325.62,-89.85"/>
<polygon fill="midnightblue" stroke="midnightblue" points="248.49,-235.59 241.02,-243.1 251.54,-241.89 248.49,-235.59"/>
</g>
<!-- Node40 -->
<g id="node40" class="node">
<title>Node40</title>
<g id="a_node40"><a xlink:href="classsatcheck__minisat1__baset.html" target="_top" xlink:title=" ">
<polygon fill="none" stroke="black" points="311.5,-38.5 311.5,-57.5 451.5,-57.5 451.5,-38.5 311.5,-38.5"/>
<text text-anchor="middle" x="381.5" y="-45.5" font-family="Helvetica,sans-Serif" font-size="10.00">satcheck_minisat1_baset</text>
</a>
</g>
</g>
<!-- Node22&#45;&gt;Node40 -->
<g id="edge41" class="edge">
<title>Node22&#45;&gt;Node40</title>
<path fill="none" stroke="midnightblue" d="M250.06,-239.06C253.76,-236.85 257.17,-234.19 260,-231 284.8,-203.05 270.61,-93.44 297,-67 301.2,-62.79 306.13,-59.43 311.45,-56.76"/>
<polygon fill="midnightblue" stroke="midnightblue" points="248.47,-235.94 241,-243.45 251.53,-242.24 248.47,-235.94"/>
</g>
<!-- Node44 -->
<g id="node44" class="node">
<title>Node44</title>
<g id="a_node44"><a xlink:href="classsatcheck__minisat2__baset.html" target="_top" xlink:title=" ">
<polygon fill="none" stroke="black" points="297,-278.5 297,-297.5 466,-297.5 466,-278.5 297,-278.5"/>
<text text-anchor="middle" x="381.5" y="-285.5" font-family="Helvetica,sans-Serif" font-size="10.00">satcheck_minisat2_baset&lt; T &gt;</text>
</a>
</g>
</g>
<!-- Node22&#45;&gt;Node44 -->
<g id="edge45" class="edge">
<title>Node22&#45;&gt;Node44</title>
<path fill="none" stroke="midnightblue" d="M251.37,-259.8C277.66,-265.54 310.72,-272.76 336.8,-278.46"/>
<polygon fill="midnightblue" stroke="midnightblue" points="251.81,-256.31 241.29,-257.6 250.32,-263.15 251.81,-256.31"/>
</g>
<!-- Node45 -->
<g id="node45" class="node">
<title>Node45</title>
<g id="a_node45"><a xlink:href="classsatcheck__picosatt.html" target="_top" xlink:title=" ">
<polygon fill="none" stroke="black" points="329.5,-0.5 329.5,-19.5 433.5,-19.5 433.5,-0.5 329.5,-0.5"/>
<text text-anchor="middle" x="381.5" y="-7.5" font-family="Helvetica,sans-Serif" font-size="10.00">satcheck_picosatt</text>
</a>
</g>
</g>
<!-- Node22&#45;&gt;Node45 -->
<g id="edge48" class="edge">
<title>Node22&#45;&gt;Node45</title>
<path fill="none" stroke="midnightblue" d="M250.19,-239.18C253.87,-236.94 257.23,-234.25 260,-231 289.59,-196.25 265.42,-61.95 297,-29 305.54,-20.09 317.32,-14.96 329.34,-12.1"/>
<polygon fill="midnightblue" stroke="midnightblue" points="248.61,-236.05 241.17,-243.6 251.69,-242.34 248.61,-236.05"/>
</g>
<!-- Node24 -->
<g id="node24" class="node">
<title>Node24</title>
<g id="a_node24"><a xlink:href="classsatcheck__glucose__no__simplifiert.html" target="_top" xlink:title=" ">
<polygon fill="none" stroke="black" points="862,-425 862,-455 982,-455 982,-425 862,-425"/>
<text text-anchor="start" x="870" y="-443" font-family="Helvetica,sans-Serif" font-size="10.00">satcheck_glucose_no</text>
<text text-anchor="middle" x="922" y="-432" font-family="Helvetica,sans-Serif" font-size="10.00">_simplifiert</text>
</a>
</g>
</g>
<!-- Node23&#45;&gt;Node24 -->
<g id="edge23" class="edge">
<title>Node23&#45;&gt;Node24</title>
<path fill="none" stroke="midnightblue" d="M795.11,-440C817.22,-440 841,-440 861.88,-440"/>
<polygon fill="midnightblue" stroke="midnightblue" points="795.09,-436.5 785.09,-440 795.09,-443.5 795.09,-436.5"/>
</g>
<!-- Node26 -->
<g id="node26" class="node">
<title>Node26</title>
<g id="a_node26"><a xlink:href="classsatcheck__glucose__simplifiert.html" target="_top" xlink:title=" ">
<polygon fill="none" stroke="black" points="843,-381.5 843,-400.5 1001,-400.5 1001,-381.5 843,-381.5"/>
<text text-anchor="middle" x="922" y="-388.5" font-family="Helvetica,sans-Serif" font-size="10.00">satcheck_glucose_simplifiert</text>
</a>
</g>
</g>
<!-- Node25&#45;&gt;Node26 -->
<g id="edge25" class="edge">
<title>Node25&#45;&gt;Node26</title>
<path fill="none" stroke="midnightblue" d="M797.75,-391C812.56,-391 828.02,-391 842.8,-391"/>
<polygon fill="midnightblue" stroke="midnightblue" points="797.62,-387.5 787.62,-391 797.62,-394.5 797.62,-387.5"/>
</g>
<!-- Node28 -->
<g id="node28" class="node">
<title>Node28</title>
<g id="a_node28"><a xlink:href="classsatcheck__minisat__simplifiert.html" target="_top" xlink:title=" ">
<polygon fill="none" stroke="black" points="843.5,-330.5 843.5,-349.5 1000.5,-349.5 1000.5,-330.5 843.5,-330.5"/>
<text text-anchor="middle" x="922" y="-337.5" font-family="Helvetica,sans-Serif" font-size="10.00">satcheck_minisat_simplifiert</text>
</a>
</g>
</g>
<!-- Node27&#45;&gt;Node28 -->
<g id="edge27" class="edge">
<title>Node27&#45;&gt;Node28</title>
<path fill="none" stroke="midnightblue" d="M797.88,-340C812.88,-340 828.56,-340 843.5,-340"/>
<polygon fill="midnightblue" stroke="midnightblue" points="797.62,-336.5 787.62,-340 797.62,-343.5 797.62,-336.5"/>
</g>
<!-- Node30 -->
<g id="node30" class="node">
<title>Node30</title>
<g id="a_node30"><a xlink:href="classsatcheck__minisat__no__simplifiert.html" target="_top" xlink:title=" ">
<polygon fill="none" stroke="black" points="862.5,-268 862.5,-298 981.5,-298 981.5,-268 862.5,-268"/>
<text text-anchor="start" x="870.5" y="-286" font-family="Helvetica,sans-Serif" font-size="10.00">satcheck_minisat_no</text>
<text text-anchor="middle" x="922" y="-275" font-family="Helvetica,sans-Serif" font-size="10.00">_simplifiert</text>
</a>
</g>
</g>
<!-- Node29&#45;&gt;Node30 -->
<g id="edge29" class="edge">
<title>Node29&#45;&gt;Node30</title>
<path fill="none" stroke="midnightblue" d="M797.72,-283C819.24,-283 842.15,-283 862.31,-283"/>
<polygon fill="midnightblue" stroke="midnightblue" points="797.62,-279.5 787.62,-283 797.62,-286.5 797.62,-279.5"/>
</g>
<!-- Node32 -->
<g id="node32" class="node">
<title>Node32</title>
<g id="a_node32"><a xlink:href="classsatcheck__booleforce__coret.html" target="_top" xlink:title=" ">
<polygon fill="none" stroke="black" points="659,-219 659,-249 776,-249 776,-219 659,-219"/>
<text text-anchor="start" x="667" y="-237" font-family="Helvetica,sans-Serif" font-size="10.00">satcheck_booleforce</text>
<text text-anchor="middle" x="717.5" y="-226" font-family="Helvetica,sans-Serif" font-size="10.00">_coret</text>
</a>
</g>
</g>
<!-- Node31&#45;&gt;Node32 -->
<g id="edge31" class="edge">
<title>Node31&#45;&gt;Node32</title>
<path fill="none" stroke="midnightblue" d="M450.27,-211.68C511.58,-216.82 600.89,-224.31 658.85,-229.17"/>
<polygon fill="midnightblue" stroke="midnightblue" points="450.55,-208.19 440.3,-210.85 449.97,-215.17 450.55,-208.19"/>
</g>
<!-- Node33 -->
<g id="node33" class="node">
<title>Node33</title>
<g id="a_node33"><a xlink:href="classsatcheck__booleforcet.html" target="_top" xlink:title=" ">
<polygon fill="none" stroke="black" points="657,-180.5 657,-199.5 778,-199.5 778,-180.5 657,-180.5"/>
<text text-anchor="middle" x="717.5" y="-187.5" font-family="Helvetica,sans-Serif" font-size="10.00">satcheck_booleforcet</text>
</a>
</g>
</g>
<!-- Node31&#45;&gt;Node33 -->
<g id="edge32" class="edge">
<title>Node31&#45;&gt;Node33</title>
<path fill="none" stroke="midnightblue" d="M450.53,-202.74C511.15,-199.84 598.97,-195.63 656.88,-192.86"/>
<polygon fill="midnightblue" stroke="midnightblue" points="450.12,-199.26 440.3,-203.23 450.45,-206.25 450.12,-199.26"/>
</g>
<!-- Node35 -->
<g id="node35" class="node">
<title>Node35</title>
<g id="a_node35"><a xlink:href="classsatcheck__cadical__no__preprocessingt.html" target="_top" xlink:title=" ">
<polygon fill="none" stroke="black" points="659,-131 659,-161 776,-161 776,-131 659,-131"/>
<text text-anchor="start" x="667" y="-149" font-family="Helvetica,sans-Serif" font-size="10.00">satcheck_cadical_no</text>
<text text-anchor="middle" x="717.5" y="-138" font-family="Helvetica,sans-Serif" font-size="10.00">_preprocessingt</text>
</a>
</g>
</g>
<!-- Node34&#45;&gt;Node35 -->
<g id="edge34" class="edge">
<title>Node34&#45;&gt;Node35</title>
<path fill="none" stroke="midnightblue" d="M458.02,-158.38C518.98,-155.46 603.44,-151.42 659,-148.75"/>
<polygon fill="midnightblue" stroke="midnightblue" points="457.51,-154.9 447.69,-158.88 457.85,-161.89 457.51,-154.9"/>
</g>
<!-- Node36 -->
<g id="node36" class="node">
<title>Node36</title>
<g id="a_node36"><a xlink:href="classsatcheck__cadical__preprocessingt.html" target="_top" xlink:title=" ">
<polygon fill="none" stroke="black" points="629,-92.5 629,-111.5 806,-111.5 806,-92.5 629,-92.5"/>
<text text-anchor="middle" x="717.5" y="-99.5" font-family="Helvetica,sans-Serif" font-size="10.00">satcheck_cadical_preprocessingt</text>
</a>
</g>
</g>
<!-- Node34&#45;&gt;Node36 -->
<g id="edge35" class="edge">
<title>Node34&#45;&gt;Node36</title>
<path fill="none" stroke="midnightblue" d="M445.63,-150.66C508.64,-139.34 604.38,-122.14 663.55,-111.51"/>
<polygon fill="midnightblue" stroke="midnightblue" points="444.65,-147.28 435.42,-152.49 445.88,-154.17 444.65,-147.28"/>
</g>
<!-- Node37&#45;&gt;Node23 -->
<g id="edge37" class="edge">
<title>Node37&#45;&gt;Node23</title>
<path fill="none" stroke="orange" stroke-dasharray="5,2" d="M473.99,-415.31C529.6,-420.97 599.35,-428.07 649.76,-433.21"/>
<polygon fill="orange" stroke="orange" points="474.08,-411.8 463.78,-414.27 473.37,-418.77 474.08,-411.8"/>
<text text-anchor="middle" x="547.5" y="-432" font-family="Helvetica,sans-Serif" font-size="10.00"> &lt; Glucose::Solver &gt;</text>
</g>
<!-- Node37&#45;&gt;Node25 -->
<g id="edge38" class="edge">
<title>Node37&#45;&gt;Node25</title>
<path fill="none" stroke="orange" stroke-dasharray="5,2" d="M473.83,-401.9C528.57,-399.44 597.05,-396.36 647.3,-394.11"/>
<polygon fill="orange" stroke="orange" points="473.61,-398.4 463.78,-402.35 473.93,-405.4 473.61,-398.4"/>
<text text-anchor="middle" x="547.5" y="-404" font-family="Helvetica,sans-Serif" font-size="10.00"> &lt; Glucose::SimpSolver &gt;</text>
</g>
<!-- Node41 -->
<g id="node41" class="node">
<title>Node41</title>
<g id="a_node41"><a xlink:href="classsatcheck__minisat1t.html" target="_top" xlink:title=" ">
<polygon fill="none" stroke="black" points="661.5,-38.5 661.5,-57.5 773.5,-57.5 773.5,-38.5 661.5,-38.5"/>
<text text-anchor="middle" x="717.5" y="-45.5" font-family="Helvetica,sans-Serif" font-size="10.00">satcheck_minisat1t</text>
</a>
</g>
</g>
<!-- Node40&#45;&gt;Node41 -->
<g id="edge42" class="edge">
<title>Node40&#45;&gt;Node41</title>
<path fill="none" stroke="midnightblue" d="M461.77,-48C523.32,-48 607.06,-48 661.45,-48"/>
<polygon fill="midnightblue" stroke="midnightblue" points="461.71,-44.5 451.71,-48 461.7,-51.5 461.71,-44.5"/>
</g>
<!-- Node42 -->
<g id="node42" class="node">
<title>Node42</title>
<g id="a_node42"><a xlink:href="classsatcheck__minisat1__prooft.html" target="_top" xlink:title=" ">
<polygon fill="none" stroke="black" points="851,-38.5 851,-57.5 993,-57.5 993,-38.5 851,-38.5"/>
<text text-anchor="middle" x="922" y="-45.5" font-family="Helvetica,sans-Serif" font-size="10.00">satcheck_minisat1_prooft</text>
</a>
</g>
</g>
<!-- Node41&#45;&gt;Node42 -->
<g id="edge43" class="edge">
<title>Node41&#45;&gt;Node42</title>
<path fill="none" stroke="midnightblue" d="M783.83,-48C805.19,-48 828.99,-48 850.7,-48"/>
<polygon fill="midnightblue" stroke="midnightblue" points="783.57,-44.5 773.57,-48 783.57,-51.5 783.57,-44.5"/>
</g>
<!-- Node43 -->
<g id="node43" class="node">
<title>Node43</title>
<g id="a_node43"><a xlink:href="classsatcheck__minisat1__coret.html" target="_top" xlink:title=" ">
<polygon fill="none" stroke="black" points="1038,-38.5 1038,-57.5 1176,-57.5 1176,-38.5 1038,-38.5"/>
<text text-anchor="middle" x="1107" y="-45.5" font-family="Helvetica,sans-Serif" font-size="10.00">satcheck_minisat1_coret</text>
</a>
</g>
</g>
<!-- Node42&#45;&gt;Node43 -->
<g id="edge44" class="edge">
<title>Node42&#45;&gt;Node43</title>
<path fill="none" stroke="midnightblue" d="M1003.26,-48C1014.77,-48 1026.52,-48 1037.77,-48"/>
<polygon fill="midnightblue" stroke="midnightblue" points="1003.23,-44.5 993.23,-48 1003.23,-51.5 1003.23,-44.5"/>
</g>
<!-- Node44&#45;&gt;Node27 -->
<g id="edge46" class="edge">
<title>Node44&#45;&gt;Node27</title>
<path fill="none" stroke="orange" stroke-dasharray="5,2" d="M476.11,-298.68C517.55,-303.82 566.81,-310.5 611,-318 623.08,-320.05 635.89,-322.49 648.26,-324.99"/>
<polygon fill="orange" stroke="orange" points="476.38,-295.19 466.02,-297.44 475.52,-302.14 476.38,-295.19"/>
<text text-anchor="middle" x="547.5" y="-321" font-family="Helvetica,sans-Serif" font-size="10.00"> &lt; Minisat::SimpSolver &gt;</text>
</g>
<!-- Node44&#45;&gt;Node29 -->
<g id="edge47" class="edge">
<title>Node44&#45;&gt;Node29</title>
<path fill="none" stroke="orange" stroke-dasharray="5,2" d="M476.27,-284.19C478.87,-284.12 481.45,-284.06 484,-284 538.88,-282.8 601.07,-282.59 647.31,-282.66"/>
<polygon fill="orange" stroke="orange" points="476.03,-280.69 466.13,-284.47 476.23,-287.69 476.03,-280.69"/>
<text text-anchor="middle" x="547.5" y="-287" font-family="Helvetica,sans-Serif" font-size="10.00"> &lt; Minisat::Solver &gt;</text>
</g>
</g>
</svg>
