<?xml version="1.0" encoding="UTF-8" standalone="no"?>
<!DOCTYPE svg PUBLIC "-//W3C//DTD SVG 1.1//EN"
 "http://www.w3.org/Graphics/SVG/1.1/DTD/svg11.dtd">
<!-- Generated by graphviz version 2.43.0 (0)
 -->
<!-- Title: satcheck_cadical_baset Pages: 1 -->
<svg width="320pt" height="263pt"
 viewBox="0.00 0.00 320.00 263.00" xmlns="http://www.w3.org/2000/svg" xmlns:xlink="http://www.w3.org/1999/xlink">
<g id="graph0" class="graph" transform="scale(1 1) rotate(0) translate(4 259)">
<title>satcheck_cadical_baset</title>
<!-- Node1 -->
<g id="node1" class="node">
<title>Node1</title>
<g id="a_node1"><a xlink:title=" ">
<polygon fill="#bfbfbf" stroke="black" points="74.5,-67.5 74.5,-86.5 206.5,-86.5 206.5,-67.5 74.5,-67.5"/>
<text text-anchor="middle" x="140.5" y="-74.5" font-family="Helvetica,sans-Serif" font-size="10.00">satcheck_cadical_baset</text>
</a>
</g>
</g>
<!-- Node6 -->
<g id="node6" class="node">
<title>Node6</title>
<g id="a_node6"><a xlink:href="classsatcheck__cadical__no__preprocessingt.html" target="_top" xlink:title=" ">
<polygon fill="none" stroke="black" points="0,-0.5 0,-30.5 117,-30.5 117,-0.5 0,-0.5"/>
<text text-anchor="start" x="8" y="-18.5" font-family="Helvetica,sans-Serif" font-size="10.00">satcheck_cadical_no</text>
<text text-anchor="middle" x="58.5" y="-7.5" font-family="Helvetica,sans-Serif" font-size="10.00">_preprocessingt</text>
</a>
</g>
</g>
<!-- Node1&#45;&gt;Node6 -->
<g id="edge5" class="edge">
<title>Node1&#45;&gt;Node6</title>
<path fill="none" stroke="midnightblue" d="M120.47,-61.47C107.49,-52.05 90.67,-39.84 77.83,-30.52"/>
<polygon fill="midnightblue" stroke="midnightblue" points="118.6,-64.43 128.75,-67.48 122.71,-58.77 118.6,-64.43"/>
</g>
<!-- Node7 -->
<g id="node7" class="node">
<title>Node7</title>
<g id="a_node7"><a xlink:href="classsatcheck__cadical__preprocessingt.html" target="_top" xlink:title=" ">
<polygon fill="none" stroke="black" points="135,-6 135,-25 312,-25 312,-6 135,-6"/>
<text text-anchor="middle" x="223.5" y="-13" font-family="Helvetica,sans-Serif" font-size="10.00">satcheck_cadical_preprocessingt</text>
</a>
</g>
</g>
<!-- Node1&#45;&gt;Node7 -->
<g id="edge6" class="edge">
<title>Node1&#45;&gt;Node7</title>
<path fill="none" stroke="midnightblue" d="M160.57,-61.61C176.53,-50.17 198.33,-34.55 211.63,-25.01"/>
<polygon fill="midnightblue" stroke="midnightblue" points="158.48,-58.8 152.39,-67.48 162.56,-64.49 158.48,-58.8"/>
</g>
<!-- Node2 -->
<g id="node2" class="node">
<title>Node2</title>
<g id="a_node2"><a xlink:href="classcnf__solvert.html" target="_top" xlink:title=" ">
<polygon fill="none" stroke="black" points="50,-123.5 50,-142.5 121,-142.5 121,-123.5 50,-123.5"/>
<text text-anchor="middle" x="85.5" y="-130.5" font-family="Helvetica,sans-Serif" font-size="10.00">cnf_solvert</text>
</a>
</g>
</g>
<!-- Node2&#45;&gt;Node1 -->
<g id="edge1" class="edge">
<title>Node2&#45;&gt;Node1</title>
<path fill="none" stroke="midnightblue" d="M101.79,-116C111.54,-106.43 123.55,-94.64 131.59,-86.75"/>
<polygon fill="midnightblue" stroke="midnightblue" points="99.27,-113.58 94.58,-123.08 104.17,-118.57 99.27,-113.58"/>
</g>
<!-- Node3 -->
<g id="node3" class="node">
<title>Node3</title>
<g id="a_node3"><a xlink:href="classcnft.html" target="_top" xlink:title=" ">
<polygon fill="none" stroke="black" points="68,-179.5 68,-198.5 103,-198.5 103,-179.5 68,-179.5"/>
<text text-anchor="middle" x="85.5" y="-186.5" font-family="Helvetica,sans-Serif" font-size="10.00">cnft</text>
</a>
</g>
</g>
<!-- Node3&#45;&gt;Node2 -->
<g id="edge2" class="edge">
<title>Node3&#45;&gt;Node2</title>
<path fill="none" stroke="midnightblue" d="M85.5,-168.8C85.5,-159.91 85.5,-149.78 85.5,-142.75"/>
<polygon fill="midnightblue" stroke="midnightblue" points="82,-169.08 85.5,-179.08 89,-169.08 82,-169.08"/>
</g>
<!-- Node4 -->
<g id="node4" class="node">
<title>Node4</title>
<g id="a_node4"><a xlink:href="classpropt.html" target="_top" xlink:title="TO_BE_DOCUMENTED.">
<polygon fill="none" stroke="black" points="64.5,-235.5 64.5,-254.5 106.5,-254.5 106.5,-235.5 64.5,-235.5"/>
<text text-anchor="middle" x="85.5" y="-242.5" font-family="Helvetica,sans-Serif" font-size="10.00">propt</text>
</a>
</g>
</g>
<!-- Node4&#45;&gt;Node3 -->
<g id="edge3" class="edge">
<title>Node4&#45;&gt;Node3</title>
<path fill="none" stroke="midnightblue" d="M85.5,-224.8C85.5,-215.91 85.5,-205.78 85.5,-198.75"/>
<polygon fill="midnightblue" stroke="midnightblue" points="82,-225.08 85.5,-235.08 89,-225.08 82,-225.08"/>
</g>
<!-- Node5 -->
<g id="node5" class="node">
<title>Node5</title>
<g id="a_node5"><a xlink:href="classhardness__collectort.html" target="_top" xlink:title=" ">
<polygon fill="none" stroke="black" points="139.5,-123.5 139.5,-142.5 251.5,-142.5 251.5,-123.5 139.5,-123.5"/>
<text text-anchor="middle" x="195.5" y="-130.5" font-family="Helvetica,sans-Serif" font-size="10.00">hardness_collectort</text>
</a>
</g>
</g>
<!-- Node5&#45;&gt;Node1 -->
<g id="edge4" class="edge">
<title>Node5&#45;&gt;Node1</title>
<path fill="none" stroke="midnightblue" d="M179.21,-116C169.46,-106.43 157.45,-94.64 149.41,-86.75"/>
<polygon fill="midnightblue" stroke="midnightblue" points="176.83,-118.57 186.42,-123.08 181.73,-113.58 176.83,-118.57"/>
</g>
</g>
</svg>
