<?xml version="1.0" encoding="UTF-8" standalone="no"?>
<!DOCTYPE svg PUBLIC "-//W3C//DTD SVG 1.1//EN"
 "http://www.w3.org/Graphics/SVG/1.1/DTD/svg11.dtd">
<!-- Generated by graphviz version 2.43.0 (0)
 -->
<!-- Title: unary_exprt Pages: 1 -->
<svg width="1379pt" height="1317pt"
 viewBox="0.00 0.00 1379.00 1317.00" xmlns="http://www.w3.org/2000/svg" xmlns:xlink="http://www.w3.org/1999/xlink">
<g id="graph0" class="graph" transform="scale(1 1) rotate(0) translate(4 1313)">
<title>unary_exprt</title>
<!-- Node1 -->
<g id="node1" class="node">
<title>Node1</title>
<g id="a_node1"><a xlink:title="Generic base class for unary expressions.">
<polygon fill="#bfbfbf" stroke="black" points="767,-722.5 767,-741.5 842,-741.5 842,-722.5 767,-722.5"/>
<text text-anchor="middle" x="804.5" y="-729.5" font-family="Helvetica,sans-Serif" font-size="10.00">unary_exprt</text>
</a>
</g>
</g>
<!-- Node7 -->
<g id="node7" class="node">
<title>Node7</title>
<g id="a_node7"><a xlink:href="classabs__exprt.html" target="_top" xlink:title="Absolute value.">
<polygon fill="none" stroke="black" points="923,-1289.5 923,-1308.5 988,-1308.5 988,-1289.5 923,-1289.5"/>
<text text-anchor="middle" x="955.5" y="-1296.5" font-family="Helvetica,sans-Serif" font-size="10.00">abs_exprt</text>
</a>
</g>
</g>
<!-- Node1&#45;&gt;Node7 -->
<g id="edge6" class="edge">
<title>Node1&#45;&gt;Node7</title>
<path fill="none" stroke="midnightblue" d="M805.97,-751.64C807.92,-818.94 817.46,-1046.2 860,-1228 865.61,-1251.96 860.72,-1263.53 879,-1280 890.85,-1290.68 907.81,-1295.55 922.66,-1297.7"/>
<polygon fill="midnightblue" stroke="midnightblue" points="809.46,-751.5 805.7,-741.6 802.47,-751.69 809.46,-751.5"/>
</g>
<!-- Node8 -->
<g id="node8" class="node">
<title>Node8</title>
<g id="a_node8"><a xlink:href="classaddress__of__exprt.html" target="_top" xlink:title="Operator to return the address of an object.">
<polygon fill="none" stroke="black" points="905,-1251.5 905,-1270.5 1006,-1270.5 1006,-1251.5 905,-1251.5"/>
<text text-anchor="middle" x="955.5" y="-1258.5" font-family="Helvetica,sans-Serif" font-size="10.00">address_of_exprt</text>
</a>
</g>
</g>
<!-- Node1&#45;&gt;Node8 -->
<g id="edge7" class="edge">
<title>Node1&#45;&gt;Node8</title>
<path fill="none" stroke="midnightblue" d="M805.39,-751.94C805.34,-837.26 809.67,-1170.44 879,-1242 885.96,-1249.18 895.21,-1253.8 904.83,-1256.74"/>
<polygon fill="midnightblue" stroke="midnightblue" points="808.89,-751.81 805.42,-741.8 801.89,-751.79 808.89,-751.81"/>
</g>
<!-- Node9 -->
<g id="node9" class="node">
<title>Node9</title>
<g id="a_node9"><a xlink:href="classannotated__pointer__constant__exprt.html" target="_top" xlink:title="Pointer&#45;typed bitvector constant annotated with the pointer expression that the bitvector is the nume...">
<polygon fill="none" stroke="black" points="879,-1202 879,-1232 1032,-1232 1032,-1202 879,-1202"/>
<text text-anchor="start" x="887" y="-1220" font-family="Helvetica,sans-Serif" font-size="10.00">annotated_pointer_constant</text>
<text text-anchor="middle" x="955.5" y="-1209" font-family="Helvetica,sans-Serif" font-size="10.00">_exprt</text>
</a>
</g>
</g>
<!-- Node1&#45;&gt;Node9 -->
<g id="edge8" class="edge">
<title>Node1&#45;&gt;Node9</title>
<path fill="none" stroke="midnightblue" d="M806.67,-751.81C810.48,-811.23 824.45,-992.88 860,-1139 865.92,-1163.31 861.09,-1174.52 879,-1192 882.95,-1195.86 887.51,-1199.12 892.4,-1201.88"/>
<polygon fill="midnightblue" stroke="midnightblue" points="810.15,-751.37 806.04,-741.6 803.16,-751.8 810.15,-751.37"/>
</g>
<!-- Node10 -->
<g id="node10" class="node">
<title>Node10</title>
<g id="a_node10"><a xlink:href="classarray__of__exprt.html" target="_top" xlink:title="Array constructor from single element.">
<polygon fill="none" stroke="black" points="911.5,-1163.5 911.5,-1182.5 999.5,-1182.5 999.5,-1163.5 911.5,-1163.5"/>
<text text-anchor="middle" x="955.5" y="-1170.5" font-family="Helvetica,sans-Serif" font-size="10.00">array_of_exprt</text>
</a>
</g>
</g>
<!-- Node1&#45;&gt;Node10 -->
<g id="edge9" class="edge">
<title>Node1&#45;&gt;Node10</title>
<path fill="none" stroke="midnightblue" d="M806.02,-751.55C808.44,-826.8 821.09,-1096.37 879,-1154 887.62,-1162.58 899.51,-1167.48 911.31,-1170.22"/>
<polygon fill="midnightblue" stroke="midnightblue" points="809.52,-751.45 805.72,-741.55 802.52,-751.65 809.52,-751.45"/>
</g>
<!-- Node11 -->
<g id="node11" class="node">
<title>Node11</title>
<g id="a_node11"><a xlink:href="classbit__cast__exprt.html" target="_top" xlink:title="Reinterpret the bits of an expression of type S as an expression of type T where S and T have the sam...">
<polygon fill="none" stroke="black" points="912.5,-1125.5 912.5,-1144.5 998.5,-1144.5 998.5,-1125.5 912.5,-1125.5"/>
<text text-anchor="middle" x="955.5" y="-1132.5" font-family="Helvetica,sans-Serif" font-size="10.00">bit_cast_exprt</text>
</a>
</g>
</g>
<!-- Node1&#45;&gt;Node11 -->
<g id="edge10" class="edge">
<title>Node1&#45;&gt;Node11</title>
<path fill="none" stroke="midnightblue" d="M807.39,-751.85C812.63,-803.92 829.05,-948.4 860,-1065 866.2,-1088.38 860.98,-1099.86 879,-1116 888.16,-1124.21 900.35,-1128.98 912.26,-1131.72"/>
<polygon fill="midnightblue" stroke="midnightblue" points="810.85,-751.29 806.39,-741.68 803.88,-751.97 810.85,-751.29"/>
</g>
<!-- Node12 -->
<g id="node12" class="node">
<title>Node12</title>
<g id="a_node12"><a xlink:href="classbitnot__exprt.html" target="_top" xlink:title="Bit&#45;wise negation of bit&#45;vectors.">
<polygon fill="none" stroke="black" points="917.5,-1087.5 917.5,-1106.5 993.5,-1106.5 993.5,-1087.5 917.5,-1087.5"/>
<text text-anchor="middle" x="955.5" y="-1094.5" font-family="Helvetica,sans-Serif" font-size="10.00">bitnot_exprt</text>
</a>
</g>
</g>
<!-- Node1&#45;&gt;Node12 -->
<g id="edge11" class="edge">
<title>Node1&#45;&gt;Node12</title>
<path fill="none" stroke="midnightblue" d="M806.75,-751.87C811.4,-818.69 829.98,-1033.55 879,-1078 889.41,-1087.44 903.83,-1092.35 917.27,-1094.85"/>
<polygon fill="midnightblue" stroke="midnightblue" points="810.24,-751.57 806.08,-741.82 803.26,-752.04 810.24,-751.57"/>
</g>
<!-- Node13 -->
<g id="node13" class="node">
<title>Node13</title>
<g id="a_node13"><a xlink:href="classbitreverse__exprt.html" target="_top" xlink:title="Reverse the order of bits in a bit&#45;vector.">
<polygon fill="none" stroke="black" points="907,-1049.5 907,-1068.5 1004,-1068.5 1004,-1049.5 907,-1049.5"/>
<text text-anchor="middle" x="955.5" y="-1056.5" font-family="Helvetica,sans-Serif" font-size="10.00">bitreverse_exprt</text>
</a>
</g>
</g>
<!-- Node1&#45;&gt;Node13 -->
<g id="edge12" class="edge">
<title>Node1&#45;&gt;Node13</title>
<path fill="none" stroke="midnightblue" d="M807.31,-751.65C813.42,-813.26 835.34,-1000.9 879,-1040 886.75,-1046.94 896.67,-1051.43 906.75,-1054.31"/>
<polygon fill="midnightblue" stroke="midnightblue" points="810.8,-751.29 806.36,-741.67 803.83,-751.96 810.8,-751.29"/>
</g>
<!-- Node14 -->
<g id="node14" class="node">
<title>Node14</title>
<g id="a_node14"><a xlink:href="classbswap__exprt.html" target="_top" xlink:title="The byte swap expression.">
<polygon fill="none" stroke="black" points="916,-1011.5 916,-1030.5 995,-1030.5 995,-1011.5 916,-1011.5"/>
<text text-anchor="middle" x="955.5" y="-1018.5" font-family="Helvetica,sans-Serif" font-size="10.00">bswap_exprt</text>
</a>
</g>
</g>
<!-- Node1&#45;&gt;Node14 -->
<g id="edge13" class="edge">
<title>Node1&#45;&gt;Node14</title>
<path fill="none" stroke="midnightblue" d="M807.99,-751.81C815.52,-808.45 840,-969.11 879,-1002 889.23,-1010.63 902.84,-1015.42 915.68,-1018.06"/>
<polygon fill="midnightblue" stroke="midnightblue" points="811.43,-751.13 806.67,-741.66 804.49,-752.03 811.43,-751.13"/>
</g>
<!-- Node15 -->
<g id="node15" class="node">
<title>Node15</title>
<g id="a_node15"><a xlink:href="classcomplex__imag__exprt.html" target="_top" xlink:title="Imaginary part of the expression describing a complex number.">
<polygon fill="none" stroke="black" points="896,-973.5 896,-992.5 1015,-992.5 1015,-973.5 896,-973.5"/>
<text text-anchor="middle" x="955.5" y="-980.5" font-family="Helvetica,sans-Serif" font-size="10.00">complex_imag_exprt</text>
</a>
</g>
</g>
<!-- Node1&#45;&gt;Node15 -->
<g id="edge14" class="edge">
<title>Node1&#45;&gt;Node15</title>
<path fill="none" stroke="midnightblue" d="M805.29,-751.89C805.99,-797.26 814.55,-908.72 879,-964 883.92,-968.22 889.66,-971.53 895.72,-974.12"/>
<polygon fill="midnightblue" stroke="midnightblue" points="808.79,-751.84 805.26,-741.85 801.79,-751.87 808.79,-751.84"/>
</g>
<!-- Node16 -->
<g id="node16" class="node">
<title>Node16</title>
<g id="a_node16"><a xlink:href="classcomplex__real__exprt.html" target="_top" xlink:title="Real part of the expression describing a complex number.">
<polygon fill="none" stroke="black" points="899,-935.5 899,-954.5 1012,-954.5 1012,-935.5 899,-935.5"/>
<text text-anchor="middle" x="955.5" y="-942.5" font-family="Helvetica,sans-Serif" font-size="10.00">complex_real_exprt</text>
</a>
</g>
</g>
<!-- Node1&#45;&gt;Node16 -->
<g id="edge15" class="edge">
<title>Node1&#45;&gt;Node16</title>
<path fill="none" stroke="midnightblue" d="M807.11,-751.98C811.39,-791.38 826.61,-879.34 879,-926 884.75,-931.12 891.69,-934.91 898.99,-937.69"/>
<polygon fill="midnightblue" stroke="midnightblue" points="810.58,-751.43 806.14,-741.81 803.61,-752.1 810.58,-751.43"/>
</g>
<!-- Node17 -->
<g id="node17" class="node">
<title>Node17</title>
<g id="a_node17"><a xlink:href="classcount__leading__zeros__exprt.html" target="_top" xlink:title="The count leading zeros (counting the number of zero bits starting from the most&#45;significant bit) exp...">
<polygon fill="none" stroke="black" points="897.5,-886 897.5,-916 1013.5,-916 1013.5,-886 897.5,-886"/>
<text text-anchor="start" x="905.5" y="-904" font-family="Helvetica,sans-Serif" font-size="10.00">count_leading_zeros</text>
<text text-anchor="middle" x="955.5" y="-893" font-family="Helvetica,sans-Serif" font-size="10.00">_exprt</text>
</a>
</g>
</g>
<!-- Node1&#45;&gt;Node17 -->
<g id="edge16" class="edge">
<title>Node1&#45;&gt;Node17</title>
<path fill="none" stroke="midnightblue" d="M810.23,-751.79C818.7,-782.93 839.36,-843.29 879,-877 884.45,-881.63 890.8,-885.37 897.46,-888.39"/>
<polygon fill="midnightblue" stroke="midnightblue" points="813.53,-750.56 807.66,-741.74 806.75,-752.3 813.53,-750.56"/>
</g>
<!-- Node18 -->
<g id="node18" class="node">
<title>Node18</title>
<g id="a_node18"><a xlink:href="classcount__trailing__zeros__exprt.html" target="_top" xlink:title="The count trailing zeros (counting the number of zero bits starting from the least&#45;significant bit) e...">
<polygon fill="none" stroke="black" points="898,-837 898,-867 1013,-867 1013,-837 898,-837"/>
<text text-anchor="start" x="906" y="-855" font-family="Helvetica,sans-Serif" font-size="10.00">count_trailing_zeros</text>
<text text-anchor="middle" x="955.5" y="-844" font-family="Helvetica,sans-Serif" font-size="10.00">_exprt</text>
</a>
</g>
</g>
<!-- Node1&#45;&gt;Node18 -->
<g id="edge17" class="edge">
<title>Node1&#45;&gt;Node18</title>
<path fill="none" stroke="midnightblue" d="M815.37,-750.65C827.6,-772.03 850.35,-806.72 879,-827 884.75,-831.07 891.2,-834.51 897.85,-837.41"/>
<polygon fill="midnightblue" stroke="midnightblue" points="818.28,-748.67 810.38,-741.61 812.15,-752.05 818.28,-748.67"/>
</g>
<!-- Node19 -->
<g id="node19" class="node">
<title>Node19</title>
<g id="a_node19"><a xlink:href="classcstrlen__exprt.html" target="_top" xlink:title="An expression, akin to ISO C&#39;s strlen, that denotes the length of a zero&#45;terminated string that start...">
<polygon fill="none" stroke="black" points="915.5,-798.5 915.5,-817.5 995.5,-817.5 995.5,-798.5 915.5,-798.5"/>
<text text-anchor="middle" x="955.5" y="-805.5" font-family="Helvetica,sans-Serif" font-size="10.00">cstrlen_exprt</text>
</a>
</g>
</g>
<!-- Node1&#45;&gt;Node19 -->
<g id="edge18" class="edge">
<title>Node1&#45;&gt;Node19</title>
<path fill="none" stroke="midnightblue" d="M822.48,-748.52C836.55,-761.33 857.64,-778.6 879,-789 890.3,-794.5 903.36,-798.51 915.4,-801.39"/>
<polygon fill="midnightblue" stroke="midnightblue" points="824.76,-745.85 815.06,-741.58 819.97,-750.96 824.76,-745.85"/>
</g>
<!-- Node20 -->
<g id="node20" class="node">
<title>Node20</title>
<g id="a_node20"><a xlink:href="classdereference__exprt.html" target="_top" xlink:title="Operator to dereference a pointer.">
<polygon fill="none" stroke="black" points="902.5,-760.5 902.5,-779.5 1008.5,-779.5 1008.5,-760.5 902.5,-760.5"/>
<text text-anchor="middle" x="955.5" y="-767.5" font-family="Helvetica,sans-Serif" font-size="10.00">dereference_exprt</text>
</a>
</g>
</g>
<!-- Node1&#45;&gt;Node20 -->
<g id="edge19" class="edge">
<title>Node1&#45;&gt;Node20</title>
<path fill="none" stroke="midnightblue" d="M852.03,-744.08C860.98,-746.39 870.28,-748.78 879,-751 891.18,-754.11 904.47,-757.46 916.47,-760.48"/>
<polygon fill="midnightblue" stroke="midnightblue" points="852.68,-740.63 842.13,-741.52 850.93,-747.41 852.68,-740.63"/>
</g>
<!-- Node21 -->
<g id="node21" class="node">
<title>Node21</title>
<g id="a_node21"><a xlink:href="classfield__address__exprt.html" target="_top" xlink:title="Operator to return the address of a field relative to a base address.">
<polygon fill="none" stroke="black" points="899.5,-722.5 899.5,-741.5 1011.5,-741.5 1011.5,-722.5 899.5,-722.5"/>
<text text-anchor="middle" x="955.5" y="-729.5" font-family="Helvetica,sans-Serif" font-size="10.00">field_address_exprt</text>
</a>
</g>
</g>
<!-- Node1&#45;&gt;Node21 -->
<g id="edge20" class="edge">
<title>Node1&#45;&gt;Node21</title>
<path fill="none" stroke="midnightblue" d="M852.75,-732C867.52,-732 883.95,-732 899.22,-732"/>
<polygon fill="midnightblue" stroke="midnightblue" points="852.33,-728.5 842.33,-732 852.33,-735.5 852.33,-728.5"/>
</g>
<!-- Node22 -->
<g id="node22" class="node">
<title>Node22</title>
<g id="a_node22"><a xlink:href="classfind__first__set__exprt.html" target="_top" xlink:title="Returns one plus the index of the least&#45;significant one bit, or zero if the operand is zero.">
<polygon fill="none" stroke="black" points="900.5,-684.5 900.5,-703.5 1010.5,-703.5 1010.5,-684.5 900.5,-684.5"/>
<text text-anchor="middle" x="955.5" y="-691.5" font-family="Helvetica,sans-Serif" font-size="10.00">find_first_set_exprt</text>
</a>
</g>
</g>
<!-- Node1&#45;&gt;Node22 -->
<g id="edge21" class="edge">
<title>Node1&#45;&gt;Node22</title>
<path fill="none" stroke="midnightblue" d="M852.03,-719.92C860.98,-717.61 870.28,-715.22 879,-713 891.18,-709.89 904.47,-706.54 916.47,-703.52"/>
<polygon fill="midnightblue" stroke="midnightblue" points="850.93,-716.59 842.13,-722.48 852.68,-723.37 850.93,-716.59"/>
</g>
<!-- Node23 -->
<g id="node23" class="node">
<title>Node23</title>
<g id="a_node23"><a xlink:href="classhistory__exprt.html" target="_top" xlink:title="A class for an expression that indicates a history variable.">
<polygon fill="none" stroke="black" points="915,-646.5 915,-665.5 996,-665.5 996,-646.5 915,-646.5"/>
<text text-anchor="middle" x="955.5" y="-653.5" font-family="Helvetica,sans-Serif" font-size="10.00">history_exprt</text>
</a>
</g>
</g>
<!-- Node1&#45;&gt;Node23 -->
<g id="edge22" class="edge">
<title>Node1&#45;&gt;Node23</title>
<path fill="none" stroke="midnightblue" d="M822.48,-715.48C836.55,-702.67 857.64,-685.4 879,-675 890.06,-669.62 902.8,-665.66 914.62,-662.79"/>
<polygon fill="midnightblue" stroke="midnightblue" points="819.97,-713.04 815.06,-722.42 824.76,-718.15 819.97,-713.04"/>
</g>
<!-- Node24 -->
<g id="node24" class="node">
<title>Node24</title>
<g id="a_node24"><a xlink:href="classmember__exprt.html" target="_top" xlink:title="Extract member of struct or union.">
<polygon fill="none" stroke="black" points="911,-608.5 911,-627.5 1000,-627.5 1000,-608.5 911,-608.5"/>
<text text-anchor="middle" x="955.5" y="-615.5" font-family="Helvetica,sans-Serif" font-size="10.00">member_exprt</text>
</a>
</g>
</g>
<!-- Node1&#45;&gt;Node24 -->
<g id="edge23" class="edge">
<title>Node1&#45;&gt;Node24</title>
<path fill="none" stroke="midnightblue" d="M814.77,-713.6C826.67,-691.92 849.34,-656.41 879,-637 888.5,-630.78 899.9,-626.6 910.92,-623.79"/>
<polygon fill="midnightblue" stroke="midnightblue" points="811.66,-712 810.08,-722.48 817.85,-715.27 811.66,-712"/>
</g>
<!-- Node25 -->
<g id="node25" class="node">
<title>Node25</title>
<g id="a_node25"><a xlink:href="classnot__exprt.html" target="_top" xlink:title="Boolean negation.">
<polygon fill="none" stroke="black" points="924,-570.5 924,-589.5 987,-589.5 987,-570.5 924,-570.5"/>
<text text-anchor="middle" x="955.5" y="-577.5" font-family="Helvetica,sans-Serif" font-size="10.00">not_exprt</text>
</a>
</g>
</g>
<!-- Node1&#45;&gt;Node25 -->
<g id="edge24" class="edge">
<title>Node1&#45;&gt;Node25</title>
<path fill="none" stroke="midnightblue" d="M810.87,-712.32C819.91,-683.02 841,-628.26 879,-599 891.74,-589.19 908.95,-584.39 923.72,-582.07"/>
<polygon fill="midnightblue" stroke="midnightblue" points="807.43,-711.62 807.99,-722.2 814.15,-713.58 807.43,-711.62"/>
</g>
<!-- Node26 -->
<g id="node26" class="node">
<title>Node26</title>
<g id="a_node26"><a xlink:href="classobject__size__exprt.html" target="_top" xlink:title="Expression for finding the size (in bytes) of the object a pointer points to.">
<polygon fill="none" stroke="black" points="904.5,-532.5 904.5,-551.5 1006.5,-551.5 1006.5,-532.5 904.5,-532.5"/>
<text text-anchor="middle" x="955.5" y="-539.5" font-family="Helvetica,sans-Serif" font-size="10.00">object_size_exprt</text>
</a>
</g>
</g>
<!-- Node1&#45;&gt;Node26 -->
<g id="edge25" class="edge">
<title>Node1&#45;&gt;Node26</title>
<path fill="none" stroke="midnightblue" d="M808.28,-711.93C814.34,-676.04 832.17,-600.9 879,-561 886.2,-554.86 895.11,-550.66 904.25,-547.8"/>
<polygon fill="midnightblue" stroke="midnightblue" points="804.78,-711.69 806.7,-722.11 811.69,-712.76 804.78,-711.69"/>
</g>
<!-- Node27 -->
<g id="node27" class="node">
<title>Node27</title>
<g id="a_node27"><a xlink:href="classpointer__object__exprt.html" target="_top" xlink:title="A numerical identifier for the object a pointer points to.">
<polygon fill="none" stroke="black" points="897,-494.5 897,-513.5 1014,-513.5 1014,-494.5 897,-494.5"/>
<text text-anchor="middle" x="955.5" y="-501.5" font-family="Helvetica,sans-Serif" font-size="10.00">pointer_object_exprt</text>
</a>
</g>
</g>
<!-- Node1&#45;&gt;Node27 -->
<g id="edge26" class="edge">
<title>Node1&#45;&gt;Node27</title>
<path fill="none" stroke="midnightblue" d="M806.47,-712.23C809.61,-670.73 822.89,-574.18 879,-523 884.19,-518.26 890.39,-514.67 896.97,-511.94"/>
<polygon fill="midnightblue" stroke="midnightblue" points="802.97,-712.19 805.83,-722.39 809.95,-712.63 802.97,-712.19"/>
</g>
<!-- Node28 -->
<g id="node28" class="node">
<title>Node28</title>
<g id="a_node28"><a xlink:href="classpointer__offset__exprt.html" target="_top" xlink:title="The offset (in bytes) of a pointer relative to the object.">
<polygon fill="none" stroke="black" points="898,-456.5 898,-475.5 1013,-475.5 1013,-456.5 898,-456.5"/>
<text text-anchor="middle" x="955.5" y="-463.5" font-family="Helvetica,sans-Serif" font-size="10.00">pointer_offset_exprt</text>
</a>
</g>
</g>
<!-- Node1&#45;&gt;Node28 -->
<g id="edge27" class="edge">
<title>Node1&#45;&gt;Node28</title>
<path fill="none" stroke="midnightblue" d="M805.04,-712.37C805.09,-665.48 812.15,-546.33 879,-485 884.38,-480.07 890.85,-476.37 897.71,-473.6"/>
<polygon fill="midnightblue" stroke="midnightblue" points="801.54,-712.45 805.14,-722.42 808.54,-712.38 801.54,-712.45"/>
</g>
<!-- Node29 -->
<g id="node29" class="node">
<title>Node29</title>
<g id="a_node29"><a xlink:href="classpopcount__exprt.html" target="_top" xlink:title="The popcount (counting the number of bits set to 1) expression.">
<polygon fill="none" stroke="black" points="909.5,-418.5 909.5,-437.5 1001.5,-437.5 1001.5,-418.5 909.5,-418.5"/>
<text text-anchor="middle" x="955.5" y="-425.5" font-family="Helvetica,sans-Serif" font-size="10.00">popcount_exprt</text>
</a>
</g>
</g>
<!-- Node1&#45;&gt;Node29 -->
<g id="edge28" class="edge">
<title>Node1&#45;&gt;Node29</title>
<path fill="none" stroke="midnightblue" d="M807.79,-712.39C815.01,-654.08 839.2,-483.51 879,-447 887.37,-439.32 898.37,-434.64 909.38,-431.81"/>
<polygon fill="midnightblue" stroke="midnightblue" points="804.3,-712.14 806.57,-722.49 811.25,-712.98 804.3,-712.14"/>
</g>
<!-- Node30 -->
<g id="node30" class="node">
<title>Node30</title>
<g id="a_node30"><a xlink:href="classtypecast__exprt.html" target="_top" xlink:title="Semantic type conversion.">
<polygon fill="none" stroke="black" points="911,-380.5 911,-399.5 1000,-399.5 1000,-380.5 911,-380.5"/>
<text text-anchor="middle" x="955.5" y="-387.5" font-family="Helvetica,sans-Serif" font-size="10.00">typecast_exprt</text>
</a>
</g>
</g>
<!-- Node1&#45;&gt;Node30 -->
<g id="edge29" class="edge">
<title>Node1&#45;&gt;Node30</title>
<path fill="none" stroke="midnightblue" d="M807.22,-711.93C813.09,-648.1 834.55,-451.43 879,-409 887.6,-400.79 899.21,-395.97 910.75,-393.2"/>
<polygon fill="midnightblue" stroke="midnightblue" points="803.7,-711.97 806.3,-722.24 810.67,-712.59 803.7,-711.97"/>
</g>
<!-- Node31 -->
<g id="node31" class="node">
<title>Node31</title>
<g id="a_node31"><a xlink:href="classunary__minus__exprt.html" target="_top" xlink:title="The unary minus expression.">
<polygon fill="none" stroke="black" points="900.5,-342.5 900.5,-361.5 1010.5,-361.5 1010.5,-342.5 900.5,-342.5"/>
<text text-anchor="middle" x="955.5" y="-349.5" font-family="Helvetica,sans-Serif" font-size="10.00">unary_minus_exprt</text>
</a>
</g>
</g>
<!-- Node1&#45;&gt;Node31 -->
<g id="edge30" class="edge">
<title>Node1&#45;&gt;Node31</title>
<path fill="none" stroke="midnightblue" d="M806.63,-712.26C810.98,-643.9 828.93,-418.8 879,-371 884.96,-365.31 892.37,-361.25 900.2,-358.37"/>
<polygon fill="midnightblue" stroke="midnightblue" points="803.13,-712.29 806.01,-722.49 810.11,-712.72 803.13,-712.29"/>
</g>
<!-- Node32 -->
<g id="node32" class="node">
<title>Node32</title>
<g id="a_node32"><a xlink:href="classunary__plus__exprt.html" target="_top" xlink:title="The unary plus expression.">
<polygon fill="none" stroke="black" points="905,-304.5 905,-323.5 1006,-323.5 1006,-304.5 905,-304.5"/>
<text text-anchor="middle" x="955.5" y="-311.5" font-family="Helvetica,sans-Serif" font-size="10.00">unary_plus_exprt</text>
</a>
</g>
</g>
<!-- Node1&#45;&gt;Node32 -->
<g id="edge31" class="edge">
<title>Node1&#45;&gt;Node32</title>
<path fill="none" stroke="midnightblue" d="M806.19,-712.06C809.17,-638.82 823.39,-386.09 879,-333 886.14,-326.19 895.34,-321.71 904.86,-318.8"/>
<polygon fill="midnightblue" stroke="midnightblue" points="802.69,-712.09 805.81,-722.22 809.69,-712.36 802.69,-712.09"/>
</g>
<!-- Node33 -->
<g id="node33" class="node">
<title>Node33</title>
<g id="a_node33"><a xlink:href="classunary__predicate__exprt.html" target="_top" xlink:title="A base class for expressions that are predicates, i.e., Boolean&#45;typed, and that take exactly one argu...">
<polygon fill="none" stroke="black" points="892.5,-266.5 892.5,-285.5 1018.5,-285.5 1018.5,-266.5 892.5,-266.5"/>
<text text-anchor="middle" x="955.5" y="-273.5" font-family="Helvetica,sans-Serif" font-size="10.00">unary_predicate_exprt</text>
</a>
</g>
</g>
<!-- Node1&#45;&gt;Node33 -->
<g id="edge32" class="edge">
<title>Node1&#45;&gt;Node33</title>
<path fill="none" stroke="midnightblue" d="M807.28,-712.36C812.6,-656.36 829.87,-491.22 860,-357 866.31,-328.88 858.11,-314.85 879,-295 883.02,-291.18 887.68,-288.1 892.69,-285.62"/>
<polygon fill="midnightblue" stroke="midnightblue" points="803.8,-712.06 806.35,-722.34 810.77,-712.71 803.8,-712.06"/>
</g>
<!-- Node50 -->
<g id="node50" class="node">
<title>Node50</title>
<g id="a_node50"><a xlink:href="classunion__exprt.html" target="_top" xlink:title="Union constructor from single element.">
<polygon fill="none" stroke="black" points="918.5,-228.5 918.5,-247.5 992.5,-247.5 992.5,-228.5 918.5,-228.5"/>
<text text-anchor="middle" x="955.5" y="-235.5" font-family="Helvetica,sans-Serif" font-size="10.00">union_exprt</text>
</a>
</g>
</g>
<!-- Node1&#45;&gt;Node50 -->
<g id="edge49" class="edge">
<title>Node1&#45;&gt;Node50</title>
<path fill="none" stroke="midnightblue" d="M805.66,-712.19C806.74,-630.87 815.04,-323.77 879,-257 889.19,-246.36 904.39,-241.34 918.49,-239.08"/>
<polygon fill="midnightblue" stroke="midnightblue" points="802.16,-712.46 805.55,-722.5 809.16,-712.54 802.16,-712.46"/>
</g>
<!-- Node51 -->
<g id="node51" class="node">
<title>Node51</title>
<g id="a_node51"><a xlink:href="classzero__extend__exprt.html" target="_top" xlink:title="zero extension The operand is converted to the given type by either a) truncating if the new type is ...">
<polygon fill="none" stroke="black" points="902,-190.5 902,-209.5 1009,-209.5 1009,-190.5 902,-190.5"/>
<text text-anchor="middle" x="955.5" y="-197.5" font-family="Helvetica,sans-Serif" font-size="10.00">zero_extend_exprt</text>
</a>
</g>
</g>
<!-- Node1&#45;&gt;Node51 -->
<g id="edge50" class="edge">
<title>Node1&#45;&gt;Node51</title>
<path fill="none" stroke="midnightblue" d="M806.67,-712.27C810.68,-649.07 825.56,-446.23 860,-282 866,-253.38 857.85,-239.19 879,-219 885.35,-212.93 893.35,-208.72 901.74,-205.82"/>
<polygon fill="midnightblue" stroke="midnightblue" points="803.17,-712.2 806.05,-722.4 810.16,-712.63 803.17,-712.2"/>
</g>
<!-- Node2 -->
<g id="node2" class="node">
<title>Node2</title>
<g id="a_node2"><a xlink:href="classexpr__protectedt.html" target="_top" xlink:title="Base class for all expressions.">
<polygon fill="none" stroke="black" points="636,-722.5 636,-741.5 730,-741.5 730,-722.5 636,-722.5"/>
<text text-anchor="middle" x="683" y="-729.5" font-family="Helvetica,sans-Serif" font-size="10.00">expr_protectedt</text>
</a>
</g>
</g>
<!-- Node2&#45;&gt;Node1 -->
<g id="edge1" class="edge">
<title>Node2&#45;&gt;Node1</title>
<path fill="none" stroke="midnightblue" d="M740.25,-732C749.22,-732 758.3,-732 766.68,-732"/>
<polygon fill="midnightblue" stroke="midnightblue" points="740.2,-728.5 730.2,-732 740.2,-735.5 740.2,-728.5"/>
</g>
<!-- Node3 -->
<g id="node3" class="node">
<title>Node3</title>
<g id="a_node3"><a xlink:href="classexprt.html" target="_top" xlink:title="Base class for all expressions.">
<polygon fill="none" stroke="black" points="557,-722.5 557,-741.5 599,-741.5 599,-722.5 557,-722.5"/>
<text text-anchor="middle" x="578" y="-729.5" font-family="Helvetica,sans-Serif" font-size="10.00">exprt</text>
</a>
</g>
</g>
<!-- Node3&#45;&gt;Node2 -->
<g id="edge2" class="edge">
<title>Node3&#45;&gt;Node2</title>
<path fill="none" stroke="midnightblue" d="M609.56,-732C617.77,-732 626.84,-732 635.7,-732"/>
<polygon fill="midnightblue" stroke="midnightblue" points="609.35,-728.5 599.35,-732 609.35,-735.5 609.35,-728.5"/>
</g>
<!-- Node4 -->
<g id="node4" class="node">
<title>Node4</title>
<g id="a_node4"><a xlink:href="classirept.html" target="_top" xlink:title="There are a large number of kinds of tree structured or tree&#45;like data in CPROVER.">
<polygon fill="none" stroke="black" points="481,-722.5 481,-741.5 520,-741.5 520,-722.5 481,-722.5"/>
<text text-anchor="middle" x="500.5" y="-729.5" font-family="Helvetica,sans-Serif" font-size="10.00">irept</text>
</a>
</g>
</g>
<!-- Node4&#45;&gt;Node3 -->
<g id="edge3" class="edge">
<title>Node4&#45;&gt;Node3</title>
<path fill="none" stroke="midnightblue" d="M530.18,-732C539.11,-732 548.76,-732 556.97,-732"/>
<polygon fill="midnightblue" stroke="midnightblue" points="530.16,-728.5 520.16,-732 530.16,-735.5 530.16,-728.5"/>
</g>
<!-- Node5 -->
<g id="node5" class="node">
<title>Node5</title>
<g id="a_node5"><a xlink:href="classsharing__treet.html" target="_top" xlink:title=" ">
<polygon fill="none" stroke="black" points="319,-711.5 319,-752.5 444,-752.5 444,-711.5 319,-711.5"/>
<text text-anchor="start" x="327" y="-740.5" font-family="Helvetica,sans-Serif" font-size="10.00">sharing_treet&lt; irept,</text>
<text text-anchor="start" x="327" y="-729.5" font-family="Helvetica,sans-Serif" font-size="10.00"> forward_list_as_mapt</text>
<text text-anchor="middle" x="381.5" y="-718.5" font-family="Helvetica,sans-Serif" font-size="10.00">&lt; irep_idt, irept &gt; &gt;</text>
</a>
</g>
</g>
<!-- Node5&#45;&gt;Node4 -->
<g id="edge4" class="edge">
<title>Node5&#45;&gt;Node4</title>
<path fill="none" stroke="midnightblue" d="M454.38,-732C464.13,-732 473.35,-732 480.89,-732"/>
<polygon fill="midnightblue" stroke="midnightblue" points="454.08,-728.5 444.08,-732 454.08,-735.5 454.08,-728.5"/>
</g>
<!-- Node6 -->
<g id="node6" class="node">
<title>Node6</title>
<g id="a_node6"><a xlink:href="classsharing__treet.html" target="_top" xlink:title="Base class for tree&#45;like data structures with sharing.">
<polygon fill="none" stroke="black" points="0,-717 0,-747 136,-747 136,-717 0,-717"/>
<text text-anchor="start" x="8" y="-735" font-family="Helvetica,sans-Serif" font-size="10.00">sharing_treet&lt; derivedt,</text>
<text text-anchor="middle" x="68" y="-724" font-family="Helvetica,sans-Serif" font-size="10.00"> named_subtreest &gt;</text>
</a>
</g>
</g>
<!-- Node6&#45;&gt;Node5 -->
<g id="edge5" class="edge">
<title>Node6&#45;&gt;Node5</title>
<path fill="none" stroke="orange" stroke-dasharray="5,2" d="M146.29,-732C199.58,-732 269.45,-732 318.96,-732"/>
<polygon fill="orange" stroke="orange" points="146.21,-728.5 136.21,-732 146.21,-735.5 146.21,-728.5"/>
<text text-anchor="start" x="154" y="-746" font-family="Helvetica,sans-Serif" font-size="10.00"> &lt; irept, forward_list</text>
<text text-anchor="middle" x="227.5" y="-735" font-family="Helvetica,sans-Serif" font-size="10.00">_as_mapt&lt; irep_idt, irept &gt; &gt;</text>
</g>
<!-- Node34 -->
<g id="node34" class="node">
<title>Node34</title>
<g id="a_node34"><a xlink:href="classenum__is__in__range__exprt.html" target="_top" xlink:title="A Boolean expression returning true, iff the value of an enum&#45;typed symbol equals one of the enum&#39;s d...">
<polygon fill="none" stroke="black" points="1070,-544.5 1070,-563.5 1206,-563.5 1206,-544.5 1070,-544.5"/>
<text text-anchor="middle" x="1138" y="-551.5" font-family="Helvetica,sans-Serif" font-size="10.00">enum_is_in_range_exprt</text>
</a>
</g>
</g>
<!-- Node33&#45;&gt;Node34 -->
<g id="edge33" class="edge">
<title>Node33&#45;&gt;Node34</title>
<path fill="none" stroke="midnightblue" d="M1026.98,-290.3C1028.77,-291.73 1030.45,-293.29 1032,-295 1041.08,-304.98 1060.05,-524.91 1069,-535 1072.42,-538.85 1076.54,-541.95 1081.05,-544.44"/>
<polygon fill="midnightblue" stroke="midnightblue" points="1028.85,-287.34 1018.56,-284.83 1025.04,-293.21 1028.85,-287.34"/>
</g>
<!-- Node35 -->
<g id="node35" class="node">
<title>Node35</title>
<g id="a_node35"><a xlink:href="classinitial__state__exprt.html" target="_top" xlink:title=" ">
<polygon fill="none" stroke="black" points="1085.5,-506.5 1085.5,-525.5 1190.5,-525.5 1190.5,-506.5 1085.5,-506.5"/>
<text text-anchor="middle" x="1138" y="-513.5" font-family="Helvetica,sans-Serif" font-size="10.00">initial_state_exprt</text>
</a>
</g>
</g>
<!-- Node33&#45;&gt;Node35 -->
<g id="edge34" class="edge">
<title>Node33&#45;&gt;Node35</title>
<path fill="none" stroke="midnightblue" d="M1027.45,-290.78C1029.06,-292.08 1030.58,-293.48 1032,-295 1039.8,-303.33 1061.31,-488.57 1069,-497 1073.54,-501.98 1079.28,-505.7 1085.47,-508.46"/>
<polygon fill="midnightblue" stroke="midnightblue" points="1029.08,-287.67 1018.79,-285.14 1025.26,-293.53 1029.08,-287.67"/>
</g>
<!-- Node36 -->
<g id="node36" class="node">
<title>Node36</title>
<g id="a_node36"><a xlink:href="classis__cstring__exprt.html" target="_top" xlink:title="A predicate that indicates that a zero&#45;terminated string starts at the given address.">
<polygon fill="none" stroke="black" points="1091,-468.5 1091,-487.5 1185,-487.5 1185,-468.5 1091,-468.5"/>
<text text-anchor="middle" x="1138" y="-475.5" font-family="Helvetica,sans-Serif" font-size="10.00">is_cstring_exprt</text>
</a>
</g>
</g>
<!-- Node33&#45;&gt;Node36 -->
<g id="edge35" class="edge">
<title>Node33&#45;&gt;Node36</title>
<path fill="none" stroke="midnightblue" d="M1027.37,-290.86C1029,-292.14 1030.55,-293.51 1032,-295 1045.05,-308.37 1056.13,-445.46 1069,-459 1074.91,-465.22 1082.68,-469.46 1090.83,-472.33"/>
<polygon fill="midnightblue" stroke="midnightblue" points="1028.94,-287.71 1018.62,-285.3 1025.18,-293.62 1028.94,-287.71"/>
</g>
<!-- Node37 -->
<g id="node37" class="node">
<title>Node37</title>
<g id="a_node37"><a xlink:href="classis__dynamic__object__exprt.html" target="_top" xlink:title="Evaluates to true if the operand is a pointer to a dynamic object.">
<polygon fill="none" stroke="black" points="1069,-430.5 1069,-449.5 1207,-449.5 1207,-430.5 1069,-430.5"/>
<text text-anchor="middle" x="1138" y="-437.5" font-family="Helvetica,sans-Serif" font-size="10.00">is_dynamic_object_exprt</text>
</a>
</g>
</g>
<!-- Node33&#45;&gt;Node37 -->
<g id="edge36" class="edge">
<title>Node33&#45;&gt;Node37</title>
<path fill="none" stroke="midnightblue" d="M1027.24,-290.99C1028.91,-292.23 1030.5,-293.56 1032,-295 1052.9,-315.06 1048.5,-399.53 1069,-420 1073.35,-424.35 1078.6,-427.76 1084.23,-430.43"/>
<polygon fill="midnightblue" stroke="midnightblue" points="1028.71,-287.79 1018.35,-285.58 1025.07,-293.77 1028.71,-287.79"/>
</g>
<!-- Node38 -->
<g id="node38" class="node">
<title>Node38</title>
<g id="a_node38"><a xlink:href="classis__invalid__pointer__exprt.html" target="_top" xlink:title=" ">
<polygon fill="none" stroke="black" points="1086.5,-381 1086.5,-411 1189.5,-411 1189.5,-381 1086.5,-381"/>
<text text-anchor="start" x="1094.5" y="-399" font-family="Helvetica,sans-Serif" font-size="10.00">is_invalid_pointer</text>
<text text-anchor="middle" x="1138" y="-388" font-family="Helvetica,sans-Serif" font-size="10.00">_exprt</text>
</a>
</g>
</g>
<!-- Node33&#45;&gt;Node38 -->
<g id="edge37" class="edge">
<title>Node33&#45;&gt;Node38</title>
<path fill="none" stroke="midnightblue" d="M1025.45,-290.39C1027.74,-291.79 1029.93,-293.32 1032,-295 1046.58,-306.84 1055.07,-358.4 1069,-371 1074.04,-375.55 1079.98,-379.3 1086.21,-382.38"/>
<polygon fill="midnightblue" stroke="midnightblue" points="1026.69,-287.1 1016.2,-285.63 1023.49,-293.32 1026.69,-287.1"/>
</g>
<!-- Node39 -->
<g id="node39" class="node">
<title>Node39</title>
<g id="a_node39"><a xlink:href="classisfinite__exprt.html" target="_top" xlink:title="Evaluates to true if the operand is finite.">
<polygon fill="none" stroke="black" points="1098,-342.5 1098,-361.5 1178,-361.5 1178,-342.5 1098,-342.5"/>
<text text-anchor="middle" x="1138" y="-349.5" font-family="Helvetica,sans-Serif" font-size="10.00">isfinite_exprt</text>
</a>
</g>
</g>
<!-- Node33&#45;&gt;Node39 -->
<g id="edge38" class="edge">
<title>Node33&#45;&gt;Node39</title>
<path fill="none" stroke="midnightblue" d="M1019.78,-289.07C1024.02,-290.81 1028.14,-292.78 1032,-295 1052.43,-306.77 1048.73,-320.97 1069,-333 1077.75,-338.19 1087.97,-342.01 1097.8,-344.81"/>
<polygon fill="midnightblue" stroke="midnightblue" points="1020.93,-285.77 1010.34,-285.62 1018.53,-292.34 1020.93,-285.77"/>
</g>
<!-- Node40 -->
<g id="node40" class="node">
<title>Node40</title>
<g id="a_node40"><a xlink:href="classisinf__exprt.html" target="_top" xlink:title="Evaluates to true if the operand is infinite.">
<polygon fill="none" stroke="black" points="1104,-304.5 1104,-323.5 1172,-323.5 1172,-304.5 1104,-304.5"/>
<text text-anchor="middle" x="1138" y="-311.5" font-family="Helvetica,sans-Serif" font-size="10.00">isinf_exprt</text>
</a>
</g>
</g>
<!-- Node33&#45;&gt;Node40 -->
<g id="edge39" class="edge">
<title>Node33&#45;&gt;Node40</title>
<path fill="none" stroke="midnightblue" d="M1012,-287.68C1042.12,-294.02 1078.32,-301.65 1104,-307.05"/>
<polygon fill="midnightblue" stroke="midnightblue" points="1012.55,-284.22 1002.05,-285.59 1011.11,-291.07 1012.55,-284.22"/>
</g>
<!-- Node41 -->
<g id="node41" class="node">
<title>Node41</title>
<g id="a_node41"><a xlink:href="classisnan__exprt.html" target="_top" xlink:title="Evaluates to true if the operand is NaN.">
<polygon fill="none" stroke="black" points="1101,-266.5 1101,-285.5 1175,-285.5 1175,-266.5 1101,-266.5"/>
<text text-anchor="middle" x="1138" y="-273.5" font-family="Helvetica,sans-Serif" font-size="10.00">isnan_exprt</text>
</a>
</g>
</g>
<!-- Node33&#45;&gt;Node41 -->
<g id="edge40" class="edge">
<title>Node33&#45;&gt;Node41</title>
<path fill="none" stroke="midnightblue" d="M1028.73,-276C1053.51,-276 1080.18,-276 1100.85,-276"/>
<polygon fill="midnightblue" stroke="midnightblue" points="1028.62,-272.5 1018.62,-276 1028.62,-279.5 1028.62,-272.5"/>
</g>
<!-- Node42 -->
<g id="node42" class="node">
<title>Node42</title>
<g id="a_node42"><a xlink:href="classisnormal__exprt.html" target="_top" xlink:title="Evaluates to true if the operand is a normal number.">
<polygon fill="none" stroke="black" points="1093,-228.5 1093,-247.5 1183,-247.5 1183,-228.5 1093,-228.5"/>
<text text-anchor="middle" x="1138" y="-235.5" font-family="Helvetica,sans-Serif" font-size="10.00">isnormal_exprt</text>
</a>
</g>
</g>
<!-- Node33&#45;&gt;Node42 -->
<g id="edge41" class="edge">
<title>Node33&#45;&gt;Node42</title>
<path fill="none" stroke="midnightblue" d="M1012.1,-264.29C1038,-258.84 1068.4,-252.44 1092.71,-247.32"/>
<polygon fill="midnightblue" stroke="midnightblue" points="1011.11,-260.93 1002.05,-266.41 1012.55,-267.78 1011.11,-260.93"/>
</g>
<!-- Node43 -->
<g id="node43" class="node">
<title>Node43</title>
<g id="a_node43"><a xlink:href="classlive__object__exprt.html" target="_top" xlink:title="A predicate that indicates that the object pointed to is live.">
<polygon fill="none" stroke="black" points="1087.5,-190.5 1087.5,-209.5 1188.5,-209.5 1188.5,-190.5 1087.5,-190.5"/>
<text text-anchor="middle" x="1138" y="-197.5" font-family="Helvetica,sans-Serif" font-size="10.00">live_object_exprt</text>
</a>
</g>
</g>
<!-- Node33&#45;&gt;Node43 -->
<g id="edge42" class="edge">
<title>Node33&#45;&gt;Node43</title>
<path fill="none" stroke="midnightblue" d="M1019.78,-262.93C1024.02,-261.19 1028.14,-259.22 1032,-257 1052.43,-245.23 1048.73,-231.03 1069,-219 1075.54,-215.12 1082.89,-212.01 1090.29,-209.51"/>
<polygon fill="midnightblue" stroke="midnightblue" points="1018.53,-259.66 1010.34,-266.38 1020.93,-266.23 1018.53,-259.66"/>
</g>
<!-- Node44 -->
<g id="node44" class="node">
<title>Node44</title>
<g id="a_node44"><a xlink:href="classonehot0__exprt.html" target="_top" xlink:title="A Boolean expression returning true iff the given operand consists of exactly one &#39;0&#39; and &#39;1&#39; otherwi...">
<polygon fill="none" stroke="black" points="1094.5,-152.5 1094.5,-171.5 1181.5,-171.5 1181.5,-152.5 1094.5,-152.5"/>
<text text-anchor="middle" x="1138" y="-159.5" font-family="Helvetica,sans-Serif" font-size="10.00">onehot0_exprt</text>
</a>
</g>
</g>
<!-- Node33&#45;&gt;Node44 -->
<g id="edge43" class="edge">
<title>Node33&#45;&gt;Node44</title>
<path fill="none" stroke="midnightblue" d="M1025.45,-261.61C1027.74,-260.21 1029.93,-258.68 1032,-257 1061.16,-233.32 1040.15,-205.06 1069,-181 1076.25,-174.96 1085.29,-170.83 1094.39,-168.01"/>
<polygon fill="midnightblue" stroke="midnightblue" points="1023.49,-258.68 1016.2,-266.37 1026.69,-264.9 1023.49,-258.68"/>
</g>
<!-- Node45 -->
<g id="node45" class="node">
<title>Node45</title>
<g id="a_node45"><a xlink:href="classonehot__exprt.html" target="_top" xlink:title="A Boolean expression returning true iff the given operand consists of exactly one &#39;1&#39; and &#39;0&#39; otherwi...">
<polygon fill="none" stroke="black" points="1097.5,-114.5 1097.5,-133.5 1178.5,-133.5 1178.5,-114.5 1097.5,-114.5"/>
<text text-anchor="middle" x="1138" y="-121.5" font-family="Helvetica,sans-Serif" font-size="10.00">onehot_exprt</text>
</a>
</g>
</g>
<!-- Node33&#45;&gt;Node45 -->
<g id="edge44" class="edge">
<title>Node33&#45;&gt;Node45</title>
<path fill="none" stroke="midnightblue" d="M1026.64,-261.36C1028.52,-260.02 1030.32,-258.57 1032,-257 1051.46,-238.81 1049.78,-161.44 1069,-143 1076.7,-135.62 1087.01,-131.06 1097.28,-128.26"/>
<polygon fill="midnightblue" stroke="midnightblue" points="1024.73,-258.42 1017.88,-266.49 1028.27,-264.45 1024.73,-258.42"/>
</g>
<!-- Node46 -->
<g id="node46" class="node">
<title>Node46</title>
<g id="a_node46"><a xlink:href="classsign__exprt.html" target="_top" xlink:title="Sign of an expression Predicate is true if _op is negative, false otherwise.">
<polygon fill="none" stroke="black" points="1104,-76.5 1104,-95.5 1172,-95.5 1172,-76.5 1104,-76.5"/>
<text text-anchor="middle" x="1138" y="-83.5" font-family="Helvetica,sans-Serif" font-size="10.00">sign_exprt</text>
</a>
</g>
</g>
<!-- Node33&#45;&gt;Node46 -->
<g id="edge45" class="edge">
<title>Node33&#45;&gt;Node46</title>
<path fill="none" stroke="midnightblue" d="M1027.34,-261.11C1028.98,-259.84 1030.54,-258.48 1032,-257 1056.49,-232.32 1044.84,-129.99 1069,-105 1078.12,-95.57 1091.49,-90.7 1103.97,-88.23"/>
<polygon fill="midnightblue" stroke="midnightblue" points="1025.15,-258.34 1018.55,-266.63 1028.88,-264.27 1025.15,-258.34"/>
</g>
<!-- Node47 -->
<g id="node47" class="node">
<title>Node47</title>
<g id="a_node47"><a xlink:href="classunary__overflow__exprt.html" target="_top" xlink:title="A Boolean expression returning true, iff operation kind would result in an overflow when applied to t...">
<polygon fill="none" stroke="black" points="1077,-38.5 1077,-57.5 1199,-57.5 1199,-38.5 1077,-38.5"/>
<text text-anchor="middle" x="1138" y="-45.5" font-family="Helvetica,sans-Serif" font-size="10.00">unary_overflow_exprt</text>
</a>
</g>
</g>
<!-- Node33&#45;&gt;Node47 -->
<g id="edge46" class="edge">
<title>Node33&#45;&gt;Node47</title>
<path fill="none" stroke="midnightblue" d="M1027.43,-261.2C1029.04,-259.9 1030.57,-258.51 1032,-257 1061.58,-225.77 1039.83,-98.61 1069,-67 1072.57,-63.13 1076.87,-60.02 1081.54,-57.53"/>
<polygon fill="midnightblue" stroke="midnightblue" points="1025.24,-258.45 1018.75,-266.82 1029.04,-264.32 1025.24,-258.45"/>
</g>
<!-- Node49 -->
<g id="node49" class="node">
<title>Node49</title>
<g id="a_node49"><a xlink:href="classwriteable__object__exprt.html" target="_top" xlink:title="A predicate that indicates that the object pointed to is writeable.">
<polygon fill="none" stroke="black" points="1074,-0.5 1074,-19.5 1202,-19.5 1202,-0.5 1074,-0.5"/>
<text text-anchor="middle" x="1138" y="-7.5" font-family="Helvetica,sans-Serif" font-size="10.00">writeable_object_exprt</text>
</a>
</g>
</g>
<!-- Node33&#45;&gt;Node49 -->
<g id="edge48" class="edge">
<title>Node33&#45;&gt;Node49</title>
<path fill="none" stroke="midnightblue" d="M1026.96,-261.68C1028.75,-260.26 1030.44,-258.7 1032,-257 1049.35,-238.09 1051.89,-48.13 1069,-29 1072.43,-25.16 1076.57,-22.07 1081.08,-19.59"/>
<polygon fill="midnightblue" stroke="midnightblue" points="1025.02,-258.77 1018.52,-267.13 1028.82,-264.65 1025.02,-258.77"/>
</g>
<!-- Node48 -->
<g id="node48" class="node">
<title>Node48</title>
<g id="a_node48"><a xlink:href="classunary__minus__overflow__exprt.html" target="_top" xlink:title="A Boolean expression returning true, iff negation would result in an overflow when applied to the (si...">
<polygon fill="none" stroke="black" points="1244,-33 1244,-63 1371,-63 1371,-33 1244,-33"/>
<text text-anchor="start" x="1252" y="-51" font-family="Helvetica,sans-Serif" font-size="10.00">unary_minus_overflow</text>
<text text-anchor="middle" x="1307.5" y="-40" font-family="Helvetica,sans-Serif" font-size="10.00">_exprt</text>
</a>
</g>
</g>
<!-- Node47&#45;&gt;Node48 -->
<g id="edge47" class="edge">
<title>Node47&#45;&gt;Node48</title>
<path fill="none" stroke="midnightblue" d="M1209.76,-48C1221.09,-48 1232.74,-48 1243.86,-48"/>
<polygon fill="midnightblue" stroke="midnightblue" points="1209.47,-44.5 1199.47,-48 1209.47,-51.5 1209.47,-44.5"/>
</g>
</g>
</svg>
