<?xml version="1.0" encoding="UTF-8" standalone="no"?>
<!DOCTYPE svg PUBLIC "-//W3C//DTD SVG 1.1//EN"
 "http://www.w3.org/Graphics/SVG/1.1/DTD/svg11.dtd">
<!-- Generated by graphviz version 2.43.0 (0)
 -->
<!-- Title: satcheck_cadical_preprocessingt Pages: 1 -->
<svg width="1483pt" height="336pt"
 viewBox="0.00 0.00 1483.00 335.50" xmlns="http://www.w3.org/2000/svg" xmlns:xlink="http://www.w3.org/1999/xlink">
<g id="graph0" class="graph" transform="scale(1 1) rotate(0) translate(4 331.5)">
<title>satcheck_cadical_preprocessingt</title>
<!-- Node1 -->
<g id="node1" class="node">
<title>Node1</title>
<g id="a_node1"><a xlink:title=" ">
<polygon fill="#bfbfbf" stroke="black" points="1298,-24 1298,-43 1475,-43 1475,-24 1298,-24"/>
<text text-anchor="middle" x="1386.5" y="-31" font-family="Helvetica,sans-Serif" font-size="10.00">satcheck_cadical_preprocessingt</text>
</a>
</g>
</g>
<!-- Node2 -->
<g id="node2" class="node">
<title>Node2</title>
<g id="a_node2"><a xlink:href="classsatcheck__cadical__baset.html" target="_top" xlink:title=" ">
<polygon fill="none" stroke="black" points="1129,-24 1129,-43 1261,-43 1261,-24 1129,-24"/>
<text text-anchor="middle" x="1195" y="-31" font-family="Helvetica,sans-Serif" font-size="10.00">satcheck_cadical_baset</text>
</a>
</g>
</g>
<!-- Node2&#45;&gt;Node1 -->
<g id="edge1" class="edge">
<title>Node2&#45;&gt;Node1</title>
<path fill="none" stroke="midnightblue" d="M1271.29,-33.5C1279.98,-33.5 1288.9,-33.5 1297.74,-33.5"/>
<polygon fill="midnightblue" stroke="midnightblue" points="1271.22,-30 1261.22,-33.5 1271.22,-37 1271.22,-30"/>
</g>
<!-- Node3 -->
<g id="node3" class="node">
<title>Node3</title>
<g id="a_node3"><a xlink:href="classcnf__solvert.html" target="_top" xlink:title=" ">
<polygon fill="none" stroke="black" points="1021,-47 1021,-66 1092,-66 1092,-47 1021,-47"/>
<text text-anchor="middle" x="1056.5" y="-54" font-family="Helvetica,sans-Serif" font-size="10.00">cnf_solvert</text>
</a>
</g>
</g>
<!-- Node3&#45;&gt;Node2 -->
<g id="edge2" class="edge">
<title>Node3&#45;&gt;Node2</title>
<path fill="none" stroke="midnightblue" d="M1102.32,-48.95C1113.57,-47.05 1125.78,-44.99 1137.52,-43.02"/>
<polygon fill="midnightblue" stroke="midnightblue" points="1101.58,-45.52 1092.3,-50.64 1102.74,-52.43 1101.58,-45.52"/>
</g>
<!-- Node4 -->
<g id="node4" class="node">
<title>Node4</title>
<g id="a_node4"><a xlink:href="classcnft.html" target="_top" xlink:title=" ">
<polygon fill="none" stroke="black" points="949,-48 949,-67 984,-67 984,-48 949,-48"/>
<text text-anchor="middle" x="966.5" y="-55" font-family="Helvetica,sans-Serif" font-size="10.00">cnft</text>
</a>
</g>
</g>
<!-- Node4&#45;&gt;Node3 -->
<g id="edge3" class="edge">
<title>Node4&#45;&gt;Node3</title>
<path fill="none" stroke="midnightblue" d="M994.05,-57.2C1002.47,-57.1 1011.9,-57 1020.8,-56.89"/>
<polygon fill="midnightblue" stroke="midnightblue" points="994.01,-53.7 984.05,-57.31 994.09,-60.7 994.01,-53.7"/>
</g>
<!-- Node5 -->
<g id="node5" class="node">
<title>Node5</title>
<g id="a_node5"><a xlink:href="classpropt.html" target="_top" xlink:title="TO_BE_DOCUMENTED.">
<polygon fill="none" stroke="black" points="720.5,-50 720.5,-69 762.5,-69 762.5,-50 720.5,-50"/>
<text text-anchor="middle" x="741.5" y="-57" font-family="Helvetica,sans-Serif" font-size="10.00">propt</text>
</a>
</g>
</g>
<!-- Node5&#45;&gt;Node4 -->
<g id="edge4" class="edge">
<title>Node5&#45;&gt;Node4</title>
<path fill="none" stroke="midnightblue" d="M772.72,-59.23C820.41,-58.8 911.57,-57.98 948.91,-57.65"/>
<polygon fill="midnightblue" stroke="midnightblue" points="772.65,-55.73 762.68,-59.32 772.71,-62.73 772.65,-55.73"/>
</g>
<!-- Node6 -->
<g id="node6" class="node">
<title>Node6</title>
<g id="a_node6"><a xlink:href="classmessaget.html" target="_top" xlink:title="Class that provides messages with a built&#45;in verbosity &#39;level&#39;.">
<polygon fill="none" stroke="black" points="464.5,-118 464.5,-137 529.5,-137 529.5,-118 464.5,-118"/>
<text text-anchor="middle" x="497" y="-125" font-family="Helvetica,sans-Serif" font-size="10.00">messaget</text>
</a>
</g>
</g>
<!-- Node6&#45;&gt;Node5 -->
<g id="edge5" class="edge">
<title>Node6&#45;&gt;Node5</title>
<path fill="none" stroke="#9a32cd" stroke-dasharray="5,2" d="M539.41,-115.89C592.07,-101.12 680.89,-76.21 720.45,-65.12"/>
<polygon fill="#9a32cd" stroke="#9a32cd" points="538.39,-112.54 529.7,-118.61 540.28,-119.28 538.39,-112.54"/>
<text text-anchor="middle" x="622.5" y="-106.5" font-family="Helvetica,sans-Serif" font-size="10.00"> log</text>
</g>
<!-- Node12 -->
<g id="node9" class="node">
<title>Node12</title>
<g id="a_node9"><a xlink:href="classmessaget_1_1mstreamt.html" target="_top" xlink:title=" ">
<polygon fill="none" stroke="red" points="682,-135 682,-154 801,-154 801,-135 682,-135"/>
<text text-anchor="middle" x="741.5" y="-142" font-family="Helvetica,sans-Serif" font-size="10.00">messaget::mstreamt</text>
</a>
</g>
</g>
<!-- Node6&#45;&gt;Node12 -->
<g id="edge9" class="edge">
<title>Node6&#45;&gt;Node12</title>
<path fill="none" stroke="#9a32cd" stroke-dasharray="5,2" d="M539.98,-134.5C553.08,-136.44 567.61,-138.33 581,-139.5 614.26,-142.42 651.54,-143.69 681.7,-144.23"/>
<polygon fill="#9a32cd" stroke="#9a32cd" points="540.24,-131 529.83,-132.96 539.19,-137.92 540.24,-131"/>
<text text-anchor="middle" x="622.5" y="-146.5" font-family="Helvetica,sans-Serif" font-size="10.00"> message</text>
</g>
<!-- Node7 -->
<g id="node7" class="node">
<title>Node7</title>
<g id="a_node7"><a xlink:href="classmessage__handlert.html" target="_top" xlink:title=" ">
<polygon fill="none" stroke="red" points="122,-297 122,-316 229,-316 229,-297 122,-297"/>
<text text-anchor="middle" x="175.5" y="-304" font-family="Helvetica,sans-Serif" font-size="10.00">message_handlert</text>
</a>
</g>
</g>
<!-- Node7&#45;&gt;Node6 -->
<g id="edge6" class="edge">
<title>Node7&#45;&gt;Node6</title>
<path fill="none" stroke="#9a32cd" stroke-dasharray="5,2" d="M239.39,-315.38C290.41,-319.23 361.99,-316.66 413,-282.5 466.26,-246.83 487.99,-165.38 494.08,-137.26"/>
<polygon fill="#9a32cd" stroke="#9a32cd" points="239.41,-311.87 229.15,-314.5 238.81,-318.84 239.41,-311.87"/>
<text text-anchor="middle" x="334" y="-319.5" font-family="Helvetica,sans-Serif" font-size="10.00"> message_handler</text>
</g>
<!-- Node11 -->
<g id="node8" class="node">
<title>Node11</title>
<g id="a_node8"><a xlink:href="classmessaget_1_1commandt.html" target="_top" xlink:title=" ">
<polygon fill="none" stroke="black" points="114,-155 114,-174 237,-174 237,-155 114,-155"/>
<text text-anchor="middle" x="175.5" y="-162" font-family="Helvetica,sans-Serif" font-size="10.00">messaget::commandt</text>
</a>
</g>
</g>
<!-- Node11&#45;&gt;Node6 -->
<g id="edge7" class="edge">
<title>Node11&#45;&gt;Node6</title>
<path fill="none" stroke="#9a32cd" stroke-dasharray="5,2" d="M247.45,-158.31C294.48,-153.96 357.52,-147.65 413,-140.5 429.92,-138.32 448.72,-135.41 464.13,-132.91"/>
<polygon fill="#9a32cd" stroke="#9a32cd" points="247,-154.84 237.36,-159.24 247.64,-161.81 247,-154.84"/>
<text text-anchor="middle" x="334" y="-270.5" font-family="Helvetica,sans-Serif" font-size="10.00"> blue</text>
<text text-anchor="middle" x="334" y="-259.5" font-family="Helvetica,sans-Serif" font-size="10.00">bold</text>
<text text-anchor="middle" x="334" y="-248.5" font-family="Helvetica,sans-Serif" font-size="10.00">bright_blue</text>
<text text-anchor="middle" x="334" y="-237.5" font-family="Helvetica,sans-Serif" font-size="10.00">bright_cyan</text>
<text text-anchor="middle" x="334" y="-226.5" font-family="Helvetica,sans-Serif" font-size="10.00">bright_green</text>
<text text-anchor="middle" x="334" y="-215.5" font-family="Helvetica,sans-Serif" font-size="10.00">bright_magenta</text>
<text text-anchor="middle" x="334" y="-204.5" font-family="Helvetica,sans-Serif" font-size="10.00">bright_red</text>
<text text-anchor="middle" x="334" y="-193.5" font-family="Helvetica,sans-Serif" font-size="10.00">bright_yellow</text>
<text text-anchor="middle" x="334" y="-182.5" font-family="Helvetica,sans-Serif" font-size="10.00">cyan</text>
<text text-anchor="middle" x="334" y="-171.5" font-family="Helvetica,sans-Serif" font-size="10.00">faint</text>
<text text-anchor="middle" x="334" y="-160.5" font-family="Helvetica,sans-Serif" font-size="10.00">...</text>
</g>
<!-- Node12&#45;&gt;Node6 -->
<g id="edge8" class="edge">
<title>Node12&#45;&gt;Node6</title>
<path fill="none" stroke="#9a32cd" stroke-dasharray="5,2" d="M692.29,-132.89C682.96,-131.08 673.21,-129.48 664,-128.5 617.43,-123.54 563.1,-124.47 529.62,-125.82"/>
<polygon fill="#9a32cd" stroke="#9a32cd" points="691.71,-136.35 702.21,-134.93 693.12,-129.49 691.71,-136.35"/>
<text text-anchor="middle" x="622.5" y="-131.5" font-family="Helvetica,sans-Serif" font-size="10.00"> mstream</text>
</g>
<!-- Node26 -->
<g id="node10" class="node">
<title>Node26</title>
<g id="a_node10"><a xlink:href="classmessaget_1_1eomt.html" target="_top" xlink:title=" ">
<polygon fill="none" stroke="black" points="127.5,-117 127.5,-136 223.5,-136 223.5,-117 127.5,-117"/>
<text text-anchor="middle" x="175.5" y="-124" font-family="Helvetica,sans-Serif" font-size="10.00">messaget::eomt</text>
</a>
</g>
</g>
<!-- Node26&#45;&gt;Node6 -->
<g id="edge10" class="edge">
<title>Node26&#45;&gt;Node6</title>
<path fill="none" stroke="#9a32cd" stroke-dasharray="5,2" d="M233.67,-126.68C300.99,-126.89 410.44,-127.23 464.18,-127.4"/>
<polygon fill="#9a32cd" stroke="#9a32cd" points="233.65,-123.18 223.64,-126.65 233.63,-130.18 233.65,-123.18"/>
<text text-anchor="middle" x="334" y="-129.5" font-family="Helvetica,sans-Serif" font-size="10.00"> eom</text>
</g>
<!-- Node27 -->
<g id="node11" class="node">
<title>Node27</title>
<g id="a_node11"><a xlink:title=" ">
<polygon fill="none" stroke="#bfbfbf" points="435.5,-50 435.5,-69 558.5,-69 558.5,-50 435.5,-50"/>
<text text-anchor="middle" x="497" y="-57" font-family="Helvetica,sans-Serif" font-size="10.00">std::vector&lt; literalt &gt;</text>
</a>
</g>
</g>
<!-- Node27&#45;&gt;Node5 -->
<g id="edge11" class="edge">
<title>Node27&#45;&gt;Node5</title>
<path fill="none" stroke="#9a32cd" stroke-dasharray="5,2" d="M568.71,-59.5C620.51,-59.5 687.3,-59.5 720.26,-59.5"/>
<polygon fill="#9a32cd" stroke="#9a32cd" points="568.57,-56 558.57,-59.5 568.57,-63 568.57,-56"/>
<text text-anchor="middle" x="622.5" y="-62.5" font-family="Helvetica,sans-Serif" font-size="10.00"> lcnf_bv</text>
</g>
<!-- Node28 -->
<g id="node12" class="node">
<title>Node28</title>
<g id="a_node12"><a xlink:href="classliteralt.html" target="_top" xlink:title=" ">
<polygon fill="none" stroke="black" points="151,-79 151,-98 200,-98 200,-79 151,-79"/>
<text text-anchor="middle" x="175.5" y="-86" font-family="Helvetica,sans-Serif" font-size="10.00">literalt</text>
</a>
</g>
</g>
<!-- Node28&#45;&gt;Node27 -->
<g id="edge12" class="edge">
<title>Node28&#45;&gt;Node27</title>
<path fill="none" stroke="#9a32cd" stroke-dasharray="5,2" d="M210.23,-85.44C263.65,-80.59 368.49,-71.07 435.26,-65.01"/>
<polygon fill="#9a32cd" stroke="#9a32cd" points="209.9,-81.95 200.25,-86.34 210.53,-88.93 209.9,-81.95"/>
<text text-anchor="middle" x="334" y="-83.5" font-family="Helvetica,sans-Serif" font-size="10.00"> elements</text>
</g>
<!-- Node9 -->
<g id="node13" class="node">
<title>Node9</title>
<g id="a_node13"><a xlink:title=" ">
<polygon fill="none" stroke="#bfbfbf" points="127,-41 127,-60 224,-60 224,-41 127,-41"/>
<text text-anchor="middle" x="175.5" y="-48" font-family="Helvetica,sans-Serif" font-size="10.00">std::vector&lt; T &gt;</text>
</a>
</g>
</g>
<!-- Node9&#45;&gt;Node27 -->
<g id="edge13" class="edge">
<title>Node9&#45;&gt;Node27</title>
<path fill="none" stroke="orange" stroke-dasharray="5,2" d="M234.25,-51.29C282.14,-52.04 352.01,-53.39 413,-55.5 420.21,-55.75 427.77,-56.05 435.27,-56.38"/>
<polygon fill="orange" stroke="orange" points="234.13,-47.78 224.07,-51.13 234.02,-54.78 234.13,-47.78"/>
<text text-anchor="middle" x="334" y="-58.5" font-family="Helvetica,sans-Serif" font-size="10.00"> &lt; literalt &gt;</text>
</g>
<!-- Node10 -->
<g id="node14" class="node">
<title>Node10</title>
<g id="a_node14"><a xlink:title=" ">
<polygon fill="none" stroke="#bfbfbf" points="0,-22 0,-41 29,-41 29,-22 0,-22"/>
<text text-anchor="middle" x="14.5" y="-29" font-family="Helvetica,sans-Serif" font-size="10.00">T</text>
</a>
</g>
</g>
<!-- Node10&#45;&gt;Node9 -->
<g id="edge14" class="edge">
<title>Node10&#45;&gt;Node9</title>
<path fill="none" stroke="#9a32cd" stroke-dasharray="5,2" d="M39.26,-34.34C62.27,-37.09 97.83,-41.34 126.7,-44.79"/>
<polygon fill="#9a32cd" stroke="#9a32cd" points="39.4,-30.83 29.06,-33.12 38.57,-37.78 39.4,-30.83"/>
<text text-anchor="middle" x="71.5" y="-44.5" font-family="Helvetica,sans-Serif" font-size="10.00"> elements</text>
</g>
<!-- Node31 -->
<g id="node17" class="node">
<title>Node31</title>
<g id="a_node17"><a xlink:title=" ">
<polygon fill="none" stroke="#bfbfbf" points="116.5,-3 116.5,-22 234.5,-22 234.5,-3 116.5,-3"/>
<text text-anchor="middle" x="175.5" y="-10" font-family="Helvetica,sans-Serif" font-size="10.00">std::unique_ptr&lt; T &gt;</text>
</a>
</g>
</g>
<!-- Node10&#45;&gt;Node31 -->
<g id="edge18" class="edge">
<title>Node10&#45;&gt;Node31</title>
<path fill="none" stroke="#9a32cd" stroke-dasharray="5,2" d="M38.73,-23.45C41.49,-22.69 44.29,-22.02 47,-21.5 69.45,-17.21 94.47,-14.91 116.37,-13.7"/>
<polygon fill="#9a32cd" stroke="#9a32cd" points="37.65,-20.12 29.12,-26.4 39.7,-26.81 37.65,-20.12"/>
<text text-anchor="middle" x="71.5" y="-24.5" font-family="Helvetica,sans-Serif" font-size="10.00"> ptr</text>
</g>
<!-- Node29 -->
<g id="node15" class="node">
<title>Node29</title>
<g id="a_node15"><a xlink:href="classhardness__collectort.html" target="_top" xlink:title=" ">
<polygon fill="none" stroke="black" points="819,-9 819,-28 931,-28 931,-9 819,-9"/>
<text text-anchor="middle" x="875" y="-16" font-family="Helvetica,sans-Serif" font-size="10.00">hardness_collectort</text>
</a>
</g>
</g>
<!-- Node29&#45;&gt;Node2 -->
<g id="edge15" class="edge">
<title>Node29&#45;&gt;Node2</title>
<path fill="none" stroke="midnightblue" d="M941.33,-21.58C996.19,-24.17 1074.17,-27.85 1128.95,-30.43"/>
<polygon fill="midnightblue" stroke="midnightblue" points="941.18,-18.07 931.03,-21.1 940.85,-25.06 941.18,-18.07"/>
</g>
<!-- Node30 -->
<g id="node16" class="node">
<title>Node30</title>
<g id="a_node16"><a xlink:title=" ">
<polygon fill="none" stroke="#bfbfbf" points="431,-0.5 431,-30.5 563,-30.5 563,-0.5 431,-0.5"/>
<text text-anchor="start" x="439" y="-18.5" font-family="Helvetica,sans-Serif" font-size="10.00">std::unique_ptr&lt; clause</text>
<text text-anchor="middle" x="497" y="-7.5" font-family="Helvetica,sans-Serif" font-size="10.00">_hardness_collectort &gt;</text>
</a>
</g>
</g>
<!-- Node30&#45;&gt;Node29 -->
<g id="edge16" class="edge">
<title>Node30&#45;&gt;Node29</title>
<path fill="none" stroke="#9a32cd" stroke-dasharray="5,2" d="M573.51,-16.1C646.09,-16.68 754.06,-17.54 818.89,-18.06"/>
<polygon fill="#9a32cd" stroke="#9a32cd" points="573.09,-12.6 563.06,-16.02 573.04,-19.6 573.09,-12.6"/>
<text text-anchor="middle" x="622.5" y="-20.5" font-family="Helvetica,sans-Serif" font-size="10.00"> solver_hardness</text>
</g>
<!-- Node31&#45;&gt;Node30 -->
<g id="edge17" class="edge">
<title>Node31&#45;&gt;Node30</title>
<path fill="none" stroke="orange" stroke-dasharray="5,2" d="M244.73,-13.14C299.73,-13.66 376.56,-14.38 430.74,-14.89"/>
<polygon fill="orange" stroke="orange" points="244.76,-9.64 234.73,-13.05 244.7,-16.64 244.76,-9.64"/>
<text text-anchor="middle" x="334" y="-18.5" font-family="Helvetica,sans-Serif" font-size="10.00"> &lt; clause_hardness_collectort &gt;</text>
</g>
</g>
</svg>
