<?xml version="1.0" encoding="UTF-8" standalone="no"?>
<!DOCTYPE svg PUBLIC "-//W3C//DTD SVG 1.1//EN"
 "http://www.w3.org/Graphics/SVG/1.1/DTD/svg11.dtd">
<!-- Generated by graphviz version 2.43.0 (0)
 -->
<!-- Title: hardness_collectort Pages: 1 -->
<svg width="861pt" height="323pt"
 viewBox="0.00 0.00 861.00 323.16" xmlns="http://www.w3.org/2000/svg" xmlns:xlink="http://www.w3.org/1999/xlink">
<g id="graph0" class="graph" transform="scale(1 1) rotate(0) translate(4 319.16)">
<title>hardness_collectort</title>
<!-- Node1 -->
<g id="node1" class="node">
<title>Node1</title>
<g id="a_node1"><a xlink:title=" ">
<polygon fill="#bfbfbf" stroke="black" points="0,-141.37 0,-160.37 112,-160.37 112,-141.37 0,-141.37"/>
<text text-anchor="middle" x="56" y="-148.37" font-family="Helvetica,sans-Serif" font-size="10.00">hardness_collectort</text>
</a>
</g>
</g>
<!-- Node2 -->
<g id="node2" class="node">
<title>Node2</title>
<g id="a_node2"><a xlink:href="classsatcheck__glucose__baset.html" target="_top" xlink:title=" ">
<polygon fill="none" stroke="black" points="502,-279.87 502,-309.87 637,-309.87 637,-279.87 502,-279.87"/>
<text text-anchor="start" x="510" y="-297.87" font-family="Helvetica,sans-Serif" font-size="10.00">satcheck_glucose_baset</text>
<text text-anchor="middle" x="569.5" y="-286.87" font-family="Helvetica,sans-Serif" font-size="10.00">&lt; Glucose::Solver &gt;</text>
</a>
</g>
</g>
<!-- Node1&#45;&gt;Node2 -->
<g id="edge1" class="edge">
<title>Node1&#45;&gt;Node2</title>
<path fill="none" stroke="midnightblue" d="M66.12,-169.58C80.01,-195.84 109.12,-242.85 149,-264.87 260.54,-326.45 414.93,-318.02 501.93,-306.41"/>
<polygon fill="midnightblue" stroke="midnightblue" points="69.21,-167.95 61.55,-160.63 62.98,-171.13 69.21,-167.95"/>
</g>
<!-- Node4 -->
<g id="node4" class="node">
<title>Node4</title>
<g id="a_node4"><a xlink:href="classsatcheck__glucose__baset.html" target="_top" xlink:title=" ">
<polygon fill="none" stroke="black" points="499.5,-222.87 499.5,-252.87 639.5,-252.87 639.5,-222.87 499.5,-222.87"/>
<text text-anchor="start" x="507.5" y="-240.87" font-family="Helvetica,sans-Serif" font-size="10.00">satcheck_glucose_baset</text>
<text text-anchor="middle" x="569.5" y="-229.87" font-family="Helvetica,sans-Serif" font-size="10.00">&lt; Glucose::SimpSolver &gt;</text>
</a>
</g>
</g>
<!-- Node1&#45;&gt;Node4 -->
<g id="edge3" class="edge">
<title>Node1&#45;&gt;Node4</title>
<path fill="none" stroke="midnightblue" d="M85.11,-164.86C102.98,-173.14 126.84,-183.12 149,-188.87 269.65,-220.19 415.05,-231.52 499.13,-235.6"/>
<polygon fill="midnightblue" stroke="midnightblue" points="86.39,-161.59 75.85,-160.47 83.39,-167.91 86.39,-161.59"/>
</g>
<!-- Node6 -->
<g id="node6" class="node">
<title>Node6</title>
<g id="a_node6"><a xlink:href="classsatcheck__minisat2__baset.html" target="_top" xlink:title=" ">
<polygon fill="none" stroke="black" points="499.5,-81.87 499.5,-111.87 639.5,-111.87 639.5,-81.87 499.5,-81.87"/>
<text text-anchor="start" x="507.5" y="-99.87" font-family="Helvetica,sans-Serif" font-size="10.00">satcheck_minisat2_baset</text>
<text text-anchor="middle" x="569.5" y="-88.87" font-family="Helvetica,sans-Serif" font-size="10.00">&lt; Minisat::SimpSolver &gt;</text>
</a>
</g>
</g>
<!-- Node1&#45;&gt;Node6 -->
<g id="edge5" class="edge">
<title>Node1&#45;&gt;Node6</title>
<path fill="none" stroke="midnightblue" d="M122.21,-145.53C202.5,-138.73 342.97,-126.16 463,-111.87 474.76,-110.47 487.23,-108.83 499.32,-107.16"/>
<polygon fill="midnightblue" stroke="midnightblue" points="121.92,-142.04 112.25,-146.36 122.51,-149.01 121.92,-142.04"/>
</g>
<!-- Node8 -->
<g id="node8" class="node">
<title>Node8</title>
<g id="a_node8"><a xlink:href="classsatcheck__minisat2__baset.html" target="_top" xlink:title=" ">
<polygon fill="none" stroke="black" points="499.5,-18.87 499.5,-48.87 639.5,-48.87 639.5,-18.87 499.5,-18.87"/>
<text text-anchor="start" x="507.5" y="-36.87" font-family="Helvetica,sans-Serif" font-size="10.00">satcheck_minisat2_baset</text>
<text text-anchor="middle" x="569.5" y="-25.87" font-family="Helvetica,sans-Serif" font-size="10.00">&lt; Minisat::Solver &gt;</text>
</a>
</g>
</g>
<!-- Node1&#45;&gt;Node8 -->
<g id="edge7" class="edge">
<title>Node1&#45;&gt;Node8</title>
<path fill="none" stroke="midnightblue" d="M65.61,-131.95C79.03,-105.04 107.77,-56.76 149,-36.87 265.76,19.46 422.96,-1.1 507.92,-18.85"/>
<polygon fill="midnightblue" stroke="midnightblue" points="62.38,-130.59 61.22,-141.12 68.69,-133.61 62.38,-130.59"/>
</g>
<!-- Node10 -->
<g id="node10" class="node">
<title>Node10</title>
<g id="a_node10"><a xlink:href="classsatcheck__cadical__baset.html" target="_top" xlink:title=" ">
<polygon fill="none" stroke="black" points="167.5,-160.37 167.5,-179.37 299.5,-179.37 299.5,-160.37 167.5,-160.37"/>
<text text-anchor="middle" x="233.5" y="-167.37" font-family="Helvetica,sans-Serif" font-size="10.00">satcheck_cadical_baset</text>
</a>
</g>
</g>
<!-- Node1&#45;&gt;Node10 -->
<g id="edge9" class="edge">
<title>Node1&#45;&gt;Node10</title>
<path fill="none" stroke="midnightblue" d="M122.08,-157.92C136.81,-159.51 152.45,-161.2 167.2,-162.8"/>
<polygon fill="midnightblue" stroke="midnightblue" points="122.37,-154.43 112.05,-156.83 121.61,-161.39 122.37,-154.43"/>
</g>
<!-- Node13 -->
<g id="node13" class="node">
<title>Node13</title>
<g id="a_node13"><a xlink:href="classsatcheck__glucose__baset.html" target="_top" xlink:title=" ">
<polygon fill="none" stroke="black" points="151.5,-236.37 151.5,-255.37 315.5,-255.37 315.5,-236.37 151.5,-236.37"/>
<text text-anchor="middle" x="233.5" y="-243.37" font-family="Helvetica,sans-Serif" font-size="10.00">satcheck_glucose_baset&lt; T &gt;</text>
</a>
</g>
</g>
<!-- Node1&#45;&gt;Node13 -->
<g id="edge12" class="edge">
<title>Node1&#45;&gt;Node13</title>
<path fill="none" stroke="midnightblue" d="M70.83,-169.08C84.2,-185.39 105.92,-208.69 130,-221.87 141.62,-228.23 154.88,-232.91 167.92,-236.36"/>
<polygon fill="midnightblue" stroke="midnightblue" points="73.26,-166.51 64.3,-160.85 67.78,-170.86 73.26,-166.51"/>
</g>
<!-- Node14 -->
<g id="node14" class="node">
<title>Node14</title>
<g id="a_node14"><a xlink:href="classsatcheck__ipasirt.html" target="_top" xlink:title="Interface for generic SAT solver interface IPASIR.">
<polygon fill="none" stroke="black" points="185.5,-46.37 185.5,-65.37 281.5,-65.37 281.5,-46.37 185.5,-46.37"/>
<text text-anchor="middle" x="233.5" y="-53.37" font-family="Helvetica,sans-Serif" font-size="10.00">satcheck_ipasirt</text>
</a>
</g>
</g>
<!-- Node1&#45;&gt;Node14 -->
<g id="edge15" class="edge">
<title>Node1&#45;&gt;Node14</title>
<path fill="none" stroke="midnightblue" d="M72.6,-133.98C89.67,-116.52 118.69,-89.78 149,-74.87 160.21,-69.36 173.05,-65.42 185.25,-62.61"/>
<polygon fill="midnightblue" stroke="midnightblue" points="70.01,-131.62 65.63,-141.27 75.07,-136.46 70.01,-131.62"/>
</g>
<!-- Node15 -->
<g id="node15" class="node">
<title>Node15</title>
<g id="a_node15"><a xlink:href="classsatcheck__minisat2__baset.html" target="_top" xlink:title=" ">
<polygon fill="none" stroke="black" points="149,-84.37 149,-103.37 318,-103.37 318,-84.37 149,-84.37"/>
<text text-anchor="middle" x="233.5" y="-91.37" font-family="Helvetica,sans-Serif" font-size="10.00">satcheck_minisat2_baset&lt; T &gt;</text>
</a>
</g>
</g>
<!-- Node1&#45;&gt;Node15 -->
<g id="edge16" class="edge">
<title>Node1&#45;&gt;Node15</title>
<path fill="none" stroke="midnightblue" d="M84.68,-136.82C98.11,-130.4 114.63,-123.09 130,-117.87 147.05,-112.08 166.15,-107.2 183.2,-103.37"/>
<polygon fill="midnightblue" stroke="midnightblue" points="82.96,-133.77 75.5,-141.29 86.02,-140.06 82.96,-133.77"/>
</g>
<!-- Node3 -->
<g id="node3" class="node">
<title>Node3</title>
<g id="a_node3"><a xlink:href="classsatcheck__glucose__no__simplifiert.html" target="_top" xlink:title=" ">
<polygon fill="none" stroke="black" points="714,-279.87 714,-309.87 834,-309.87 834,-279.87 714,-279.87"/>
<text text-anchor="start" x="722" y="-297.87" font-family="Helvetica,sans-Serif" font-size="10.00">satcheck_glucose_no</text>
<text text-anchor="middle" x="774" y="-286.87" font-family="Helvetica,sans-Serif" font-size="10.00">_simplifiert</text>
</a>
</g>
</g>
<!-- Node2&#45;&gt;Node3 -->
<g id="edge2" class="edge">
<title>Node2&#45;&gt;Node3</title>
<path fill="none" stroke="midnightblue" d="M647.11,-294.87C669.22,-294.87 693,-294.87 713.88,-294.87"/>
<polygon fill="midnightblue" stroke="midnightblue" points="647.09,-291.37 637.09,-294.87 647.09,-298.37 647.09,-291.37"/>
</g>
<!-- Node5 -->
<g id="node5" class="node">
<title>Node5</title>
<g id="a_node5"><a xlink:href="classsatcheck__glucose__simplifiert.html" target="_top" xlink:title=" ">
<polygon fill="none" stroke="black" points="695,-228.37 695,-247.37 853,-247.37 853,-228.37 695,-228.37"/>
<text text-anchor="middle" x="774" y="-235.37" font-family="Helvetica,sans-Serif" font-size="10.00">satcheck_glucose_simplifiert</text>
</a>
</g>
</g>
<!-- Node4&#45;&gt;Node5 -->
<g id="edge4" class="edge">
<title>Node4&#45;&gt;Node5</title>
<path fill="none" stroke="midnightblue" d="M649.75,-237.87C664.56,-237.87 680.02,-237.87 694.8,-237.87"/>
<polygon fill="midnightblue" stroke="midnightblue" points="649.62,-234.37 639.62,-237.87 649.62,-241.37 649.62,-234.37"/>
</g>
<!-- Node7 -->
<g id="node7" class="node">
<title>Node7</title>
<g id="a_node7"><a xlink:href="classsatcheck__minisat__simplifiert.html" target="_top" xlink:title=" ">
<polygon fill="none" stroke="black" points="695.5,-87.37 695.5,-106.37 852.5,-106.37 852.5,-87.37 695.5,-87.37"/>
<text text-anchor="middle" x="774" y="-94.37" font-family="Helvetica,sans-Serif" font-size="10.00">satcheck_minisat_simplifiert</text>
</a>
</g>
</g>
<!-- Node6&#45;&gt;Node7 -->
<g id="edge6" class="edge">
<title>Node6&#45;&gt;Node7</title>
<path fill="none" stroke="midnightblue" d="M649.88,-96.87C664.88,-96.87 680.56,-96.87 695.5,-96.87"/>
<polygon fill="midnightblue" stroke="midnightblue" points="649.62,-93.37 639.62,-96.87 649.62,-100.37 649.62,-93.37"/>
</g>
<!-- Node9 -->
<g id="node9" class="node">
<title>Node9</title>
<g id="a_node9"><a xlink:href="classsatcheck__minisat__no__simplifiert.html" target="_top" xlink:title=" ">
<polygon fill="none" stroke="black" points="714.5,-18.87 714.5,-48.87 833.5,-48.87 833.5,-18.87 714.5,-18.87"/>
<text text-anchor="start" x="722.5" y="-36.87" font-family="Helvetica,sans-Serif" font-size="10.00">satcheck_minisat_no</text>
<text text-anchor="middle" x="774" y="-25.87" font-family="Helvetica,sans-Serif" font-size="10.00">_simplifiert</text>
</a>
</g>
</g>
<!-- Node8&#45;&gt;Node9 -->
<g id="edge8" class="edge">
<title>Node8&#45;&gt;Node9</title>
<path fill="none" stroke="midnightblue" d="M649.72,-33.87C671.24,-33.87 694.15,-33.87 714.31,-33.87"/>
<polygon fill="midnightblue" stroke="midnightblue" points="649.62,-30.37 639.62,-33.87 649.62,-37.37 649.62,-30.37"/>
</g>
<!-- Node11 -->
<g id="node11" class="node">
<title>Node11</title>
<g id="a_node11"><a xlink:href="classsatcheck__cadical__no__preprocessingt.html" target="_top" xlink:title=" ">
<polygon fill="none" stroke="black" points="511,-169.87 511,-199.87 628,-199.87 628,-169.87 511,-169.87"/>
<text text-anchor="start" x="519" y="-187.87" font-family="Helvetica,sans-Serif" font-size="10.00">satcheck_cadical_no</text>
<text text-anchor="middle" x="569.5" y="-176.87" font-family="Helvetica,sans-Serif" font-size="10.00">_preprocessingt</text>
</a>
</g>
</g>
<!-- Node10&#45;&gt;Node11 -->
<g id="edge10" class="edge">
<title>Node10&#45;&gt;Node11</title>
<path fill="none" stroke="midnightblue" d="M310.02,-173.26C370.98,-176 455.44,-179.79 511,-182.29"/>
<polygon fill="midnightblue" stroke="midnightblue" points="309.84,-169.75 299.69,-172.8 309.52,-176.74 309.84,-169.75"/>
</g>
<!-- Node12 -->
<g id="node12" class="node">
<title>Node12</title>
<g id="a_node12"><a xlink:href="classsatcheck__cadical__preprocessingt.html" target="_top" xlink:title=" ">
<polygon fill="none" stroke="black" points="481,-131.37 481,-150.37 658,-150.37 658,-131.37 481,-131.37"/>
<text text-anchor="middle" x="569.5" y="-138.37" font-family="Helvetica,sans-Serif" font-size="10.00">satcheck_cadical_preprocessingt</text>
</a>
</g>
</g>
<!-- Node10&#45;&gt;Node12 -->
<g id="edge11" class="edge">
<title>Node10&#45;&gt;Node12</title>
<path fill="none" stroke="midnightblue" d="M309.93,-163.32C360.63,-158.92 427.62,-153.1 480.72,-148.49"/>
<polygon fill="midnightblue" stroke="midnightblue" points="309.35,-159.86 299.69,-164.21 309.96,-166.83 309.35,-159.86"/>
</g>
<!-- Node13&#45;&gt;Node2 -->
<g id="edge13" class="edge">
<title>Node13&#45;&gt;Node2</title>
<path fill="none" stroke="orange" stroke-dasharray="5,2" d="M324.18,-256.64C366.37,-261.97 417.34,-268.77 463,-275.87 475.6,-277.83 489.01,-280.1 501.89,-282.38"/>
<polygon fill="orange" stroke="orange" points="324.57,-253.16 314.21,-255.39 323.69,-260.11 324.57,-253.16"/>
<text text-anchor="middle" x="399.5" y="-278.87" font-family="Helvetica,sans-Serif" font-size="10.00"> &lt; Glucose::Solver &gt;</text>
</g>
<!-- Node13&#45;&gt;Node4 -->
<g id="edge14" class="edge">
<title>Node13&#45;&gt;Node4</title>
<path fill="none" stroke="orange" stroke-dasharray="5,2" d="M325.93,-242.17C329.33,-242.06 332.69,-241.96 336,-241.87 390.88,-240.32 453.07,-239.28 499.31,-238.66"/>
<polygon fill="orange" stroke="orange" points="325.54,-238.68 315.66,-242.51 325.77,-245.68 325.54,-238.68"/>
<text text-anchor="middle" x="399.5" y="-244.87" font-family="Helvetica,sans-Serif" font-size="10.00"> &lt; Glucose::SimpSolver &gt;</text>
</g>
<!-- Node15&#45;&gt;Node6 -->
<g id="edge17" class="edge">
<title>Node15&#45;&gt;Node6</title>
<path fill="none" stroke="orange" stroke-dasharray="5,2" d="M328.67,-94.72C382.9,-95.2 449.88,-95.8 499.26,-96.25"/>
<polygon fill="orange" stroke="orange" points="328.38,-91.21 318.35,-94.62 328.32,-98.21 328.38,-91.21"/>
<text text-anchor="middle" x="399.5" y="-99.87" font-family="Helvetica,sans-Serif" font-size="10.00"> &lt; Minisat::SimpSolver &gt;</text>
</g>
<!-- Node15&#45;&gt;Node8 -->
<g id="edge18" class="edge">
<title>Node15&#45;&gt;Node8</title>
<path fill="none" stroke="orange" stroke-dasharray="5,2" d="M297.48,-82.56C355.01,-72.22 439.91,-56.97 499.31,-46.3"/>
<polygon fill="orange" stroke="orange" points="296.65,-79.15 287.42,-84.36 297.88,-86.04 296.65,-79.15"/>
<text text-anchor="middle" x="399.5" y="-77.87" font-family="Helvetica,sans-Serif" font-size="10.00"> &lt; Minisat::Solver &gt;</text>
</g>
</g>
</svg>
