<?xml version="1.0" encoding="UTF-8" standalone="no"?>
<!DOCTYPE svg PUBLIC "-//W3C//DTD SVG 1.1//EN"
 "http://www.w3.org/Graphics/SVG/1.1/DTD/svg11.dtd">
<!-- Generated by graphviz version 2.43.0 (0)
 -->
<!-- Title: multi_ary_exprt Pages: 1 -->
<svg width="1173pt" height="724pt"
 viewBox="0.00 0.00 1173.00 724.00" xmlns="http://www.w3.org/2000/svg" xmlns:xlink="http://www.w3.org/1999/xlink">
<g id="graph0" class="graph" transform="scale(1 1) rotate(0) translate(4 720)">
<title>multi_ary_exprt</title>
<!-- Node1 -->
<g id="node1" class="node">
<title>Node1</title>
<g id="a_node1"><a xlink:title="A base class for multi&#45;ary expressions Associativity is not specified.">
<polygon fill="#bfbfbf" stroke="black" points="767,-354.5 767,-373.5 861,-373.5 861,-354.5 767,-354.5"/>
<text text-anchor="middle" x="814" y="-361.5" font-family="Helvetica,sans-Serif" font-size="10.00">multi_ary_exprt</text>
</a>
</g>
</g>
<!-- Node7 -->
<g id="node7" class="node">
<title>Node7</title>
<g id="a_node7"><a xlink:href="classand__exprt.html" target="_top" xlink:title="Boolean AND.">
<polygon fill="none" stroke="black" points="923.5,-696.5 923.5,-715.5 988.5,-715.5 988.5,-696.5 923.5,-696.5"/>
<text text-anchor="middle" x="956" y="-703.5" font-family="Helvetica,sans-Serif" font-size="10.00">and_exprt</text>
</a>
</g>
</g>
<!-- Node1&#45;&gt;Node7 -->
<g id="edge6" class="edge">
<title>Node1&#45;&gt;Node7</title>
<path fill="none" stroke="midnightblue" d="M818.35,-383.89C826.39,-429.96 848.36,-547.3 879,-642 885.68,-662.66 882.06,-672.26 898,-687 905.04,-693.52 914.39,-697.8 923.47,-700.62"/>
<polygon fill="midnightblue" stroke="midnightblue" points="821.76,-383.03 816.62,-373.77 814.86,-384.22 821.76,-383.03"/>
</g>
<!-- Node8 -->
<g id="node8" class="node">
<title>Node8</title>
<g id="a_node8"><a xlink:href="classarray__exprt.html" target="_top" xlink:title="Array constructor from list of elements.">
<polygon fill="none" stroke="black" points="919.5,-658.5 919.5,-677.5 992.5,-677.5 992.5,-658.5 919.5,-658.5"/>
<text text-anchor="middle" x="956" y="-665.5" font-family="Helvetica,sans-Serif" font-size="10.00">array_exprt</text>
</a>
</g>
</g>
<!-- Node1&#45;&gt;Node8 -->
<g id="edge7" class="edge">
<title>Node1&#45;&gt;Node8</title>
<path fill="none" stroke="midnightblue" d="M814.35,-383.82C813.79,-435.76 819.92,-576.77 898,-649 903.97,-654.53 911.6,-658.45 919.31,-661.23"/>
<polygon fill="midnightblue" stroke="midnightblue" points="817.85,-383.71 814.56,-373.63 810.85,-383.56 817.85,-383.71"/>
</g>
<!-- Node9 -->
<g id="node9" class="node">
<title>Node9</title>
<g id="a_node9"><a xlink:href="classarray__list__exprt.html" target="_top" xlink:title="Array constructor from a list of index&#45;element pairs Operands are index/value pairs,...">
<polygon fill="none" stroke="black" points="909.5,-620.5 909.5,-639.5 1002.5,-639.5 1002.5,-620.5 909.5,-620.5"/>
<text text-anchor="middle" x="956" y="-627.5" font-family="Helvetica,sans-Serif" font-size="10.00">array_list_exprt</text>
</a>
</g>
</g>
<!-- Node1&#45;&gt;Node9 -->
<g id="edge8" class="edge">
<title>Node1&#45;&gt;Node9</title>
<path fill="none" stroke="midnightblue" d="M815.51,-383.54C817.82,-430.24 830.41,-548.98 898,-611 902.23,-614.88 907.27,-617.97 912.58,-620.43"/>
<polygon fill="midnightblue" stroke="midnightblue" points="819,-383.39 815.12,-373.54 812.01,-383.67 819,-383.39"/>
</g>
<!-- Node10 -->
<g id="node10" class="node">
<title>Node10</title>
<g id="a_node10"><a xlink:href="classbitand__exprt.html" target="_top" xlink:title="Bit&#45;wise AND.">
<polygon fill="none" stroke="black" points="917,-582.5 917,-601.5 995,-601.5 995,-582.5 917,-582.5"/>
<text text-anchor="middle" x="956" y="-589.5" font-family="Helvetica,sans-Serif" font-size="10.00">bitand_exprt</text>
</a>
</g>
</g>
<!-- Node1&#45;&gt;Node10 -->
<g id="edge9" class="edge">
<title>Node1&#45;&gt;Node10</title>
<path fill="none" stroke="midnightblue" d="M817.13,-383.63C822.65,-424.84 841.21,-520.88 898,-573 903.38,-577.94 910.08,-581.59 916.97,-584.3"/>
<polygon fill="midnightblue" stroke="midnightblue" points="820.58,-383.04 815.89,-373.54 813.63,-383.89 820.58,-383.04"/>
</g>
<!-- Node11 -->
<g id="node11" class="node">
<title>Node11</title>
<g id="a_node11"><a xlink:href="classbitor__exprt.html" target="_top" xlink:title="Bit&#45;wise OR.">
<polygon fill="none" stroke="black" points="921,-544.5 921,-563.5 991,-563.5 991,-544.5 921,-544.5"/>
<text text-anchor="middle" x="956" y="-551.5" font-family="Helvetica,sans-Serif" font-size="10.00">bitor_exprt</text>
</a>
</g>
</g>
<!-- Node1&#45;&gt;Node11 -->
<g id="edge10" class="edge">
<title>Node1&#45;&gt;Node11</title>
<path fill="none" stroke="midnightblue" d="M819.26,-383.77C827.89,-419.17 850.78,-493.56 898,-535 904.43,-540.64 912.59,-544.62 920.71,-547.42"/>
<polygon fill="midnightblue" stroke="midnightblue" points="822.6,-382.69 816.94,-373.74 815.78,-384.27 822.6,-382.69"/>
</g>
<!-- Node12 -->
<g id="node12" class="node">
<title>Node12</title>
<g id="a_node12"><a xlink:href="classbitxnor__exprt.html" target="_top" xlink:title="Bit&#45;wise XNOR.">
<polygon fill="none" stroke="black" points="915,-506.5 915,-525.5 997,-525.5 997,-506.5 915,-506.5"/>
<text text-anchor="middle" x="956" y="-513.5" font-family="Helvetica,sans-Serif" font-size="10.00">bitxnor_exprt</text>
</a>
</g>
</g>
<!-- Node1&#45;&gt;Node12 -->
<g id="edge11" class="edge">
<title>Node1&#45;&gt;Node12</title>
<path fill="none" stroke="midnightblue" d="M822.08,-383.34C833.62,-412.19 859.14,-466.38 898,-497 903,-500.94 908.85,-504.08 914.87,-506.58"/>
<polygon fill="midnightblue" stroke="midnightblue" points="825.21,-381.7 818.35,-373.62 818.67,-384.21 825.21,-381.7"/>
</g>
<!-- Node13 -->
<g id="node13" class="node">
<title>Node13</title>
<g id="a_node13"><a xlink:href="classbitxor__exprt.html" target="_top" xlink:title="Bit&#45;wise XOR.">
<polygon fill="none" stroke="black" points="918.5,-468.5 918.5,-487.5 993.5,-487.5 993.5,-468.5 918.5,-468.5"/>
<text text-anchor="middle" x="956" y="-475.5" font-family="Helvetica,sans-Serif" font-size="10.00">bitxor_exprt</text>
</a>
</g>
</g>
<!-- Node1&#45;&gt;Node13 -->
<g id="edge12" class="edge">
<title>Node1&#45;&gt;Node13</title>
<path fill="none" stroke="midnightblue" d="M826.35,-382.03C840.62,-403.3 867.03,-438.39 898,-459 904.17,-463.1 911.3,-466.39 918.38,-469"/>
<polygon fill="midnightblue" stroke="midnightblue" points="829.23,-380.04 820.84,-373.58 823.37,-383.87 829.23,-380.04"/>
</g>
<!-- Node14 -->
<g id="node14" class="node">
<title>Node14</title>
<g id="a_node14"><a xlink:href="classconcatenation__exprt.html" target="_top" xlink:title="Concatenation of bit&#45;vector operands.">
<polygon fill="none" stroke="black" points="898,-430.5 898,-449.5 1014,-449.5 1014,-430.5 898,-430.5"/>
<text text-anchor="middle" x="956" y="-437.5" font-family="Helvetica,sans-Serif" font-size="10.00">concatenation_exprt</text>
</a>
</g>
</g>
<!-- Node1&#45;&gt;Node14 -->
<g id="edge13" class="edge">
<title>Node1&#45;&gt;Node14</title>
<path fill="none" stroke="midnightblue" d="M834.88,-380.02C851.1,-392.5 875.02,-409.57 898,-421 905.28,-424.62 913.42,-427.8 921.21,-430.47"/>
<polygon fill="midnightblue" stroke="midnightblue" points="836.74,-377.04 826.71,-373.63 832.43,-382.55 836.74,-377.04"/>
</g>
<!-- Node15 -->
<g id="node15" class="node">
<title>Node15</title>
<g id="a_node15"><a xlink:href="classcond__exprt.html" target="_top" xlink:title="this is a parametric version of an if&#45;expression: it returns the value of the first case (using the o...">
<polygon fill="none" stroke="black" points="920.5,-392.5 920.5,-411.5 991.5,-411.5 991.5,-392.5 920.5,-392.5"/>
<text text-anchor="middle" x="956" y="-399.5" font-family="Helvetica,sans-Serif" font-size="10.00">cond_exprt</text>
</a>
</g>
</g>
<!-- Node1&#45;&gt;Node15 -->
<g id="edge14" class="edge">
<title>Node1&#45;&gt;Node15</title>
<path fill="none" stroke="midnightblue" d="M860.19,-376.27C879.65,-381.55 902.03,-387.62 920.17,-392.55"/>
<polygon fill="midnightblue" stroke="midnightblue" points="860.9,-372.83 850.33,-373.59 859.06,-379.59 860.9,-372.83"/>
</g>
<!-- Node16 -->
<g id="node16" class="node">
<title>Node16</title>
<g id="a_node16"><a xlink:href="classmult__exprt.html" target="_top" xlink:title="Binary multiplication Associativity is not specified.">
<polygon fill="none" stroke="black" points="921,-354.5 921,-373.5 991,-373.5 991,-354.5 921,-354.5"/>
<text text-anchor="middle" x="956" y="-361.5" font-family="Helvetica,sans-Serif" font-size="10.00">mult_exprt</text>
</a>
</g>
</g>
<!-- Node1&#45;&gt;Node16 -->
<g id="edge15" class="edge">
<title>Node1&#45;&gt;Node16</title>
<path fill="none" stroke="midnightblue" d="M871.46,-364C888.17,-364 905.95,-364 920.79,-364"/>
<polygon fill="midnightblue" stroke="midnightblue" points="871.23,-360.5 861.23,-364 871.23,-367.5 871.23,-360.5"/>
</g>
<!-- Node17 -->
<g id="node17" class="node">
<title>Node17</title>
<g id="a_node17"><a xlink:href="classor__exprt.html" target="_top" xlink:title="Boolean OR.">
<polygon fill="none" stroke="black" points="927.5,-316.5 927.5,-335.5 984.5,-335.5 984.5,-316.5 927.5,-316.5"/>
<text text-anchor="middle" x="956" y="-323.5" font-family="Helvetica,sans-Serif" font-size="10.00">or_exprt</text>
</a>
</g>
</g>
<!-- Node1&#45;&gt;Node17 -->
<g id="edge16" class="edge">
<title>Node1&#45;&gt;Node17</title>
<path fill="none" stroke="midnightblue" d="M860.16,-351.74C882.21,-345.76 908.05,-338.74 927.18,-333.55"/>
<polygon fill="midnightblue" stroke="midnightblue" points="859.06,-348.41 850.33,-354.41 860.9,-355.17 859.06,-348.41"/>
</g>
<!-- Node18 -->
<g id="node18" class="node">
<title>Node18</title>
<g id="a_node18"><a xlink:href="classplus__exprt.html" target="_top" xlink:title="The plus expression Associativity is not specified.">
<polygon fill="none" stroke="black" points="922,-278.5 922,-297.5 990,-297.5 990,-278.5 922,-278.5"/>
<text text-anchor="middle" x="956" y="-285.5" font-family="Helvetica,sans-Serif" font-size="10.00">plus_exprt</text>
</a>
</g>
</g>
<!-- Node1&#45;&gt;Node18 -->
<g id="edge17" class="edge">
<title>Node1&#45;&gt;Node18</title>
<path fill="none" stroke="midnightblue" d="M834.88,-347.98C851.1,-335.5 875.02,-318.43 898,-307 905.47,-303.28 913.84,-300.03 921.81,-297.32"/>
<polygon fill="midnightblue" stroke="midnightblue" points="832.43,-345.45 826.71,-354.37 836.74,-350.96 832.43,-345.45"/>
</g>
<!-- Node19 -->
<g id="node19" class="node">
<title>Node19</title>
<g id="a_node19"><a xlink:href="classseparate__exprt.html" target="_top" xlink:title="A predicate that indicates that the objects pointed to are distinct.">
<polygon fill="none" stroke="black" points="911,-240.5 911,-259.5 1001,-259.5 1001,-240.5 911,-240.5"/>
<text text-anchor="middle" x="956" y="-247.5" font-family="Helvetica,sans-Serif" font-size="10.00">separate_exprt</text>
</a>
</g>
</g>
<!-- Node1&#45;&gt;Node19 -->
<g id="edge18" class="edge">
<title>Node1&#45;&gt;Node19</title>
<path fill="none" stroke="midnightblue" d="M826.35,-345.97C840.62,-324.7 867.03,-289.61 898,-269 903.73,-265.19 910.3,-262.08 916.88,-259.56"/>
<polygon fill="midnightblue" stroke="midnightblue" points="823.37,-344.13 820.84,-354.42 829.23,-347.96 823.37,-344.13"/>
</g>
<!-- Node20 -->
<g id="node20" class="node">
<title>Node20</title>
<g id="a_node20"><a xlink:href="classshuffle__vector__exprt.html" target="_top" xlink:title="Shuffle elements of one or two vectors, modelled after Clang&#39;s __builtin_shufflevector.">
<polygon fill="none" stroke="black" points="898,-202.5 898,-221.5 1014,-221.5 1014,-202.5 898,-202.5"/>
<text text-anchor="middle" x="956" y="-209.5" font-family="Helvetica,sans-Serif" font-size="10.00">shuffle_vector_exprt</text>
</a>
</g>
</g>
<!-- Node1&#45;&gt;Node20 -->
<g id="edge19" class="edge">
<title>Node1&#45;&gt;Node20</title>
<path fill="none" stroke="midnightblue" d="M822.08,-344.66C833.62,-315.81 859.14,-261.62 898,-231 902.92,-227.13 908.66,-224.03 914.57,-221.55"/>
<polygon fill="midnightblue" stroke="midnightblue" points="818.67,-343.79 818.35,-354.38 825.21,-346.3 818.67,-343.79"/>
</g>
<!-- Node21 -->
<g id="node21" class="node">
<title>Node21</title>
<g id="a_node21"><a xlink:href="classstate__is__sentinel__dll__exprt.html" target="_top" xlink:title=" ">
<polygon fill="none" stroke="black" points="898,-153 898,-183 1014,-183 1014,-153 898,-153"/>
<text text-anchor="start" x="906" y="-171" font-family="Helvetica,sans-Serif" font-size="10.00">state_is_sentinel_dll</text>
<text text-anchor="middle" x="956" y="-160" font-family="Helvetica,sans-Serif" font-size="10.00">_exprt</text>
</a>
</g>
</g>
<!-- Node1&#45;&gt;Node21 -->
<g id="edge20" class="edge">
<title>Node1&#45;&gt;Node21</title>
<path fill="none" stroke="midnightblue" d="M819.64,-344.65C828.88,-309.91 852.72,-236.56 898,-193 901.97,-189.18 906.62,-185.89 911.52,-183.07"/>
<polygon fill="midnightblue" stroke="midnightblue" points="816.21,-343.93 817.14,-354.48 823,-345.65 816.21,-343.93"/>
</g>
<!-- Node22 -->
<g id="node22" class="node">
<title>Node22</title>
<g id="a_node22"><a xlink:href="classstruct__exprt.html" target="_top" xlink:title="Struct constructor from list of elements.">
<polygon fill="none" stroke="black" points="918.5,-114.5 918.5,-133.5 993.5,-133.5 993.5,-114.5 918.5,-114.5"/>
<text text-anchor="middle" x="956" y="-121.5" font-family="Helvetica,sans-Serif" font-size="10.00">struct_exprt</text>
</a>
</g>
</g>
<!-- Node1&#45;&gt;Node22 -->
<g id="edge21" class="edge">
<title>Node1&#45;&gt;Node22</title>
<path fill="none" stroke="midnightblue" d="M816.79,-344.28C821.73,-301.51 839.32,-199.52 898,-143 903.63,-137.57 910.86,-133.69 918.26,-130.92"/>
<polygon fill="midnightblue" stroke="midnightblue" points="813.29,-344.16 815.73,-354.47 820.25,-344.89 813.29,-344.16"/>
</g>
<!-- Node24 -->
<g id="node24" class="node">
<title>Node24</title>
<g id="a_node24"><a xlink:href="classtuple__exprt.html" target="_top" xlink:title=" ">
<polygon fill="none" stroke="black" points="920,-76.5 920,-95.5 992,-95.5 992,-76.5 920,-76.5"/>
<text text-anchor="middle" x="956" y="-83.5" font-family="Helvetica,sans-Serif" font-size="10.00">tuple_exprt</text>
</a>
</g>
</g>
<!-- Node1&#45;&gt;Node24 -->
<g id="edge23" class="edge">
<title>Node1&#45;&gt;Node24</title>
<path fill="none" stroke="midnightblue" d="M815.45,-344.16C817.64,-296.14 829.96,-172.68 898,-105 903.99,-99.04 911.9,-94.95 919.91,-92.14"/>
<polygon fill="midnightblue" stroke="midnightblue" points="811.95,-344.3 815.09,-354.42 818.94,-344.55 811.95,-344.3"/>
</g>
<!-- Node25 -->
<g id="node25" class="node">
<title>Node25</title>
<g id="a_node25"><a xlink:href="classvector__exprt.html" target="_top" xlink:title="Vector constructor from list of elements.">
<polygon fill="none" stroke="black" points="917,-38.5 917,-57.5 995,-57.5 995,-38.5 917,-38.5"/>
<text text-anchor="middle" x="956" y="-45.5" font-family="Helvetica,sans-Serif" font-size="10.00">vector_exprt</text>
</a>
</g>
</g>
<!-- Node1&#45;&gt;Node25 -->
<g id="edge24" class="edge">
<title>Node1&#45;&gt;Node25</title>
<path fill="none" stroke="midnightblue" d="M814.35,-344.36C813.72,-291.59 819.53,-145.47 898,-67 903.24,-61.76 909.95,-57.97 916.93,-55.22"/>
<polygon fill="midnightblue" stroke="midnightblue" points="810.85,-344.48 814.56,-354.4 817.85,-344.33 810.85,-344.48"/>
</g>
<!-- Node26 -->
<g id="node26" class="node">
<title>Node26</title>
<g id="a_node26"><a xlink:href="classxor__exprt.html" target="_top" xlink:title="Boolean XOR.">
<polygon fill="none" stroke="black" points="925,-0.5 925,-19.5 987,-19.5 987,-0.5 925,-0.5"/>
<text text-anchor="middle" x="956" y="-7.5" font-family="Helvetica,sans-Serif" font-size="10.00">xor_exprt</text>
</a>
</g>
</g>
<!-- Node1&#45;&gt;Node26 -->
<g id="edge25" class="edge">
<title>Node1&#45;&gt;Node26</title>
<path fill="none" stroke="midnightblue" d="M817.23,-344.12C824.93,-279.1 852.41,-74.34 898,-29 905.25,-21.79 915.3,-17.32 924.95,-14.54"/>
<polygon fill="midnightblue" stroke="midnightblue" points="813.73,-343.92 816.06,-354.26 820.69,-344.72 813.73,-343.92"/>
</g>
<!-- Node2 -->
<g id="node2" class="node">
<title>Node2</title>
<g id="a_node2"><a xlink:href="classexpr__protectedt.html" target="_top" xlink:title="Base class for all expressions.">
<polygon fill="none" stroke="black" points="636,-354.5 636,-373.5 730,-373.5 730,-354.5 636,-354.5"/>
<text text-anchor="middle" x="683" y="-361.5" font-family="Helvetica,sans-Serif" font-size="10.00">expr_protectedt</text>
</a>
</g>
</g>
<!-- Node2&#45;&gt;Node1 -->
<g id="edge1" class="edge">
<title>Node2&#45;&gt;Node1</title>
<path fill="none" stroke="midnightblue" d="M740.38,-364C749.17,-364 758.16,-364 766.68,-364"/>
<polygon fill="midnightblue" stroke="midnightblue" points="740.21,-360.5 730.21,-364 740.21,-367.5 740.21,-360.5"/>
</g>
<!-- Node3 -->
<g id="node3" class="node">
<title>Node3</title>
<g id="a_node3"><a xlink:href="classexprt.html" target="_top" xlink:title="Base class for all expressions.">
<polygon fill="none" stroke="black" points="557,-354.5 557,-373.5 599,-373.5 599,-354.5 557,-354.5"/>
<text text-anchor="middle" x="578" y="-361.5" font-family="Helvetica,sans-Serif" font-size="10.00">exprt</text>
</a>
</g>
</g>
<!-- Node3&#45;&gt;Node2 -->
<g id="edge2" class="edge">
<title>Node3&#45;&gt;Node2</title>
<path fill="none" stroke="midnightblue" d="M609.56,-364C617.77,-364 626.84,-364 635.7,-364"/>
<polygon fill="midnightblue" stroke="midnightblue" points="609.35,-360.5 599.35,-364 609.35,-367.5 609.35,-360.5"/>
</g>
<!-- Node4 -->
<g id="node4" class="node">
<title>Node4</title>
<g id="a_node4"><a xlink:href="classirept.html" target="_top" xlink:title="There are a large number of kinds of tree structured or tree&#45;like data in CPROVER.">
<polygon fill="none" stroke="black" points="481,-354.5 481,-373.5 520,-373.5 520,-354.5 481,-354.5"/>
<text text-anchor="middle" x="500.5" y="-361.5" font-family="Helvetica,sans-Serif" font-size="10.00">irept</text>
</a>
</g>
</g>
<!-- Node4&#45;&gt;Node3 -->
<g id="edge3" class="edge">
<title>Node4&#45;&gt;Node3</title>
<path fill="none" stroke="midnightblue" d="M530.18,-364C539.11,-364 548.76,-364 556.97,-364"/>
<polygon fill="midnightblue" stroke="midnightblue" points="530.16,-360.5 520.16,-364 530.16,-367.5 530.16,-360.5"/>
</g>
<!-- Node5 -->
<g id="node5" class="node">
<title>Node5</title>
<g id="a_node5"><a xlink:href="classsharing__treet.html" target="_top" xlink:title=" ">
<polygon fill="none" stroke="black" points="319,-343.5 319,-384.5 444,-384.5 444,-343.5 319,-343.5"/>
<text text-anchor="start" x="327" y="-372.5" font-family="Helvetica,sans-Serif" font-size="10.00">sharing_treet&lt; irept,</text>
<text text-anchor="start" x="327" y="-361.5" font-family="Helvetica,sans-Serif" font-size="10.00"> forward_list_as_mapt</text>
<text text-anchor="middle" x="381.5" y="-350.5" font-family="Helvetica,sans-Serif" font-size="10.00">&lt; irep_idt, irept &gt; &gt;</text>
</a>
</g>
</g>
<!-- Node5&#45;&gt;Node4 -->
<g id="edge4" class="edge">
<title>Node5&#45;&gt;Node4</title>
<path fill="none" stroke="midnightblue" d="M454.38,-364C464.13,-364 473.35,-364 480.89,-364"/>
<polygon fill="midnightblue" stroke="midnightblue" points="454.08,-360.5 444.08,-364 454.08,-367.5 454.08,-360.5"/>
</g>
<!-- Node6 -->
<g id="node6" class="node">
<title>Node6</title>
<g id="a_node6"><a xlink:href="classsharing__treet.html" target="_top" xlink:title="Base class for tree&#45;like data structures with sharing.">
<polygon fill="none" stroke="black" points="0,-349 0,-379 136,-379 136,-349 0,-349"/>
<text text-anchor="start" x="8" y="-367" font-family="Helvetica,sans-Serif" font-size="10.00">sharing_treet&lt; derivedt,</text>
<text text-anchor="middle" x="68" y="-356" font-family="Helvetica,sans-Serif" font-size="10.00"> named_subtreest &gt;</text>
</a>
</g>
</g>
<!-- Node6&#45;&gt;Node5 -->
<g id="edge5" class="edge">
<title>Node6&#45;&gt;Node5</title>
<path fill="none" stroke="orange" stroke-dasharray="5,2" d="M146.29,-364C199.58,-364 269.45,-364 318.96,-364"/>
<polygon fill="orange" stroke="orange" points="146.21,-360.5 136.21,-364 146.21,-367.5 146.21,-360.5"/>
<text text-anchor="start" x="154" y="-378" font-family="Helvetica,sans-Serif" font-size="10.00"> &lt; irept, forward_list</text>
<text text-anchor="middle" x="227.5" y="-367" font-family="Helvetica,sans-Serif" font-size="10.00">_as_mapt&lt; irep_idt, irept &gt; &gt;</text>
</g>
<!-- Node23 -->
<g id="node23" class="node">
<title>Node23</title>
<g id="a_node23"><a xlink:href="classrefined__string__exprt.html" target="_top" xlink:title=" ">
<polygon fill="none" stroke="black" points="1051,-114.5 1051,-133.5 1165,-133.5 1165,-114.5 1051,-114.5"/>
<text text-anchor="middle" x="1108" y="-121.5" font-family="Helvetica,sans-Serif" font-size="10.00">refined_string_exprt</text>
</a>
</g>
</g>
<!-- Node22&#45;&gt;Node23 -->
<g id="edge22" class="edge">
<title>Node22&#45;&gt;Node23</title>
<path fill="none" stroke="midnightblue" d="M1003.7,-124C1018.62,-124 1035.28,-124 1050.8,-124"/>
<polygon fill="midnightblue" stroke="midnightblue" points="1003.69,-120.5 993.69,-124 1003.69,-127.5 1003.69,-120.5"/>
</g>
</g>
</svg>
