<?xml version="1.0" encoding="UTF-8" standalone="no"?>
<!DOCTYPE svg PUBLIC "-//W3C//DTD SVG 1.1//EN"
 "http://www.w3.org/Graphics/SVG/1.1/DTD/svg11.dtd">
<!-- Generated by graphviz version 2.43.0 (0)
 -->
<!-- Title: satcheck_cadical_no_preprocessingt Pages: 1 -->
<svg width="210pt" height="263pt"
 viewBox="0.00 0.00 209.50 263.00" xmlns="http://www.w3.org/2000/svg" xmlns:xlink="http://www.w3.org/1999/xlink">
<g id="graph0" class="graph" transform="scale(1 1) rotate(0) translate(4 259)">
<title>satcheck_cadical_no_preprocessingt</title>
<!-- Node1 -->
<g id="node1" class="node">
<title>Node1</title>
<g id="a_node1"><a xlink:title=" ">
<polygon fill="#bfbfbf" stroke="black" points="32,-0.5 32,-30.5 149,-30.5 149,-0.5 32,-0.5"/>
<text text-anchor="start" x="40" y="-18.5" font-family="Helvetica,sans-Serif" font-size="10.00">satcheck_cadical_no</text>
<text text-anchor="middle" x="90.5" y="-7.5" font-family="Helvetica,sans-Serif" font-size="10.00">_preprocessingt</text>
</a>
</g>
</g>
<!-- Node2 -->
<g id="node2" class="node">
<title>Node2</title>
<g id="a_node2"><a xlink:href="classsatcheck__cadical__baset.html" target="_top" xlink:title=" ">
<polygon fill="none" stroke="black" points="24.5,-67.5 24.5,-86.5 156.5,-86.5 156.5,-67.5 24.5,-67.5"/>
<text text-anchor="middle" x="90.5" y="-74.5" font-family="Helvetica,sans-Serif" font-size="10.00">satcheck_cadical_baset</text>
</a>
</g>
</g>
<!-- Node2&#45;&gt;Node1 -->
<g id="edge1" class="edge">
<title>Node2&#45;&gt;Node1</title>
<path fill="none" stroke="midnightblue" d="M90.5,-57.23C90.5,-48.59 90.5,-38.5 90.5,-30.52"/>
<polygon fill="midnightblue" stroke="midnightblue" points="87,-57.48 90.5,-67.48 94,-57.48 87,-57.48"/>
</g>
<!-- Node3 -->
<g id="node3" class="node">
<title>Node3</title>
<g id="a_node3"><a xlink:href="classcnf__solvert.html" target="_top" xlink:title=" ">
<polygon fill="none" stroke="black" points="0,-123.5 0,-142.5 71,-142.5 71,-123.5 0,-123.5"/>
<text text-anchor="middle" x="35.5" y="-130.5" font-family="Helvetica,sans-Serif" font-size="10.00">cnf_solvert</text>
</a>
</g>
</g>
<!-- Node3&#45;&gt;Node2 -->
<g id="edge2" class="edge">
<title>Node3&#45;&gt;Node2</title>
<path fill="none" stroke="midnightblue" d="M51.79,-116C61.54,-106.43 73.55,-94.64 81.59,-86.75"/>
<polygon fill="midnightblue" stroke="midnightblue" points="49.27,-113.58 44.58,-123.08 54.17,-118.57 49.27,-113.58"/>
</g>
<!-- Node4 -->
<g id="node4" class="node">
<title>Node4</title>
<g id="a_node4"><a xlink:href="classcnft.html" target="_top" xlink:title=" ">
<polygon fill="none" stroke="black" points="18,-179.5 18,-198.5 53,-198.5 53,-179.5 18,-179.5"/>
<text text-anchor="middle" x="35.5" y="-186.5" font-family="Helvetica,sans-Serif" font-size="10.00">cnft</text>
</a>
</g>
</g>
<!-- Node4&#45;&gt;Node3 -->
<g id="edge3" class="edge">
<title>Node4&#45;&gt;Node3</title>
<path fill="none" stroke="midnightblue" d="M35.5,-168.8C35.5,-159.91 35.5,-149.78 35.5,-142.75"/>
<polygon fill="midnightblue" stroke="midnightblue" points="32,-169.08 35.5,-179.08 39,-169.08 32,-169.08"/>
</g>
<!-- Node5 -->
<g id="node5" class="node">
<title>Node5</title>
<g id="a_node5"><a xlink:href="classpropt.html" target="_top" xlink:title="TO_BE_DOCUMENTED.">
<polygon fill="none" stroke="black" points="14.5,-235.5 14.5,-254.5 56.5,-254.5 56.5,-235.5 14.5,-235.5"/>
<text text-anchor="middle" x="35.5" y="-242.5" font-family="Helvetica,sans-Serif" font-size="10.00">propt</text>
</a>
</g>
</g>
<!-- Node5&#45;&gt;Node4 -->
<g id="edge4" class="edge">
<title>Node5&#45;&gt;Node4</title>
<path fill="none" stroke="midnightblue" d="M35.5,-224.8C35.5,-215.91 35.5,-205.78 35.5,-198.75"/>
<polygon fill="midnightblue" stroke="midnightblue" points="32,-225.08 35.5,-235.08 39,-225.08 32,-225.08"/>
</g>
<!-- Node6 -->
<g id="node6" class="node">
<title>Node6</title>
<g id="a_node6"><a xlink:href="classhardness__collectort.html" target="_top" xlink:title=" ">
<polygon fill="none" stroke="black" points="89.5,-123.5 89.5,-142.5 201.5,-142.5 201.5,-123.5 89.5,-123.5"/>
<text text-anchor="middle" x="145.5" y="-130.5" font-family="Helvetica,sans-Serif" font-size="10.00">hardness_collectort</text>
</a>
</g>
</g>
<!-- Node6&#45;&gt;Node2 -->
<g id="edge5" class="edge">
<title>Node6&#45;&gt;Node2</title>
<path fill="none" stroke="midnightblue" d="M129.21,-116C119.46,-106.43 107.45,-94.64 99.41,-86.75"/>
<polygon fill="midnightblue" stroke="midnightblue" points="126.83,-118.57 136.42,-123.08 131.73,-113.58 126.83,-118.57"/>
</g>
</g>
</svg>
