<?xml version="1.0" encoding="UTF-8" standalone="no"?>
<!DOCTYPE svg PUBLIC "-//W3C//DTD SVG 1.1//EN"
 "http://www.w3.org/Graphics/SVG/1.1/DTD/svg11.dtd">
<!-- Generated by graphviz version 2.43.0 (0)
 -->
<!-- Title: unary_predicate_exprt Pages: 1 -->
<svg width="1352pt" height="572pt"
 viewBox="0.00 0.00 1352.00 572.00" xmlns="http://www.w3.org/2000/svg" xmlns:xlink="http://www.w3.org/1999/xlink">
<g id="graph0" class="graph" transform="scale(1 1) rotate(0) translate(4 568)">
<title>unary_predicate_exprt</title>
<!-- Node1 -->
<g id="node1" class="node">
<title>Node1</title>
<g id="a_node1"><a xlink:title="A base class for expressions that are predicates, i.e., Boolean&#45;typed, and that take exactly one argu...">
<polygon fill="#bfbfbf" stroke="black" points="879,-266.5 879,-285.5 1005,-285.5 1005,-266.5 879,-266.5"/>
<text text-anchor="middle" x="942" y="-273.5" font-family="Helvetica,sans-Serif" font-size="10.00">unary_predicate_exprt</text>
</a>
</g>
</g>
<!-- Node8 -->
<g id="node8" class="node">
<title>Node8</title>
<g id="a_node8"><a xlink:href="classenum__is__in__range__exprt.html" target="_top" xlink:title="A Boolean expression returning true, iff the value of an enum&#45;typed symbol equals one of the enum&#39;s d...">
<polygon fill="none" stroke="black" points="1043,-544.5 1043,-563.5 1179,-563.5 1179,-544.5 1043,-544.5"/>
<text text-anchor="middle" x="1111" y="-551.5" font-family="Helvetica,sans-Serif" font-size="10.00">enum_is_in_range_exprt</text>
</a>
</g>
</g>
<!-- Node1&#45;&gt;Node8 -->
<g id="edge7" class="edge">
<title>Node1&#45;&gt;Node8</title>
<path fill="none" stroke="midnightblue" d="M944.4,-295.66C948.95,-344.25 967.71,-470.68 1042,-535 1046.45,-538.85 1051.62,-541.93 1057.08,-544.38"/>
<polygon fill="midnightblue" stroke="midnightblue" points="947.87,-295.23 943.55,-285.55 940.9,-295.81 947.87,-295.23"/>
</g>
<!-- Node9 -->
<g id="node9" class="node">
<title>Node9</title>
<g id="a_node9"><a xlink:href="classinitial__state__exprt.html" target="_top" xlink:title=" ">
<polygon fill="none" stroke="black" points="1058.5,-506.5 1058.5,-525.5 1163.5,-525.5 1163.5,-506.5 1058.5,-506.5"/>
<text text-anchor="middle" x="1111" y="-513.5" font-family="Helvetica,sans-Serif" font-size="10.00">initial_state_exprt</text>
</a>
</g>
</g>
<!-- Node1&#45;&gt;Node9 -->
<g id="edge8" class="edge">
<title>Node1&#45;&gt;Node9</title>
<path fill="none" stroke="midnightblue" d="M946.07,-295.76C953.86,-338.99 978.45,-442.46 1042,-497 1046.84,-501.15 1052.51,-504.4 1058.49,-506.94"/>
<polygon fill="midnightblue" stroke="midnightblue" points="949.49,-294.97 944.37,-285.69 942.59,-296.13 949.49,-294.97"/>
</g>
<!-- Node10 -->
<g id="node10" class="node">
<title>Node10</title>
<g id="a_node10"><a xlink:href="classis__cstring__exprt.html" target="_top" xlink:title="A predicate that indicates that a zero&#45;terminated string starts at the given address.">
<polygon fill="none" stroke="black" points="1064,-468.5 1064,-487.5 1158,-487.5 1158,-468.5 1064,-468.5"/>
<text text-anchor="middle" x="1111" y="-475.5" font-family="Helvetica,sans-Serif" font-size="10.00">is_cstring_exprt</text>
</a>
</g>
</g>
<!-- Node1&#45;&gt;Node10 -->
<g id="edge9" class="edge">
<title>Node1&#45;&gt;Node10</title>
<path fill="none" stroke="midnightblue" d="M947.99,-295.39C958.66,-332.85 987.27,-415.31 1042,-459 1048.32,-464.05 1055.9,-467.75 1063.68,-470.48"/>
<polygon fill="midnightblue" stroke="midnightblue" points="951.36,-294.42 945.35,-285.69 944.6,-296.26 951.36,-294.42"/>
</g>
<!-- Node11 -->
<g id="node11" class="node">
<title>Node11</title>
<g id="a_node11"><a xlink:href="classis__dynamic__object__exprt.html" target="_top" xlink:title="Evaluates to true if the operand is a pointer to a dynamic object.">
<polygon fill="none" stroke="black" points="1042,-430.5 1042,-449.5 1180,-449.5 1180,-430.5 1042,-430.5"/>
<text text-anchor="middle" x="1111" y="-437.5" font-family="Helvetica,sans-Serif" font-size="10.00">is_dynamic_object_exprt</text>
</a>
</g>
</g>
<!-- Node1&#45;&gt;Node11 -->
<g id="edge10" class="edge">
<title>Node1&#45;&gt;Node11</title>
<path fill="none" stroke="midnightblue" d="M950.83,-295.2C964.55,-326.4 995.93,-387.97 1042,-421 1047.38,-424.86 1053.51,-427.93 1059.85,-430.38"/>
<polygon fill="midnightblue" stroke="midnightblue" points="953.99,-293.69 946.86,-285.86 947.55,-296.43 953.99,-293.69"/>
</g>
<!-- Node12 -->
<g id="node12" class="node">
<title>Node12</title>
<g id="a_node12"><a xlink:href="classis__invalid__pointer__exprt.html" target="_top" xlink:title=" ">
<polygon fill="none" stroke="black" points="1059.5,-381 1059.5,-411 1162.5,-411 1162.5,-381 1059.5,-381"/>
<text text-anchor="start" x="1067.5" y="-399" font-family="Helvetica,sans-Serif" font-size="10.00">is_invalid_pointer</text>
<text text-anchor="middle" x="1111" y="-388" font-family="Helvetica,sans-Serif" font-size="10.00">_exprt</text>
</a>
</g>
</g>
<!-- Node1&#45;&gt;Node12 -->
<g id="edge11" class="edge">
<title>Node1&#45;&gt;Node12</title>
<path fill="none" stroke="midnightblue" d="M957.22,-293.51C975.08,-314.48 1007.56,-349.48 1042,-371 1047.97,-374.73 1054.59,-378.03 1061.28,-380.9"/>
<polygon fill="midnightblue" stroke="midnightblue" points="959.81,-291.14 950.71,-285.71 954.44,-295.63 959.81,-291.14"/>
</g>
<!-- Node13 -->
<g id="node13" class="node">
<title>Node13</title>
<g id="a_node13"><a xlink:href="classisfinite__exprt.html" target="_top" xlink:title="Evaluates to true if the operand is finite.">
<polygon fill="none" stroke="black" points="1071,-342.5 1071,-361.5 1151,-361.5 1151,-342.5 1071,-342.5"/>
<text text-anchor="middle" x="1111" y="-349.5" font-family="Helvetica,sans-Serif" font-size="10.00">isfinite_exprt</text>
</a>
</g>
</g>
<!-- Node1&#45;&gt;Node13 -->
<g id="edge12" class="edge">
<title>Node1&#45;&gt;Node13</title>
<path fill="none" stroke="midnightblue" d="M965.67,-291.25C985.21,-303.85 1014.53,-321.47 1042,-333 1051.15,-336.84 1061.32,-340.16 1070.95,-342.89"/>
<polygon fill="midnightblue" stroke="midnightblue" points="967.46,-288.23 957.17,-285.69 963.62,-294.09 967.46,-288.23"/>
</g>
<!-- Node14 -->
<g id="node14" class="node">
<title>Node14</title>
<g id="a_node14"><a xlink:href="classisinf__exprt.html" target="_top" xlink:title="Evaluates to true if the operand is infinite.">
<polygon fill="none" stroke="black" points="1077,-304.5 1077,-323.5 1145,-323.5 1145,-304.5 1077,-304.5"/>
<text text-anchor="middle" x="1111" y="-311.5" font-family="Helvetica,sans-Serif" font-size="10.00">isinf_exprt</text>
</a>
</g>
</g>
<!-- Node1&#45;&gt;Node14 -->
<g id="edge13" class="edge">
<title>Node1&#45;&gt;Node14</title>
<path fill="none" stroke="midnightblue" d="M995.1,-287.85C1021.78,-293.93 1053.48,-301.14 1076.82,-306.45"/>
<polygon fill="midnightblue" stroke="midnightblue" points="995.67,-284.4 985.14,-285.59 994.12,-291.22 995.67,-284.4"/>
</g>
<!-- Node15 -->
<g id="node15" class="node">
<title>Node15</title>
<g id="a_node15"><a xlink:href="classisnan__exprt.html" target="_top" xlink:title="Evaluates to true if the operand is NaN.">
<polygon fill="none" stroke="black" points="1074,-266.5 1074,-285.5 1148,-285.5 1148,-266.5 1074,-266.5"/>
<text text-anchor="middle" x="1111" y="-273.5" font-family="Helvetica,sans-Serif" font-size="10.00">isnan_exprt</text>
</a>
</g>
</g>
<!-- Node1&#45;&gt;Node15 -->
<g id="edge14" class="edge">
<title>Node1&#45;&gt;Node15</title>
<path fill="none" stroke="midnightblue" d="M1015.36,-276C1035.63,-276 1056.8,-276 1073.96,-276"/>
<polygon fill="midnightblue" stroke="midnightblue" points="1015.18,-272.5 1005.18,-276 1015.18,-279.5 1015.18,-272.5"/>
</g>
<!-- Node16 -->
<g id="node16" class="node">
<title>Node16</title>
<g id="a_node16"><a xlink:href="classisnormal__exprt.html" target="_top" xlink:title="Evaluates to true if the operand is a normal number.">
<polygon fill="none" stroke="black" points="1066,-228.5 1066,-247.5 1156,-247.5 1156,-228.5 1066,-228.5"/>
<text text-anchor="middle" x="1111" y="-235.5" font-family="Helvetica,sans-Serif" font-size="10.00">isnormal_exprt</text>
</a>
</g>
</g>
<!-- Node1&#45;&gt;Node16 -->
<g id="edge15" class="edge">
<title>Node1&#45;&gt;Node16</title>
<path fill="none" stroke="midnightblue" d="M994.96,-264.18C1018.51,-258.82 1045.97,-252.57 1068.16,-247.52"/>
<polygon fill="midnightblue" stroke="midnightblue" points="994.12,-260.78 985.14,-266.41 995.67,-267.6 994.12,-260.78"/>
</g>
<!-- Node17 -->
<g id="node17" class="node">
<title>Node17</title>
<g id="a_node17"><a xlink:href="classlive__object__exprt.html" target="_top" xlink:title="A predicate that indicates that the object pointed to is live.">
<polygon fill="none" stroke="black" points="1060.5,-190.5 1060.5,-209.5 1161.5,-209.5 1161.5,-190.5 1060.5,-190.5"/>
<text text-anchor="middle" x="1111" y="-197.5" font-family="Helvetica,sans-Serif" font-size="10.00">live_object_exprt</text>
</a>
</g>
</g>
<!-- Node1&#45;&gt;Node17 -->
<g id="edge16" class="edge">
<title>Node1&#45;&gt;Node17</title>
<path fill="none" stroke="midnightblue" d="M965.67,-260.75C985.21,-248.15 1014.53,-230.53 1042,-219 1050.7,-215.35 1060.32,-212.17 1069.52,-209.52"/>
<polygon fill="midnightblue" stroke="midnightblue" points="963.62,-257.91 957.17,-266.31 967.46,-263.77 963.62,-257.91"/>
</g>
<!-- Node18 -->
<g id="node18" class="node">
<title>Node18</title>
<g id="a_node18"><a xlink:href="classonehot0__exprt.html" target="_top" xlink:title="A Boolean expression returning true iff the given operand consists of exactly one &#39;0&#39; and &#39;1&#39; otherwi...">
<polygon fill="none" stroke="black" points="1067.5,-152.5 1067.5,-171.5 1154.5,-171.5 1154.5,-152.5 1067.5,-152.5"/>
<text text-anchor="middle" x="1111" y="-159.5" font-family="Helvetica,sans-Serif" font-size="10.00">onehot0_exprt</text>
</a>
</g>
</g>
<!-- Node1&#45;&gt;Node18 -->
<g id="edge17" class="edge">
<title>Node1&#45;&gt;Node18</title>
<path fill="none" stroke="midnightblue" d="M956.68,-258.36C974.19,-236.96 1006.54,-201.24 1042,-181 1049.77,-176.56 1058.64,-173.11 1067.35,-170.45"/>
<polygon fill="midnightblue" stroke="midnightblue" points="953.83,-256.32 950.31,-266.31 959.29,-260.69 953.83,-256.32"/>
</g>
<!-- Node19 -->
<g id="node19" class="node">
<title>Node19</title>
<g id="a_node19"><a xlink:href="classonehot__exprt.html" target="_top" xlink:title="A Boolean expression returning true iff the given operand consists of exactly one &#39;1&#39; and &#39;0&#39; otherwi...">
<polygon fill="none" stroke="black" points="1070.5,-114.5 1070.5,-133.5 1151.5,-133.5 1151.5,-114.5 1070.5,-114.5"/>
<text text-anchor="middle" x="1111" y="-121.5" font-family="Helvetica,sans-Serif" font-size="10.00">onehot_exprt</text>
</a>
</g>
</g>
<!-- Node1&#45;&gt;Node19 -->
<g id="edge18" class="edge">
<title>Node1&#45;&gt;Node19</title>
<path fill="none" stroke="midnightblue" d="M951.87,-257.18C966.51,-228.2 998.48,-172.88 1042,-143 1050.39,-137.24 1060.48,-133.22 1070.3,-130.41"/>
<polygon fill="midnightblue" stroke="midnightblue" points="948.69,-255.72 947.43,-266.24 954.97,-258.81 948.69,-255.72"/>
</g>
<!-- Node20 -->
<g id="node20" class="node">
<title>Node20</title>
<g id="a_node20"><a xlink:href="classsign__exprt.html" target="_top" xlink:title="Sign of an expression Predicate is true if _op is negative, false otherwise.">
<polygon fill="none" stroke="black" points="1077,-76.5 1077,-95.5 1145,-95.5 1145,-76.5 1077,-76.5"/>
<text text-anchor="middle" x="1111" y="-83.5" font-family="Helvetica,sans-Serif" font-size="10.00">sign_exprt</text>
</a>
</g>
</g>
<!-- Node1&#45;&gt;Node20 -->
<g id="edge19" class="edge">
<title>Node1&#45;&gt;Node20</title>
<path fill="none" stroke="midnightblue" d="M948.85,-256.41C960.52,-220.74 990.15,-145.18 1042,-105 1051.98,-97.27 1064.94,-92.68 1076.86,-89.96"/>
<polygon fill="midnightblue" stroke="midnightblue" points="945.46,-255.53 945.8,-266.12 952.14,-257.63 945.46,-255.53"/>
</g>
<!-- Node21 -->
<g id="node21" class="node">
<title>Node21</title>
<g id="a_node21"><a xlink:href="classunary__overflow__exprt.html" target="_top" xlink:title="A Boolean expression returning true, iff operation kind would result in an overflow when applied to t...">
<polygon fill="none" stroke="black" points="1050,-38.5 1050,-57.5 1172,-57.5 1172,-38.5 1050,-38.5"/>
<text text-anchor="middle" x="1111" y="-45.5" font-family="Helvetica,sans-Serif" font-size="10.00">unary_overflow_exprt</text>
</a>
</g>
</g>
<!-- Node1&#45;&gt;Node21 -->
<g id="edge20" class="edge">
<title>Node1&#45;&gt;Node21</title>
<path fill="none" stroke="midnightblue" d="M946.6,-256.48C955.27,-215.11 981.26,-118.2 1042,-67 1046.59,-63.13 1051.92,-60.04 1057.53,-57.58"/>
<polygon fill="midnightblue" stroke="midnightblue" points="943.15,-255.89 944.64,-266.38 950.02,-257.25 943.15,-255.89"/>
</g>
<!-- Node23 -->
<g id="node23" class="node">
<title>Node23</title>
<g id="a_node23"><a xlink:href="classwriteable__object__exprt.html" target="_top" xlink:title="A predicate that indicates that the object pointed to is writeable.">
<polygon fill="none" stroke="black" points="1047,-0.5 1047,-19.5 1175,-19.5 1175,-0.5 1047,-0.5"/>
<text text-anchor="middle" x="1111" y="-7.5" font-family="Helvetica,sans-Serif" font-size="10.00">writeable_object_exprt</text>
</a>
</g>
</g>
<!-- Node1&#45;&gt;Node23 -->
<g id="edge22" class="edge">
<title>Node1&#45;&gt;Node23</title>
<path fill="none" stroke="midnightblue" d="M945.01,-256.52C950.89,-209.98 972.26,-91.54 1042,-29 1046.29,-25.15 1051.3,-22.08 1056.61,-19.62"/>
<polygon fill="midnightblue" stroke="midnightblue" points="941.53,-256.16 943.86,-266.5 948.49,-256.97 941.53,-256.16"/>
</g>
<!-- Node2 -->
<g id="node2" class="node">
<title>Node2</title>
<g id="a_node2"><a xlink:href="classunary__exprt.html" target="_top" xlink:title="Generic base class for unary expressions.">
<polygon fill="none" stroke="black" points="767,-266.5 767,-285.5 842,-285.5 842,-266.5 767,-266.5"/>
<text text-anchor="middle" x="804.5" y="-273.5" font-family="Helvetica,sans-Serif" font-size="10.00">unary_exprt</text>
</a>
</g>
</g>
<!-- Node2&#45;&gt;Node1 -->
<g id="edge1" class="edge">
<title>Node2&#45;&gt;Node1</title>
<path fill="none" stroke="midnightblue" d="M852.35,-276C860.94,-276 870.03,-276 878.98,-276"/>
<polygon fill="midnightblue" stroke="midnightblue" points="852.17,-272.5 842.17,-276 852.17,-279.5 852.17,-272.5"/>
</g>
<!-- Node3 -->
<g id="node3" class="node">
<title>Node3</title>
<g id="a_node3"><a xlink:href="classexpr__protectedt.html" target="_top" xlink:title="Base class for all expressions.">
<polygon fill="none" stroke="black" points="636,-266.5 636,-285.5 730,-285.5 730,-266.5 636,-266.5"/>
<text text-anchor="middle" x="683" y="-273.5" font-family="Helvetica,sans-Serif" font-size="10.00">expr_protectedt</text>
</a>
</g>
</g>
<!-- Node3&#45;&gt;Node2 -->
<g id="edge2" class="edge">
<title>Node3&#45;&gt;Node2</title>
<path fill="none" stroke="midnightblue" d="M740.25,-276C749.22,-276 758.3,-276 766.68,-276"/>
<polygon fill="midnightblue" stroke="midnightblue" points="740.2,-272.5 730.2,-276 740.2,-279.5 740.2,-272.5"/>
</g>
<!-- Node4 -->
<g id="node4" class="node">
<title>Node4</title>
<g id="a_node4"><a xlink:href="classexprt.html" target="_top" xlink:title="Base class for all expressions.">
<polygon fill="none" stroke="black" points="557,-266.5 557,-285.5 599,-285.5 599,-266.5 557,-266.5"/>
<text text-anchor="middle" x="578" y="-273.5" font-family="Helvetica,sans-Serif" font-size="10.00">exprt</text>
</a>
</g>
</g>
<!-- Node4&#45;&gt;Node3 -->
<g id="edge3" class="edge">
<title>Node4&#45;&gt;Node3</title>
<path fill="none" stroke="midnightblue" d="M609.56,-276C617.77,-276 626.84,-276 635.7,-276"/>
<polygon fill="midnightblue" stroke="midnightblue" points="609.35,-272.5 599.35,-276 609.35,-279.5 609.35,-272.5"/>
</g>
<!-- Node5 -->
<g id="node5" class="node">
<title>Node5</title>
<g id="a_node5"><a xlink:href="classirept.html" target="_top" xlink:title="There are a large number of kinds of tree structured or tree&#45;like data in CPROVER.">
<polygon fill="none" stroke="black" points="481,-266.5 481,-285.5 520,-285.5 520,-266.5 481,-266.5"/>
<text text-anchor="middle" x="500.5" y="-273.5" font-family="Helvetica,sans-Serif" font-size="10.00">irept</text>
</a>
</g>
</g>
<!-- Node5&#45;&gt;Node4 -->
<g id="edge4" class="edge">
<title>Node5&#45;&gt;Node4</title>
<path fill="none" stroke="midnightblue" d="M530.18,-276C539.11,-276 548.76,-276 556.97,-276"/>
<polygon fill="midnightblue" stroke="midnightblue" points="530.16,-272.5 520.16,-276 530.16,-279.5 530.16,-272.5"/>
</g>
<!-- Node6 -->
<g id="node6" class="node">
<title>Node6</title>
<g id="a_node6"><a xlink:href="classsharing__treet.html" target="_top" xlink:title=" ">
<polygon fill="none" stroke="black" points="319,-255.5 319,-296.5 444,-296.5 444,-255.5 319,-255.5"/>
<text text-anchor="start" x="327" y="-284.5" font-family="Helvetica,sans-Serif" font-size="10.00">sharing_treet&lt; irept,</text>
<text text-anchor="start" x="327" y="-273.5" font-family="Helvetica,sans-Serif" font-size="10.00"> forward_list_as_mapt</text>
<text text-anchor="middle" x="381.5" y="-262.5" font-family="Helvetica,sans-Serif" font-size="10.00">&lt; irep_idt, irept &gt; &gt;</text>
</a>
</g>
</g>
<!-- Node6&#45;&gt;Node5 -->
<g id="edge5" class="edge">
<title>Node6&#45;&gt;Node5</title>
<path fill="none" stroke="midnightblue" d="M454.38,-276C464.13,-276 473.35,-276 480.89,-276"/>
<polygon fill="midnightblue" stroke="midnightblue" points="454.08,-272.5 444.08,-276 454.08,-279.5 454.08,-272.5"/>
</g>
<!-- Node7 -->
<g id="node7" class="node">
<title>Node7</title>
<g id="a_node7"><a xlink:href="classsharing__treet.html" target="_top" xlink:title="Base class for tree&#45;like data structures with sharing.">
<polygon fill="none" stroke="black" points="0,-261 0,-291 136,-291 136,-261 0,-261"/>
<text text-anchor="start" x="8" y="-279" font-family="Helvetica,sans-Serif" font-size="10.00">sharing_treet&lt; derivedt,</text>
<text text-anchor="middle" x="68" y="-268" font-family="Helvetica,sans-Serif" font-size="10.00"> named_subtreest &gt;</text>
</a>
</g>
</g>
<!-- Node7&#45;&gt;Node6 -->
<g id="edge6" class="edge">
<title>Node7&#45;&gt;Node6</title>
<path fill="none" stroke="orange" stroke-dasharray="5,2" d="M146.29,-276C199.58,-276 269.45,-276 318.96,-276"/>
<polygon fill="orange" stroke="orange" points="146.21,-272.5 136.21,-276 146.21,-279.5 146.21,-272.5"/>
<text text-anchor="start" x="154" y="-290" font-family="Helvetica,sans-Serif" font-size="10.00"> &lt; irept, forward_list</text>
<text text-anchor="middle" x="227.5" y="-279" font-family="Helvetica,sans-Serif" font-size="10.00">_as_mapt&lt; irep_idt, irept &gt; &gt;</text>
</g>
<!-- Node22 -->
<g id="node22" class="node">
<title>Node22</title>
<g id="a_node22"><a xlink:href="classunary__minus__overflow__exprt.html" target="_top" xlink:title="A Boolean expression returning true, iff negation would result in an overflow when applied to the (si...">
<polygon fill="none" stroke="black" points="1217,-33 1217,-63 1344,-63 1344,-33 1217,-33"/>
<text text-anchor="start" x="1225" y="-51" font-family="Helvetica,sans-Serif" font-size="10.00">unary_minus_overflow</text>
<text text-anchor="middle" x="1280.5" y="-40" font-family="Helvetica,sans-Serif" font-size="10.00">_exprt</text>
</a>
</g>
</g>
<!-- Node21&#45;&gt;Node22 -->
<g id="edge21" class="edge">
<title>Node21&#45;&gt;Node22</title>
<path fill="none" stroke="midnightblue" d="M1182.76,-48C1194.09,-48 1205.74,-48 1216.86,-48"/>
<polygon fill="midnightblue" stroke="midnightblue" points="1182.47,-44.5 1172.47,-48 1182.47,-51.5 1182.47,-44.5"/>
</g>
</g>
</svg>
