<?xml version="1.0" encoding="UTF-8" standalone="no"?>
<!DOCTYPE svg PUBLIC "-//W3C//DTD SVG 1.1//EN"
 "http://www.w3.org/Graphics/SVG/1.1/DTD/svg11.dtd">
<!-- Generated by graphviz version 2.43.0 (0)
 -->
<!-- Title: satcheck_cadical_preprocessingt Pages: 1 -->
<svg width="210pt" height="252pt"
 viewBox="0.00 0.00 209.50 252.00" xmlns="http://www.w3.org/2000/svg" xmlns:xlink="http://www.w3.org/1999/xlink">
<g id="graph0" class="graph" transform="scale(1 1) rotate(0) translate(4 248)">
<title>satcheck_cadical_preprocessingt</title>
<!-- Node1 -->
<g id="node1" class="node">
<title>Node1</title>
<g id="a_node1"><a xlink:title=" ">
<polygon fill="#bfbfbf" stroke="black" points="2,-0.5 2,-19.5 179,-19.5 179,-0.5 2,-0.5"/>
<text text-anchor="middle" x="90.5" y="-7.5" font-family="Helvetica,sans-Serif" font-size="10.00">satcheck_cadical_preprocessingt</text>
</a>
</g>
</g>
<!-- Node2 -->
<g id="node2" class="node">
<title>Node2</title>
<g id="a_node2"><a xlink:href="classsatcheck__cadical__baset.html" target="_top" xlink:title=" ">
<polygon fill="none" stroke="black" points="24.5,-56.5 24.5,-75.5 156.5,-75.5 156.5,-56.5 24.5,-56.5"/>
<text text-anchor="middle" x="90.5" y="-63.5" font-family="Helvetica,sans-Serif" font-size="10.00">satcheck_cadical_baset</text>
</a>
</g>
</g>
<!-- Node2&#45;&gt;Node1 -->
<g id="edge1" class="edge">
<title>Node2&#45;&gt;Node1</title>
<path fill="none" stroke="midnightblue" d="M90.5,-45.8C90.5,-36.91 90.5,-26.78 90.5,-19.75"/>
<polygon fill="midnightblue" stroke="midnightblue" points="87,-46.08 90.5,-56.08 94,-46.08 87,-46.08"/>
</g>
<!-- Node3 -->
<g id="node3" class="node">
<title>Node3</title>
<g id="a_node3"><a xlink:href="classcnf__solvert.html" target="_top" xlink:title=" ">
<polygon fill="none" stroke="black" points="0,-112.5 0,-131.5 71,-131.5 71,-112.5 0,-112.5"/>
<text text-anchor="middle" x="35.5" y="-119.5" font-family="Helvetica,sans-Serif" font-size="10.00">cnf_solvert</text>
</a>
</g>
</g>
<!-- Node3&#45;&gt;Node2 -->
<g id="edge2" class="edge">
<title>Node3&#45;&gt;Node2</title>
<path fill="none" stroke="midnightblue" d="M51.79,-105C61.54,-95.43 73.55,-83.64 81.59,-75.75"/>
<polygon fill="midnightblue" stroke="midnightblue" points="49.27,-102.58 44.58,-112.08 54.17,-107.57 49.27,-102.58"/>
</g>
<!-- Node4 -->
<g id="node4" class="node">
<title>Node4</title>
<g id="a_node4"><a xlink:href="classcnft.html" target="_top" xlink:title=" ">
<polygon fill="none" stroke="black" points="18,-168.5 18,-187.5 53,-187.5 53,-168.5 18,-168.5"/>
<text text-anchor="middle" x="35.5" y="-175.5" font-family="Helvetica,sans-Serif" font-size="10.00">cnft</text>
</a>
</g>
</g>
<!-- Node4&#45;&gt;Node3 -->
<g id="edge3" class="edge">
<title>Node4&#45;&gt;Node3</title>
<path fill="none" stroke="midnightblue" d="M35.5,-157.8C35.5,-148.91 35.5,-138.78 35.5,-131.75"/>
<polygon fill="midnightblue" stroke="midnightblue" points="32,-158.08 35.5,-168.08 39,-158.08 32,-158.08"/>
</g>
<!-- Node5 -->
<g id="node5" class="node">
<title>Node5</title>
<g id="a_node5"><a xlink:href="classpropt.html" target="_top" xlink:title="TO_BE_DOCUMENTED.">
<polygon fill="none" stroke="black" points="14.5,-224.5 14.5,-243.5 56.5,-243.5 56.5,-224.5 14.5,-224.5"/>
<text text-anchor="middle" x="35.5" y="-231.5" font-family="Helvetica,sans-Serif" font-size="10.00">propt</text>
</a>
</g>
</g>
<!-- Node5&#45;&gt;Node4 -->
<g id="edge4" class="edge">
<title>Node5&#45;&gt;Node4</title>
<path fill="none" stroke="midnightblue" d="M35.5,-213.8C35.5,-204.91 35.5,-194.78 35.5,-187.75"/>
<polygon fill="midnightblue" stroke="midnightblue" points="32,-214.08 35.5,-224.08 39,-214.08 32,-214.08"/>
</g>
<!-- Node6 -->
<g id="node6" class="node">
<title>Node6</title>
<g id="a_node6"><a xlink:href="classhardness__collectort.html" target="_top" xlink:title=" ">
<polygon fill="none" stroke="black" points="89.5,-112.5 89.5,-131.5 201.5,-131.5 201.5,-112.5 89.5,-112.5"/>
<text text-anchor="middle" x="145.5" y="-119.5" font-family="Helvetica,sans-Serif" font-size="10.00">hardness_collectort</text>
</a>
</g>
</g>
<!-- Node6&#45;&gt;Node2 -->
<g id="edge5" class="edge">
<title>Node6&#45;&gt;Node2</title>
<path fill="none" stroke="midnightblue" d="M129.21,-105C119.46,-95.43 107.45,-83.64 99.41,-75.75"/>
<polygon fill="midnightblue" stroke="midnightblue" points="126.83,-107.57 136.42,-112.08 131.73,-102.58 126.83,-107.57"/>
</g>
</g>
</svg>
