<?xml version="1.0" encoding="UTF-8" standalone="no"?>
<!DOCTYPE svg PUBLIC "-//W3C//DTD SVG 1.1//EN"
 "http://www.w3.org/Graphics/SVG/1.1/DTD/svg11.dtd">
<!-- Generated by graphviz version 2.43.0 (0)
 -->
<!-- Title: cnf_solvert Pages: 1 -->
<svg width="1146pt" height="490pt"
 viewBox="0.00 0.00 1146.00 489.70" xmlns="http://www.w3.org/2000/svg" xmlns:xlink="http://www.w3.org/1999/xlink">
<g id="graph0" class="graph" transform="scale(1 1) rotate(0) translate(4 485.7)">
<title>cnf_solvert</title>
<!-- Node1 -->
<g id="node1" class="node">
<title>Node1</title>
<g id="a_node1"><a xlink:title=" ">
<polygon fill="#bfbfbf" stroke="black" points="151,-227.5 151,-246.5 222,-246.5 222,-227.5 151,-227.5"/>
<text text-anchor="middle" x="186.5" y="-234.5" font-family="Helvetica,sans-Serif" font-size="10.00">cnf_solvert</text>
</a>
</g>
</g>
<!-- Node4 -->
<g id="node4" class="node">
<title>Node4</title>
<g id="a_node4"><a xlink:href="classsatcheck__glucose__baset.html" target="_top" xlink:title=" ">
<polygon fill="none" stroke="black" points="612,-439 612,-469 747,-469 747,-439 612,-439"/>
<text text-anchor="start" x="620" y="-457" font-family="Helvetica,sans-Serif" font-size="10.00">satcheck_glucose_baset</text>
<text text-anchor="middle" x="679.5" y="-446" font-family="Helvetica,sans-Serif" font-size="10.00">&lt; Glucose::Solver &gt;</text>
</a>
</g>
</g>
<!-- Node1&#45;&gt;Node4 -->
<g id="edge3" class="edge">
<title>Node1&#45;&gt;Node4</title>
<path fill="none" stroke="midnightblue" d="M187.55,-256.96C188.9,-298.55 198.73,-393.72 259,-431 367.55,-498.15 523.73,-484.24 611.69,-468.72"/>
<polygon fill="midnightblue" stroke="midnightblue" points="191.05,-256.68 187.36,-246.74 184.05,-256.8 191.05,-256.68"/>
</g>
<!-- Node6 -->
<g id="node6" class="node">
<title>Node6</title>
<g id="a_node6"><a xlink:href="classsatcheck__glucose__baset.html" target="_top" xlink:title=" ">
<polygon fill="none" stroke="black" points="609.5,-374 609.5,-404 749.5,-404 749.5,-374 609.5,-374"/>
<text text-anchor="start" x="617.5" y="-392" font-family="Helvetica,sans-Serif" font-size="10.00">satcheck_glucose_baset</text>
<text text-anchor="middle" x="679.5" y="-381" font-family="Helvetica,sans-Serif" font-size="10.00">&lt; Glucose::SimpSolver &gt;</text>
</a>
</g>
</g>
<!-- Node1&#45;&gt;Node6 -->
<g id="edge5" class="edge">
<title>Node1&#45;&gt;Node6</title>
<path fill="none" stroke="midnightblue" d="M194.65,-256.23C204.86,-280.7 226.09,-322.17 259,-342 316.36,-376.56 505.6,-385.73 609.21,-388.15"/>
<polygon fill="midnightblue" stroke="midnightblue" points="197.78,-254.62 190.84,-246.61 191.27,-257.19 197.78,-254.62"/>
</g>
<!-- Node8 -->
<g id="node8" class="node">
<title>Node8</title>
<g id="a_node8"><a xlink:href="classsatcheck__minisat2__baset.html" target="_top" xlink:title=" ">
<polygon fill="none" stroke="black" points="609.5,-322 609.5,-352 749.5,-352 749.5,-322 609.5,-322"/>
<text text-anchor="start" x="617.5" y="-340" font-family="Helvetica,sans-Serif" font-size="10.00">satcheck_minisat2_baset</text>
<text text-anchor="middle" x="679.5" y="-329" font-family="Helvetica,sans-Serif" font-size="10.00">&lt; Minisat::SimpSolver &gt;</text>
</a>
</g>
</g>
<!-- Node1&#45;&gt;Node8 -->
<g id="edge7" class="edge">
<title>Node1&#45;&gt;Node8</title>
<path fill="none" stroke="midnightblue" d="M200.28,-255.05C213.09,-271.59 234.4,-295.24 259,-307 372.3,-361.17 522.73,-356.09 609.24,-346.93"/>
<polygon fill="midnightblue" stroke="midnightblue" points="202.86,-252.64 194.08,-246.71 197.24,-256.82 202.86,-252.64"/>
</g>
<!-- Node10 -->
<g id="node10" class="node">
<title>Node10</title>
<g id="a_node10"><a xlink:href="classsatcheck__minisat2__baset.html" target="_top" xlink:title=" ">
<polygon fill="none" stroke="black" points="609.5,-268 609.5,-298 749.5,-298 749.5,-268 609.5,-268"/>
<text text-anchor="start" x="617.5" y="-286" font-family="Helvetica,sans-Serif" font-size="10.00">satcheck_minisat2_baset</text>
<text text-anchor="middle" x="679.5" y="-275" font-family="Helvetica,sans-Serif" font-size="10.00">&lt; Minisat::Solver &gt;</text>
</a>
</g>
</g>
<!-- Node1&#45;&gt;Node10 -->
<g id="edge9" class="edge">
<title>Node1&#45;&gt;Node10</title>
<path fill="none" stroke="midnightblue" d="M232.23,-241.19C318.13,-249.24 506.75,-266.91 609.11,-276.5"/>
<polygon fill="midnightblue" stroke="midnightblue" points="232.31,-237.68 222.03,-240.23 231.66,-244.65 232.31,-237.68"/>
</g>
<!-- Node12 -->
<g id="node12" class="node">
<title>Node12</title>
<g id="a_node12"><a xlink:href="classsatcheck__booleforce__baset.html" target="_top" xlink:title=" ">
<polygon fill="none" stroke="black" points="285,-191 285,-221 402,-221 402,-191 285,-191"/>
<text text-anchor="start" x="293" y="-209" font-family="Helvetica,sans-Serif" font-size="10.00">satcheck_booleforce</text>
<text text-anchor="middle" x="343.5" y="-198" font-family="Helvetica,sans-Serif" font-size="10.00">_baset</text>
</a>
</g>
</g>
<!-- Node1&#45;&gt;Node12 -->
<g id="edge11" class="edge">
<title>Node1&#45;&gt;Node12</title>
<path fill="none" stroke="midnightblue" d="M232.14,-228.07C248.53,-224.79 267.33,-221.03 284.71,-217.56"/>
<polygon fill="midnightblue" stroke="midnightblue" points="231.4,-224.65 222.29,-230.04 232.78,-231.51 231.4,-224.65"/>
</g>
<!-- Node15 -->
<g id="node15" class="node">
<title>Node15</title>
<g id="a_node15"><a xlink:href="classsatcheck__cadical__baset.html" target="_top" xlink:title=" ">
<polygon fill="none" stroke="black" points="277.5,-152.5 277.5,-171.5 409.5,-171.5 409.5,-152.5 277.5,-152.5"/>
<text text-anchor="middle" x="343.5" y="-159.5" font-family="Helvetica,sans-Serif" font-size="10.00">satcheck_cadical_baset</text>
</a>
</g>
</g>
<!-- Node1&#45;&gt;Node15 -->
<g id="edge14" class="edge">
<title>Node1&#45;&gt;Node15</title>
<path fill="none" stroke="midnightblue" d="M204.78,-219.85C218.41,-207.28 238.48,-190.76 259,-181 267.06,-177.17 275.92,-174.09 284.78,-171.62"/>
<polygon fill="midnightblue" stroke="midnightblue" points="202.02,-217.65 197.18,-227.07 206.84,-222.72 202.02,-217.65"/>
</g>
<!-- Node18 -->
<g id="node18" class="node">
<title>Node18</title>
<g id="a_node18"><a xlink:href="classsatcheck__glucose__baset.html" target="_top" xlink:title=" ">
<polygon fill="none" stroke="black" points="261.5,-402.5 261.5,-421.5 425.5,-421.5 425.5,-402.5 261.5,-402.5"/>
<text text-anchor="middle" x="343.5" y="-409.5" font-family="Helvetica,sans-Serif" font-size="10.00">satcheck_glucose_baset&lt; T &gt;</text>
</a>
</g>
</g>
<!-- Node1&#45;&gt;Node18 -->
<g id="edge17" class="edge">
<title>Node1&#45;&gt;Node18</title>
<path fill="none" stroke="midnightblue" d="M188.52,-256.91C191.3,-289.35 201.63,-353.44 240,-388 246.93,-394.24 255.16,-398.94 263.91,-402.48"/>
<polygon fill="midnightblue" stroke="midnightblue" points="192.01,-256.59 187.82,-246.86 185.02,-257.08 192.01,-256.59"/>
</g>
<!-- Node19 -->
<g id="node19" class="node">
<title>Node19</title>
<g id="a_node19"><a xlink:href="classsatcheck__ipasirt.html" target="_top" xlink:title="Interface for generic SAT solver interface IPASIR.">
<polygon fill="none" stroke="black" points="295.5,-114.5 295.5,-133.5 391.5,-133.5 391.5,-114.5 295.5,-114.5"/>
<text text-anchor="middle" x="343.5" y="-121.5" font-family="Helvetica,sans-Serif" font-size="10.00">satcheck_ipasirt</text>
</a>
</g>
</g>
<!-- Node1&#45;&gt;Node19 -->
<g id="edge20" class="edge">
<title>Node1&#45;&gt;Node19</title>
<path fill="none" stroke="midnightblue" d="M196.7,-218.06C208.21,-196.44 229.98,-161.69 259,-143 269.75,-136.08 282.7,-131.66 295.16,-128.85"/>
<polygon fill="midnightblue" stroke="midnightblue" points="193.45,-216.72 192.02,-227.22 199.69,-219.91 193.45,-216.72"/>
</g>
<!-- Node20 -->
<g id="node20" class="node">
<title>Node20</title>
<g id="a_node20"><a xlink:href="classsatcheck__lingelingt.html" target="_top" xlink:title=" ">
<polygon fill="none" stroke="black" points="288,-76.5 288,-95.5 399,-95.5 399,-76.5 288,-76.5"/>
<text text-anchor="middle" x="343.5" y="-83.5" font-family="Helvetica,sans-Serif" font-size="10.00">satcheck_lingelingt</text>
</a>
</g>
</g>
<!-- Node1&#45;&gt;Node20 -->
<g id="edge21" class="edge">
<title>Node1&#45;&gt;Node20</title>
<path fill="none" stroke="midnightblue" d="M192.53,-217.37C201.06,-188.16 221.26,-133.64 259,-105 267.41,-98.62 277.58,-94.32 287.88,-91.43"/>
<polygon fill="midnightblue" stroke="midnightblue" points="189.1,-216.65 189.81,-227.22 195.85,-218.5 189.1,-216.65"/>
</g>
<!-- Node21 -->
<g id="node21" class="node">
<title>Node21</title>
<g id="a_node21"><a xlink:href="classsatcheck__minisat1__baset.html" target="_top" xlink:title=" ">
<polygon fill="none" stroke="black" points="273.5,-38.5 273.5,-57.5 413.5,-57.5 413.5,-38.5 273.5,-38.5"/>
<text text-anchor="middle" x="343.5" y="-45.5" font-family="Helvetica,sans-Serif" font-size="10.00">satcheck_minisat1_baset</text>
</a>
</g>
</g>
<!-- Node1&#45;&gt;Node21 -->
<g id="edge22" class="edge">
<title>Node1&#45;&gt;Node21</title>
<path fill="none" stroke="midnightblue" d="M189.98,-216.95C195.52,-181.12 212.3,-106.19 259,-67 263.56,-63.18 268.73,-60.09 274.21,-57.59"/>
<polygon fill="midnightblue" stroke="midnightblue" points="186.48,-216.72 188.55,-227.11 193.41,-217.7 186.48,-216.72"/>
</g>
<!-- Node25 -->
<g id="node25" class="node">
<title>Node25</title>
<g id="a_node25"><a xlink:href="classsatcheck__minisat2__baset.html" target="_top" xlink:title=" ">
<polygon fill="none" stroke="black" points="259,-278.5 259,-297.5 428,-297.5 428,-278.5 259,-278.5"/>
<text text-anchor="middle" x="343.5" y="-285.5" font-family="Helvetica,sans-Serif" font-size="10.00">satcheck_minisat2_baset&lt; T &gt;</text>
</a>
</g>
</g>
<!-- Node1&#45;&gt;Node25 -->
<g id="edge26" class="edge">
<title>Node1&#45;&gt;Node25</title>
<path fill="none" stroke="midnightblue" d="M212.59,-251.49C221.09,-255.97 230.77,-260.61 240,-264 256.12,-269.93 274.23,-274.74 290.68,-278.46"/>
<polygon fill="midnightblue" stroke="midnightblue" points="214.04,-248.29 203.58,-246.58 210.69,-254.44 214.04,-248.29"/>
</g>
<!-- Node26 -->
<g id="node26" class="node">
<title>Node26</title>
<g id="a_node26"><a xlink:href="classsatcheck__picosatt.html" target="_top" xlink:title=" ">
<polygon fill="none" stroke="black" points="291.5,-0.5 291.5,-19.5 395.5,-19.5 395.5,-0.5 291.5,-0.5"/>
<text text-anchor="middle" x="343.5" y="-7.5" font-family="Helvetica,sans-Serif" font-size="10.00">satcheck_picosatt</text>
</a>
</g>
</g>
<!-- Node1&#45;&gt;Node26 -->
<g id="edge29" class="edge">
<title>Node1&#45;&gt;Node26</title>
<path fill="none" stroke="midnightblue" d="M188.18,-217.2C190.72,-175.67 202.72,-79.17 259,-29 267.99,-20.99 279.65,-16.14 291.39,-13.26"/>
<polygon fill="midnightblue" stroke="midnightblue" points="184.67,-217.21 187.68,-227.37 191.67,-217.56 184.67,-217.21"/>
</g>
<!-- Node2 -->
<g id="node2" class="node">
<title>Node2</title>
<g id="a_node2"><a xlink:href="classcnft.html" target="_top" xlink:title=" ">
<polygon fill="none" stroke="black" points="79,-227.5 79,-246.5 114,-246.5 114,-227.5 79,-227.5"/>
<text text-anchor="middle" x="96.5" y="-234.5" font-family="Helvetica,sans-Serif" font-size="10.00">cnft</text>
</a>
</g>
</g>
<!-- Node2&#45;&gt;Node1 -->
<g id="edge1" class="edge">
<title>Node2&#45;&gt;Node1</title>
<path fill="none" stroke="midnightblue" d="M124.33,-237C132.68,-237 142,-237 150.8,-237"/>
<polygon fill="midnightblue" stroke="midnightblue" points="124.05,-233.5 114.05,-237 124.05,-240.5 124.05,-233.5"/>
</g>
<!-- Node3 -->
<g id="node3" class="node">
<title>Node3</title>
<g id="a_node3"><a xlink:href="classpropt.html" target="_top" xlink:title="TO_BE_DOCUMENTED.">
<polygon fill="none" stroke="black" points="0,-227.5 0,-246.5 42,-246.5 42,-227.5 0,-227.5"/>
<text text-anchor="middle" x="21" y="-234.5" font-family="Helvetica,sans-Serif" font-size="10.00">propt</text>
</a>
</g>
</g>
<!-- Node3&#45;&gt;Node2 -->
<g id="edge2" class="edge">
<title>Node3&#45;&gt;Node2</title>
<path fill="none" stroke="midnightblue" d="M52.36,-237C61.45,-237 71.07,-237 78.91,-237"/>
<polygon fill="midnightblue" stroke="midnightblue" points="52.08,-233.5 42.08,-237 52.08,-240.5 52.08,-233.5"/>
</g>
<!-- Node5 -->
<g id="node5" class="node">
<title>Node5</title>
<g id="a_node5"><a xlink:href="classsatcheck__glucose__no__simplifiert.html" target="_top" xlink:title=" ">
<polygon fill="none" stroke="black" points="824,-439 824,-469 944,-469 944,-439 824,-439"/>
<text text-anchor="start" x="832" y="-457" font-family="Helvetica,sans-Serif" font-size="10.00">satcheck_glucose_no</text>
<text text-anchor="middle" x="884" y="-446" font-family="Helvetica,sans-Serif" font-size="10.00">_simplifiert</text>
</a>
</g>
</g>
<!-- Node4&#45;&gt;Node5 -->
<g id="edge4" class="edge">
<title>Node4&#45;&gt;Node5</title>
<path fill="none" stroke="midnightblue" d="M757.11,-454C779.22,-454 803,-454 823.88,-454"/>
<polygon fill="midnightblue" stroke="midnightblue" points="757.09,-450.5 747.09,-454 757.09,-457.5 757.09,-450.5"/>
</g>
<!-- Node7 -->
<g id="node7" class="node">
<title>Node7</title>
<g id="a_node7"><a xlink:href="classsatcheck__glucose__simplifiert.html" target="_top" xlink:title=" ">
<polygon fill="none" stroke="black" points="805,-379.5 805,-398.5 963,-398.5 963,-379.5 805,-379.5"/>
<text text-anchor="middle" x="884" y="-386.5" font-family="Helvetica,sans-Serif" font-size="10.00">satcheck_glucose_simplifiert</text>
</a>
</g>
</g>
<!-- Node6&#45;&gt;Node7 -->
<g id="edge6" class="edge">
<title>Node6&#45;&gt;Node7</title>
<path fill="none" stroke="midnightblue" d="M759.75,-389C774.56,-389 790.02,-389 804.8,-389"/>
<polygon fill="midnightblue" stroke="midnightblue" points="759.62,-385.5 749.62,-389 759.62,-392.5 759.62,-385.5"/>
</g>
<!-- Node9 -->
<g id="node9" class="node">
<title>Node9</title>
<g id="a_node9"><a xlink:href="classsatcheck__minisat__simplifiert.html" target="_top" xlink:title=" ">
<polygon fill="none" stroke="black" points="805.5,-327.5 805.5,-346.5 962.5,-346.5 962.5,-327.5 805.5,-327.5"/>
<text text-anchor="middle" x="884" y="-334.5" font-family="Helvetica,sans-Serif" font-size="10.00">satcheck_minisat_simplifiert</text>
</a>
</g>
</g>
<!-- Node8&#45;&gt;Node9 -->
<g id="edge8" class="edge">
<title>Node8&#45;&gt;Node9</title>
<path fill="none" stroke="midnightblue" d="M759.88,-337C774.88,-337 790.56,-337 805.5,-337"/>
<polygon fill="midnightblue" stroke="midnightblue" points="759.62,-333.5 749.62,-337 759.62,-340.5 759.62,-333.5"/>
</g>
<!-- Node11 -->
<g id="node11" class="node">
<title>Node11</title>
<g id="a_node11"><a xlink:href="classsatcheck__minisat__no__simplifiert.html" target="_top" xlink:title=" ">
<polygon fill="none" stroke="black" points="824.5,-268 824.5,-298 943.5,-298 943.5,-268 824.5,-268"/>
<text text-anchor="start" x="832.5" y="-286" font-family="Helvetica,sans-Serif" font-size="10.00">satcheck_minisat_no</text>
<text text-anchor="middle" x="884" y="-275" font-family="Helvetica,sans-Serif" font-size="10.00">_simplifiert</text>
</a>
</g>
</g>
<!-- Node10&#45;&gt;Node11 -->
<g id="edge10" class="edge">
<title>Node10&#45;&gt;Node11</title>
<path fill="none" stroke="midnightblue" d="M759.72,-283C781.24,-283 804.15,-283 824.31,-283"/>
<polygon fill="midnightblue" stroke="midnightblue" points="759.62,-279.5 749.62,-283 759.62,-286.5 759.62,-279.5"/>
</g>
<!-- Node13 -->
<g id="node13" class="node">
<title>Node13</title>
<g id="a_node13"><a xlink:href="classsatcheck__booleforce__coret.html" target="_top" xlink:title=" ">
<polygon fill="none" stroke="black" points="621,-219 621,-249 738,-249 738,-219 621,-219"/>
<text text-anchor="start" x="629" y="-237" font-family="Helvetica,sans-Serif" font-size="10.00">satcheck_booleforce</text>
<text text-anchor="middle" x="679.5" y="-226" font-family="Helvetica,sans-Serif" font-size="10.00">_coret</text>
</a>
</g>
</g>
<!-- Node12&#45;&gt;Node13 -->
<g id="edge12" class="edge">
<title>Node12&#45;&gt;Node13</title>
<path fill="none" stroke="midnightblue" d="M412.27,-211.68C473.58,-216.82 562.89,-224.31 620.85,-229.17"/>
<polygon fill="midnightblue" stroke="midnightblue" points="412.55,-208.19 402.3,-210.85 411.97,-215.17 412.55,-208.19"/>
</g>
<!-- Node14 -->
<g id="node14" class="node">
<title>Node14</title>
<g id="a_node14"><a xlink:href="classsatcheck__booleforcet.html" target="_top" xlink:title=" ">
<polygon fill="none" stroke="black" points="619,-180.5 619,-199.5 740,-199.5 740,-180.5 619,-180.5"/>
<text text-anchor="middle" x="679.5" y="-187.5" font-family="Helvetica,sans-Serif" font-size="10.00">satcheck_booleforcet</text>
</a>
</g>
</g>
<!-- Node12&#45;&gt;Node14 -->
<g id="edge13" class="edge">
<title>Node12&#45;&gt;Node14</title>
<path fill="none" stroke="midnightblue" d="M412.53,-202.74C473.15,-199.84 560.97,-195.63 618.88,-192.86"/>
<polygon fill="midnightblue" stroke="midnightblue" points="412.12,-199.26 402.3,-203.23 412.45,-206.25 412.12,-199.26"/>
</g>
<!-- Node16 -->
<g id="node16" class="node">
<title>Node16</title>
<g id="a_node16"><a xlink:href="classsatcheck__cadical__no__preprocessingt.html" target="_top" xlink:title=" ">
<polygon fill="none" stroke="black" points="621,-131 621,-161 738,-161 738,-131 621,-131"/>
<text text-anchor="start" x="629" y="-149" font-family="Helvetica,sans-Serif" font-size="10.00">satcheck_cadical_no</text>
<text text-anchor="middle" x="679.5" y="-138" font-family="Helvetica,sans-Serif" font-size="10.00">_preprocessingt</text>
</a>
</g>
</g>
<!-- Node15&#45;&gt;Node16 -->
<g id="edge15" class="edge">
<title>Node15&#45;&gt;Node16</title>
<path fill="none" stroke="midnightblue" d="M420.02,-158.38C480.98,-155.46 565.44,-151.42 621,-148.75"/>
<polygon fill="midnightblue" stroke="midnightblue" points="419.51,-154.9 409.69,-158.88 419.85,-161.89 419.51,-154.9"/>
</g>
<!-- Node17 -->
<g id="node17" class="node">
<title>Node17</title>
<g id="a_node17"><a xlink:href="classsatcheck__cadical__preprocessingt.html" target="_top" xlink:title=" ">
<polygon fill="none" stroke="black" points="591,-92.5 591,-111.5 768,-111.5 768,-92.5 591,-92.5"/>
<text text-anchor="middle" x="679.5" y="-99.5" font-family="Helvetica,sans-Serif" font-size="10.00">satcheck_cadical_preprocessingt</text>
</a>
</g>
</g>
<!-- Node15&#45;&gt;Node17 -->
<g id="edge16" class="edge">
<title>Node15&#45;&gt;Node17</title>
<path fill="none" stroke="midnightblue" d="M407.63,-150.66C470.64,-139.34 566.38,-122.14 625.55,-111.51"/>
<polygon fill="midnightblue" stroke="midnightblue" points="406.65,-147.28 397.42,-152.49 407.88,-154.17 406.65,-147.28"/>
</g>
<!-- Node18&#45;&gt;Node4 -->
<g id="edge18" class="edge">
<title>Node18&#45;&gt;Node4</title>
<path fill="none" stroke="orange" stroke-dasharray="5,2" d="M430.28,-422.79C486.76,-429.89 559.62,-439.05 611.77,-445.61"/>
<polygon fill="orange" stroke="orange" points="430.65,-419.31 420.29,-421.53 429.77,-426.25 430.65,-419.31"/>
<text text-anchor="middle" x="509.5" y="-443" font-family="Helvetica,sans-Serif" font-size="10.00"> &lt; Glucose::Solver &gt;</text>
</g>
<!-- Node18&#45;&gt;Node6 -->
<g id="edge19" class="edge">
<title>Node18&#45;&gt;Node6</title>
<path fill="none" stroke="orange" stroke-dasharray="5,2" d="M435.83,-405.71C490.57,-401.94 559.05,-397.23 609.3,-393.77"/>
<polygon fill="orange" stroke="orange" points="435.51,-402.22 425.78,-406.4 436,-409.21 435.51,-402.22"/>
<text text-anchor="middle" x="509.5" y="-407" font-family="Helvetica,sans-Serif" font-size="10.00"> &lt; Glucose::SimpSolver &gt;</text>
</g>
<!-- Node22 -->
<g id="node22" class="node">
<title>Node22</title>
<g id="a_node22"><a xlink:href="classsatcheck__minisat1t.html" target="_top" xlink:title=" ">
<polygon fill="none" stroke="black" points="623.5,-38.5 623.5,-57.5 735.5,-57.5 735.5,-38.5 623.5,-38.5"/>
<text text-anchor="middle" x="679.5" y="-45.5" font-family="Helvetica,sans-Serif" font-size="10.00">satcheck_minisat1t</text>
</a>
</g>
</g>
<!-- Node21&#45;&gt;Node22 -->
<g id="edge23" class="edge">
<title>Node21&#45;&gt;Node22</title>
<path fill="none" stroke="midnightblue" d="M423.77,-48C485.32,-48 569.06,-48 623.45,-48"/>
<polygon fill="midnightblue" stroke="midnightblue" points="423.71,-44.5 413.71,-48 423.7,-51.5 423.71,-44.5"/>
</g>
<!-- Node23 -->
<g id="node23" class="node">
<title>Node23</title>
<g id="a_node23"><a xlink:href="classsatcheck__minisat1__prooft.html" target="_top" xlink:title=" ">
<polygon fill="none" stroke="black" points="813,-38.5 813,-57.5 955,-57.5 955,-38.5 813,-38.5"/>
<text text-anchor="middle" x="884" y="-45.5" font-family="Helvetica,sans-Serif" font-size="10.00">satcheck_minisat1_prooft</text>
</a>
</g>
</g>
<!-- Node22&#45;&gt;Node23 -->
<g id="edge24" class="edge">
<title>Node22&#45;&gt;Node23</title>
<path fill="none" stroke="midnightblue" d="M745.83,-48C767.19,-48 790.99,-48 812.7,-48"/>
<polygon fill="midnightblue" stroke="midnightblue" points="745.57,-44.5 735.57,-48 745.57,-51.5 745.57,-44.5"/>
</g>
<!-- Node24 -->
<g id="node24" class="node">
<title>Node24</title>
<g id="a_node24"><a xlink:href="classsatcheck__minisat1__coret.html" target="_top" xlink:title=" ">
<polygon fill="none" stroke="black" points="1000,-38.5 1000,-57.5 1138,-57.5 1138,-38.5 1000,-38.5"/>
<text text-anchor="middle" x="1069" y="-45.5" font-family="Helvetica,sans-Serif" font-size="10.00">satcheck_minisat1_coret</text>
</a>
</g>
</g>
<!-- Node23&#45;&gt;Node24 -->
<g id="edge25" class="edge">
<title>Node23&#45;&gt;Node24</title>
<path fill="none" stroke="midnightblue" d="M965.26,-48C976.77,-48 988.52,-48 999.77,-48"/>
<polygon fill="midnightblue" stroke="midnightblue" points="965.23,-44.5 955.23,-48 965.23,-51.5 965.23,-44.5"/>
</g>
<!-- Node25&#45;&gt;Node8 -->
<g id="edge27" class="edge">
<title>Node25&#45;&gt;Node8</title>
<path fill="none" stroke="orange" stroke-dasharray="5,2" d="M434.18,-298.77C476.37,-304.1 527.34,-310.9 573,-318 584.77,-319.83 597.25,-321.93 609.34,-324.06"/>
<polygon fill="orange" stroke="orange" points="434.57,-295.29 424.21,-297.52 433.69,-302.24 434.57,-295.29"/>
<text text-anchor="middle" x="509.5" y="-321" font-family="Helvetica,sans-Serif" font-size="10.00"> &lt; Minisat::SimpSolver &gt;</text>
</g>
<!-- Node25&#45;&gt;Node10 -->
<g id="edge28" class="edge">
<title>Node25&#45;&gt;Node10</title>
<path fill="none" stroke="orange" stroke-dasharray="5,2" d="M438.27,-284.19C440.87,-284.12 443.45,-284.06 446,-284 500.88,-282.8 563.07,-282.59 609.31,-282.66"/>
<polygon fill="orange" stroke="orange" points="438.03,-280.69 428.13,-284.47 438.23,-287.69 438.03,-280.69"/>
<text text-anchor="middle" x="509.5" y="-287" font-family="Helvetica,sans-Serif" font-size="10.00"> &lt; Minisat::Solver &gt;</text>
</g>
</g>
</svg>
