<?xml version="1.0" encoding="UTF-8" standalone="no"?>
<!DOCTYPE svg PUBLIC "-//W3C//DTD SVG 1.1//EN"
 "http://www.w3.org/Graphics/SVG/1.1/DTD/svg11.dtd">
<!-- Generated by graphviz version 2.43.0 (0)
 -->
<!-- Title: /home/runner/work/cbmc/cbmc/src/goto&#45;instrument/contracts/dynamic&#45;frames/dfcc_loop_nesting_graph.h Pages: 1 -->
<svg width="459pt" height="239pt"
 viewBox="0.00 0.00 458.50 239.00" xmlns="http://www.w3.org/2000/svg" xmlns:xlink="http://www.w3.org/1999/xlink">
<g id="graph0" class="graph" transform="scale(1 1) rotate(0) translate(4 235)">
<title>/home/runner/work/cbmc/cbmc/src/goto&#45;instrument/contracts/dynamic&#45;frames/dfcc_loop_nesting_graph.h</title>
<!-- Node1 -->
<g id="node1" class="node">
<title>Node1</title>
<g id="a_node1"><a xlink:title="Builds a graph describing how loops are nested in a GOTO program.">
<polygon fill="#bfbfbf" stroke="black" points="135.5,-178.5 135.5,-230.5 284.5,-230.5 284.5,-178.5 135.5,-178.5"/>
<text text-anchor="start" x="143.5" y="-218.5" font-family="Helvetica,sans-Serif" font-size="10.00">/home/runner/work/cbmc</text>
<text text-anchor="start" x="143.5" y="-207.5" font-family="Helvetica,sans-Serif" font-size="10.00">/cbmc/src/goto&#45;instrument</text>
<text text-anchor="start" x="143.5" y="-196.5" font-family="Helvetica,sans-Serif" font-size="10.00">/contracts/dynamic&#45;frames</text>
<text text-anchor="middle" x="210" y="-185.5" font-family="Helvetica,sans-Serif" font-size="10.00">/dfcc_loop_nesting_graph.h</text>
</a>
</g>
</g>
<!-- Node2 -->
<g id="node2" class="node">
<title>Node2</title>
<g id="a_node2"><a xlink:href="dfcc__cfg__info_8cpp.html" target="_top" xlink:title=" ">
<polygon fill="none" stroke="black" points="0,-0.5 0,-52.5 148,-52.5 148,-0.5 0,-0.5"/>
<text text-anchor="start" x="8" y="-40.5" font-family="Helvetica,sans-Serif" font-size="10.00">/home/runner/work/cbmc</text>
<text text-anchor="start" x="8" y="-29.5" font-family="Helvetica,sans-Serif" font-size="10.00">/cbmc/src/goto&#45;instrument</text>
<text text-anchor="start" x="8" y="-18.5" font-family="Helvetica,sans-Serif" font-size="10.00">/contracts/dynamic&#45;frames</text>
<text text-anchor="middle" x="74" y="-7.5" font-family="Helvetica,sans-Serif" font-size="10.00">/dfcc_cfg_info.cpp</text>
</a>
</g>
</g>
<!-- Node1&#45;&gt;Node2 -->
<g id="edge1" class="edge">
<title>Node1&#45;&gt;Node2</title>
<path fill="none" stroke="midnightblue" d="M125.87,-181.95C106.31,-172.86 87.79,-160.03 76,-142 58.7,-115.54 62.12,-77.78 67.19,-52.96"/>
<polygon fill="midnightblue" stroke="midnightblue" points="124.64,-185.23 135.21,-185.99 127.42,-178.81 124.64,-185.23"/>
</g>
<!-- Node3 -->
<g id="node3" class="node">
<title>Node3</title>
<g id="a_node3"><a xlink:href="dfcc__infer__loop__assigns_8cpp.html" target="_top" xlink:title=" ">
<polygon fill="none" stroke="black" points="174,-0.5 174,-52.5 330,-52.5 330,-0.5 174,-0.5"/>
<text text-anchor="start" x="182" y="-40.5" font-family="Helvetica,sans-Serif" font-size="10.00">/home/runner/work/cbmc</text>
<text text-anchor="start" x="182" y="-29.5" font-family="Helvetica,sans-Serif" font-size="10.00">/cbmc/src/goto&#45;instrument</text>
<text text-anchor="start" x="182" y="-18.5" font-family="Helvetica,sans-Serif" font-size="10.00">/contracts/dynamic&#45;frames</text>
<text text-anchor="middle" x="252" y="-7.5" font-family="Helvetica,sans-Serif" font-size="10.00">/dfcc_infer_loop_assigns.cpp</text>
</a>
</g>
</g>
<!-- Node1&#45;&gt;Node3 -->
<g id="edge2" class="edge">
<title>Node1&#45;&gt;Node3</title>
<path fill="none" stroke="midnightblue" d="M230.75,-169.39C235.17,-160.73 239.31,-151.25 242,-142 250.71,-112.11 252.51,-76.13 252.6,-52.58"/>
<polygon fill="midnightblue" stroke="midnightblue" points="227.55,-167.95 225.91,-178.41 233.72,-171.26 227.55,-167.95"/>
</g>
<!-- Node4 -->
<g id="node4" class="node">
<title>Node4</title>
<g id="a_node4"><a xlink:href="dfcc__infer__loop__assigns_8h.html" target="_top" xlink:title="Infer a set of assigns clause targets for a natural loop.">
<polygon fill="none" stroke="black" points="85,-89.5 85,-141.5 233,-141.5 233,-89.5 85,-89.5"/>
<text text-anchor="start" x="93" y="-129.5" font-family="Helvetica,sans-Serif" font-size="10.00">/home/runner/work/cbmc</text>
<text text-anchor="start" x="93" y="-118.5" font-family="Helvetica,sans-Serif" font-size="10.00">/cbmc/src/goto&#45;instrument</text>
<text text-anchor="start" x="93" y="-107.5" font-family="Helvetica,sans-Serif" font-size="10.00">/contracts/dynamic&#45;frames</text>
<text text-anchor="middle" x="159" y="-96.5" font-family="Helvetica,sans-Serif" font-size="10.00">/dfcc_infer_loop_assigns.h</text>
</a>
</g>
</g>
<!-- Node1&#45;&gt;Node4 -->
<g id="edge3" class="edge">
<title>Node1&#45;&gt;Node4</title>
<path fill="none" stroke="midnightblue" d="M190.15,-169.64C184.68,-160.31 178.84,-150.35 173.72,-141.61"/>
<polygon fill="midnightblue" stroke="midnightblue" points="187.17,-171.48 195.25,-178.34 193.21,-167.94 187.17,-171.48"/>
</g>
<!-- Node5 -->
<g id="node5" class="node">
<title>Node5</title>
<g id="a_node5"><a xlink:href="dfcc__loop__nesting__graph_8cpp.html" target="_top" xlink:title=" ">
<polygon fill="none" stroke="black" points="289.5,-89.5 289.5,-141.5 450.5,-141.5 450.5,-89.5 289.5,-89.5"/>
<text text-anchor="start" x="297.5" y="-129.5" font-family="Helvetica,sans-Serif" font-size="10.00">/home/runner/work/cbmc</text>
<text text-anchor="start" x="297.5" y="-118.5" font-family="Helvetica,sans-Serif" font-size="10.00">/cbmc/src/goto&#45;instrument</text>
<text text-anchor="start" x="297.5" y="-107.5" font-family="Helvetica,sans-Serif" font-size="10.00">/contracts/dynamic&#45;frames</text>
<text text-anchor="middle" x="370" y="-96.5" font-family="Helvetica,sans-Serif" font-size="10.00">/dfcc_loop_nesting_graph.cpp</text>
</a>
</g>
</g>
<!-- Node1&#45;&gt;Node5 -->
<g id="edge6" class="edge">
<title>Node1&#45;&gt;Node5</title>
<path fill="none" stroke="midnightblue" d="M265.18,-173.49C284.3,-163.1 305.51,-151.57 323.83,-141.61"/>
<polygon fill="midnightblue" stroke="midnightblue" points="263.39,-170.48 256.28,-178.34 266.74,-176.63 263.39,-170.48"/>
</g>
<!-- Node4&#45;&gt;Node2 -->
<g id="edge4" class="edge">
<title>Node4&#45;&gt;Node2</title>
<path fill="none" stroke="midnightblue" d="M127.32,-82.08C117.8,-72.34 107.51,-61.8 98.53,-52.61"/>
<polygon fill="midnightblue" stroke="midnightblue" points="124.92,-84.63 134.41,-89.34 129.93,-79.74 124.92,-84.63"/>
</g>
<!-- Node4&#45;&gt;Node3 -->
<g id="edge5" class="edge">
<title>Node4&#45;&gt;Node3</title>
<path fill="none" stroke="midnightblue" d="M193.35,-82.36C203.85,-72.54 215.24,-61.89 225.16,-52.61"/>
<polygon fill="midnightblue" stroke="midnightblue" points="190.81,-79.95 185.9,-89.34 195.59,-85.06 190.81,-79.95"/>
</g>
</g>
</svg>
