<?xml version="1.0" encoding="UTF-8" standalone="no"?>
<!DOCTYPE svg PUBLIC "-//W3C//DTD SVG 1.1//EN"
 "http://www.w3.org/Graphics/SVG/1.1/DTD/svg11.dtd">
<!-- Generated by graphviz version 2.43.0 (0)
 -->
<!-- Title: /home/runner/work/cbmc/cbmc/src/analyses/goto_rw.h Pages: 1 -->
<svg width="1376pt" height="362pt"
 viewBox="0.00 0.00 1376.00 362.00" xmlns="http://www.w3.org/2000/svg" xmlns:xlink="http://www.w3.org/1999/xlink">
<g id="graph0" class="graph" transform="scale(1 1) rotate(0) translate(4 358)">
<title>/home/runner/work/cbmc/cbmc/src/analyses/goto_rw.h</title>
<!-- Node1 -->
<g id="node1" class="node">
<title>Node1</title>
<g id="a_node1"><a xlink:title=" ">
<polygon fill="#bfbfbf" stroke="black" points="553,-323.5 553,-353.5 713,-353.5 713,-323.5 553,-323.5"/>
<text text-anchor="start" x="561" y="-341.5" font-family="Helvetica,sans-Serif" font-size="10.00">/home/runner/work/cbmc</text>
<text text-anchor="middle" x="633" y="-330.5" font-family="Helvetica,sans-Serif" font-size="10.00">/cbmc/src/analyses/goto_rw.h</text>
</a>
</g>
</g>
<!-- Node2 -->
<g id="node2" class="node">
<title>Node2</title>
<g id="a_node2"><a xlink:href="dependence__graph_8cpp.html" target="_top" xlink:title="Field&#45;Sensitive Program Dependence Analysis, Litvak et al., FSE 2010.">
<polygon fill="none" stroke="black" points="0,-78.5 0,-119.5 172,-119.5 172,-78.5 0,-78.5"/>
<text text-anchor="start" x="8" y="-107.5" font-family="Helvetica,sans-Serif" font-size="10.00">/home/runner/work/cbmc</text>
<text text-anchor="start" x="8" y="-96.5" font-family="Helvetica,sans-Serif" font-size="10.00">/cbmc/src/analyses/dependence</text>
<text text-anchor="middle" x="86" y="-85.5" font-family="Helvetica,sans-Serif" font-size="10.00">_graph.cpp</text>
</a>
</g>
</g>
<!-- Node1&#45;&gt;Node2 -->
<g id="edge1" class="edge">
<title>Node1&#45;&gt;Node2</title>
<path fill="none" stroke="midnightblue" d="M571.95,-320.49C541.8,-311.52 505.11,-299.75 473,-287 340.19,-234.27 189.52,-155.79 122.03,-119.59"/>
<polygon fill="midnightblue" stroke="midnightblue" points="571.32,-323.95 581.9,-323.42 573.3,-317.24 571.32,-323.95"/>
</g>
<!-- Node3 -->
<g id="node3" class="node">
<title>Node3</title>
<g id="a_node3"><a xlink:href="goto__rw_8cpp.html" target="_top" xlink:title=" ">
<polygon fill="none" stroke="black" points="482,-240 482,-281 620,-281 620,-240 482,-240"/>
<text text-anchor="start" x="490" y="-269" font-family="Helvetica,sans-Serif" font-size="10.00">/home/runner/work/cbmc</text>
<text text-anchor="start" x="490" y="-258" font-family="Helvetica,sans-Serif" font-size="10.00">/cbmc/src/analyses/goto</text>
<text text-anchor="middle" x="551" y="-247" font-family="Helvetica,sans-Serif" font-size="10.00">_rw.cpp</text>
</a>
</g>
</g>
<!-- Node1&#45;&gt;Node3 -->
<g id="edge2" class="edge">
<title>Node1&#45;&gt;Node3</title>
<path fill="none" stroke="midnightblue" d="M610.19,-316.36C598.31,-305.35 583.88,-291.97 572.23,-281.18"/>
<polygon fill="midnightblue" stroke="midnightblue" points="607.86,-318.97 617.58,-323.2 612.62,-313.84 607.86,-318.97"/>
</g>
<!-- Node4 -->
<g id="node4" class="node">
<title>Node4</title>
<g id="a_node4"><a xlink:href="reaching__definitions_8h.html" target="_top" xlink:title="Range&#45;based reaching definitions analysis (following Field&#45; Sensitive Program Dependence Analysis,...">
<polygon fill="none" stroke="black" points="638.5,-240 638.5,-281 793.5,-281 793.5,-240 638.5,-240"/>
<text text-anchor="start" x="646.5" y="-269" font-family="Helvetica,sans-Serif" font-size="10.00">/home/runner/work/cbmc</text>
<text text-anchor="start" x="646.5" y="-258" font-family="Helvetica,sans-Serif" font-size="10.00">/cbmc/src/analyses/reaching</text>
<text text-anchor="middle" x="716" y="-247" font-family="Helvetica,sans-Serif" font-size="10.00">_definitions.h</text>
</a>
</g>
</g>
<!-- Node1&#45;&gt;Node4 -->
<g id="edge3" class="edge">
<title>Node1&#45;&gt;Node4</title>
<path fill="none" stroke="midnightblue" d="M656.08,-316.36C668.11,-305.35 682.72,-291.97 694.51,-281.18"/>
<polygon fill="midnightblue" stroke="midnightblue" points="653.62,-313.87 648.61,-323.2 658.35,-319.03 653.62,-313.87"/>
</g>
<!-- Node16 -->
<g id="node16" class="node">
<title>Node16</title>
<g id="a_node16"><a xlink:href="dfcc__infer__loop__assigns_8cpp.html" target="_top" xlink:title=" ">
<polygon fill="none" stroke="black" points="812,-234.5 812,-286.5 968,-286.5 968,-234.5 812,-234.5"/>
<text text-anchor="start" x="820" y="-274.5" font-family="Helvetica,sans-Serif" font-size="10.00">/home/runner/work/cbmc</text>
<text text-anchor="start" x="820" y="-263.5" font-family="Helvetica,sans-Serif" font-size="10.00">/cbmc/src/goto&#45;instrument</text>
<text text-anchor="start" x="820" y="-252.5" font-family="Helvetica,sans-Serif" font-size="10.00">/contracts/dynamic&#45;frames</text>
<text text-anchor="middle" x="890" y="-241.5" font-family="Helvetica,sans-Serif" font-size="10.00">/dfcc_infer_loop_assigns.cpp</text>
</a>
</g>
</g>
<!-- Node1&#45;&gt;Node16 -->
<g id="edge17" class="edge">
<title>Node1&#45;&gt;Node16</title>
<path fill="none" stroke="midnightblue" d="M690.23,-320.58C726.03,-309.99 772.62,-296.21 811.8,-284.63"/>
<polygon fill="midnightblue" stroke="midnightblue" points="689.03,-317.28 680.44,-323.47 691.02,-323.99 689.03,-317.28"/>
</g>
<!-- Node5 -->
<g id="node5" class="node">
<title>Node5</title>
<g id="a_node5"><a xlink:href="dependence__graph_8h.html" target="_top" xlink:title="Field&#45;Sensitive Program Dependence Analysis, Litvak et al., FSE 2010.">
<polygon fill="none" stroke="black" points="573,-156.5 573,-197.5 745,-197.5 745,-156.5 573,-156.5"/>
<text text-anchor="start" x="581" y="-185.5" font-family="Helvetica,sans-Serif" font-size="10.00">/home/runner/work/cbmc</text>
<text text-anchor="start" x="581" y="-174.5" font-family="Helvetica,sans-Serif" font-size="10.00">/cbmc/src/analyses/dependence</text>
<text text-anchor="middle" x="659" y="-163.5" font-family="Helvetica,sans-Serif" font-size="10.00">_graph.h</text>
</a>
</g>
</g>
<!-- Node4&#45;&gt;Node5 -->
<g id="edge4" class="edge">
<title>Node4&#45;&gt;Node5</title>
<path fill="none" stroke="midnightblue" d="M696.46,-231.55C688.63,-220.36 679.79,-207.73 672.67,-197.55"/>
<polygon fill="midnightblue" stroke="midnightblue" points="693.6,-233.58 702.2,-239.77 699.34,-229.57 693.6,-233.58"/>
</g>
<!-- Node12 -->
<g id="node12" class="node">
<title>Node12</title>
<g id="a_node12"><a xlink:href="goto__instrument__parse__options_8cpp.html" target="_top" xlink:title="Main Module.">
<polygon fill="none" stroke="black" points="1174,-78.5 1174,-119.5 1368,-119.5 1368,-78.5 1174,-78.5"/>
<text text-anchor="start" x="1182" y="-107.5" font-family="Helvetica,sans-Serif" font-size="10.00">/home/runner/work/cbmc</text>
<text text-anchor="start" x="1182" y="-96.5" font-family="Helvetica,sans-Serif" font-size="10.00">/cbmc/src/goto&#45;instrument</text>
<text text-anchor="middle" x="1271" y="-85.5" font-family="Helvetica,sans-Serif" font-size="10.00">/goto_instrument_parse_options.cpp</text>
</a>
</g>
</g>
<!-- Node4&#45;&gt;Node12 -->
<g id="edge16" class="edge">
<title>Node4&#45;&gt;Node12</title>
<path fill="none" stroke="midnightblue" d="M733.29,-231.25C750.72,-203.76 777.25,-164.89 793,-156 865.33,-115.18 1082.78,-131.71 1165,-120 1167.87,-119.59 1170.79,-119.16 1173.73,-118.71"/>
<polygon fill="midnightblue" stroke="midnightblue" points="730.32,-229.39 727.97,-239.72 736.25,-233.11 730.32,-229.39"/>
</g>
<!-- Node15 -->
<g id="node15" class="node">
<title>Node15</title>
<g id="a_node15"><a xlink:href="reaching__definitions_8cpp.html" target="_top" xlink:title="Range&#45;based reaching definitions analysis (following Field&#45; Sensitive Program Dependence Analysis,...">
<polygon fill="none" stroke="black" points="801.5,-156.5 801.5,-197.5 956.5,-197.5 956.5,-156.5 801.5,-156.5"/>
<text text-anchor="start" x="809.5" y="-185.5" font-family="Helvetica,sans-Serif" font-size="10.00">/home/runner/work/cbmc</text>
<text text-anchor="start" x="809.5" y="-174.5" font-family="Helvetica,sans-Serif" font-size="10.00">/cbmc/src/analyses/reaching</text>
<text text-anchor="middle" x="879" y="-163.5" font-family="Helvetica,sans-Serif" font-size="10.00">_definitions.cpp</text>
</a>
</g>
</g>
<!-- Node4&#45;&gt;Node15 -->
<g id="edge15" class="edge">
<title>Node4&#45;&gt;Node15</title>
<path fill="none" stroke="midnightblue" d="M764.06,-235.47C788.25,-223.37 817.2,-208.9 839.99,-197.5"/>
<polygon fill="midnightblue" stroke="midnightblue" points="762.42,-232.38 755.04,-239.98 765.55,-238.64 762.42,-232.38"/>
</g>
<!-- Node5&#45;&gt;Node2 -->
<g id="edge5" class="edge">
<title>Node5&#45;&gt;Node2</title>
<path fill="none" stroke="midnightblue" d="M562.69,-167.31C465.9,-157.97 312.61,-141.52 181,-120 178.09,-119.52 175.13,-119.02 172.15,-118.49"/>
<polygon fill="midnightblue" stroke="midnightblue" points="562.47,-170.81 572.75,-168.28 563.13,-163.84 562.47,-170.81"/>
</g>
<!-- Node6 -->
<g id="node6" class="node">
<title>Node6</title>
<g id="a_node6"><a xlink:href="build__analyzer_8cpp.html" target="_top" xlink:title=" ">
<polygon fill="none" stroke="black" points="190,-78.5 190,-119.5 328,-119.5 328,-78.5 190,-78.5"/>
<text text-anchor="start" x="198" y="-107.5" font-family="Helvetica,sans-Serif" font-size="10.00">/home/runner/work/cbmc</text>
<text text-anchor="start" x="198" y="-96.5" font-family="Helvetica,sans-Serif" font-size="10.00">/cbmc/src/goto&#45;analyzer</text>
<text text-anchor="middle" x="259" y="-85.5" font-family="Helvetica,sans-Serif" font-size="10.00">/build_analyzer.cpp</text>
</a>
</g>
</g>
<!-- Node5&#45;&gt;Node6 -->
<g id="edge6" class="edge">
<title>Node5&#45;&gt;Node6</title>
<path fill="none" stroke="midnightblue" d="M562.77,-161.3C498.58,-150.99 412.43,-136.2 337,-120 334.13,-119.38 331.21,-118.73 328.26,-118.06"/>
<polygon fill="midnightblue" stroke="midnightblue" points="562.46,-164.79 572.88,-162.91 563.56,-157.88 562.46,-164.79"/>
</g>
<!-- Node7 -->
<g id="node7" class="node">
<title>Node7</title>
<g id="a_node7"><a xlink:href="static__show__domain_8cpp.html" target="_top" xlink:title=" ">
<polygon fill="none" stroke="black" points="346,-78.5 346,-119.5 486,-119.5 486,-78.5 346,-78.5"/>
<text text-anchor="start" x="354" y="-107.5" font-family="Helvetica,sans-Serif" font-size="10.00">/home/runner/work/cbmc</text>
<text text-anchor="start" x="354" y="-96.5" font-family="Helvetica,sans-Serif" font-size="10.00">/cbmc/src/goto&#45;analyzer</text>
<text text-anchor="middle" x="416" y="-85.5" font-family="Helvetica,sans-Serif" font-size="10.00">/static_show_domain.cpp</text>
</a>
</g>
</g>
<!-- Node5&#45;&gt;Node7 -->
<g id="edge7" class="edge">
<title>Node5&#45;&gt;Node7</title>
<path fill="none" stroke="midnightblue" d="M586.87,-153.44C552.38,-142.66 511.5,-129.87 478.37,-119.51"/>
<polygon fill="midnightblue" stroke="midnightblue" points="585.83,-156.78 596.42,-156.43 587.92,-150.1 585.83,-156.78"/>
</g>
<!-- Node8 -->
<g id="node8" class="node">
<title>Node8</title>
<g id="a_node8"><a xlink:href="change__impact_8cpp.html" target="_top" xlink:title="Data and control&#45;dependencies of syntactic diff.">
<polygon fill="none" stroke="black" points="504,-78.5 504,-119.5 650,-119.5 650,-78.5 504,-78.5"/>
<text text-anchor="start" x="512" y="-107.5" font-family="Helvetica,sans-Serif" font-size="10.00">/home/runner/work/cbmc</text>
<text text-anchor="start" x="512" y="-96.5" font-family="Helvetica,sans-Serif" font-size="10.00">/cbmc/src/goto&#45;diff/change</text>
<text text-anchor="middle" x="577" y="-85.5" font-family="Helvetica,sans-Serif" font-size="10.00">_impact.cpp</text>
</a>
</g>
</g>
<!-- Node5&#45;&gt;Node8 -->
<g id="edge8" class="edge">
<title>Node5&#45;&gt;Node8</title>
<path fill="none" stroke="midnightblue" d="M630.4,-149.49C619.76,-139.63 607.89,-128.63 598.05,-119.51"/>
<polygon fill="midnightblue" stroke="midnightblue" points="628.17,-152.2 637.88,-156.43 632.93,-147.06 628.17,-152.2"/>
</g>
<!-- Node9 -->
<g id="node9" class="node">
<title>Node9</title>
<g id="a_node9"><a xlink:href="full__slicer__class_8h.html" target="_top" xlink:title="Goto Program Slicing.">
<polygon fill="none" stroke="black" points="668.5,-78.5 668.5,-119.5 813.5,-119.5 813.5,-78.5 668.5,-78.5"/>
<text text-anchor="start" x="676.5" y="-107.5" font-family="Helvetica,sans-Serif" font-size="10.00">/home/runner/work/cbmc</text>
<text text-anchor="start" x="676.5" y="-96.5" font-family="Helvetica,sans-Serif" font-size="10.00">/cbmc/src/goto&#45;instrument</text>
<text text-anchor="middle" x="741" y="-85.5" font-family="Helvetica,sans-Serif" font-size="10.00">/full_slicer_class.h</text>
</a>
</g>
</g>
<!-- Node5&#45;&gt;Node9 -->
<g id="edge9" class="edge">
<title>Node5&#45;&gt;Node9</title>
<path fill="none" stroke="midnightblue" d="M687.6,-149.49C698.24,-139.63 710.11,-128.63 719.95,-119.51"/>
<polygon fill="midnightblue" stroke="midnightblue" points="685.07,-147.06 680.12,-156.43 689.83,-152.2 685.07,-147.06"/>
</g>
<!-- Node5&#45;&gt;Node12 -->
<g id="edge12" class="edge">
<title>Node5&#45;&gt;Node12</title>
<path fill="none" stroke="midnightblue" d="M755.13,-156.57C756.43,-156.37 757.72,-156.18 759,-156 938.31,-130.2 985.56,-144.82 1165,-120 1167.88,-119.6 1170.79,-119.18 1173.73,-118.74"/>
<polygon fill="midnightblue" stroke="midnightblue" points="754.41,-153.14 745.08,-158.16 755.51,-160.05 754.41,-153.14"/>
</g>
<!-- Node13 -->
<g id="node13" class="node">
<title>Node13</title>
<g id="a_node13"><a xlink:href="cegis__verifier_8cpp.html" target="_top" xlink:title="Verifier for Counterexample&#45;Guided Synthesis.">
<polygon fill="none" stroke="black" points="832,-78.5 832,-119.5 980,-119.5 980,-78.5 832,-78.5"/>
<text text-anchor="start" x="840" y="-107.5" font-family="Helvetica,sans-Serif" font-size="10.00">/home/runner/work/cbmc</text>
<text text-anchor="start" x="840" y="-96.5" font-family="Helvetica,sans-Serif" font-size="10.00">/cbmc/src/goto&#45;synthesizer</text>
<text text-anchor="middle" x="906" y="-85.5" font-family="Helvetica,sans-Serif" font-size="10.00">/cegis_verifier.cpp</text>
</a>
</g>
</g>
<!-- Node5&#45;&gt;Node13 -->
<g id="edge13" class="edge">
<title>Node5&#45;&gt;Node13</title>
<path fill="none" stroke="midnightblue" d="M732.31,-153.44C767.37,-142.66 808.93,-129.87 842.61,-119.51"/>
<polygon fill="midnightblue" stroke="midnightblue" points="731.14,-150.14 722.61,-156.43 733.2,-156.83 731.14,-150.14"/>
</g>
<!-- Node14 -->
<g id="node14" class="node">
<title>Node14</title>
<g id="a_node14"><a xlink:href="janalyzer__parse__options_8cpp.html" target="_top" xlink:title="JANALYZER Command Line Option Processing.">
<polygon fill="none" stroke="black" points="998,-78.5 998,-119.5 1156,-119.5 1156,-78.5 998,-78.5"/>
<text text-anchor="start" x="1006" y="-107.5" font-family="Helvetica,sans-Serif" font-size="10.00">/home/runner/work/cbmc</text>
<text text-anchor="start" x="1006" y="-96.5" font-family="Helvetica,sans-Serif" font-size="10.00">/cbmc/jbmc/src/janalyzer</text>
<text text-anchor="middle" x="1077" y="-85.5" font-family="Helvetica,sans-Serif" font-size="10.00">/janalyzer_parse_options.cpp</text>
</a>
</g>
</g>
<!-- Node5&#45;&gt;Node14 -->
<g id="edge14" class="edge">
<title>Node5&#45;&gt;Node14</title>
<path fill="none" stroke="midnightblue" d="M755.15,-156.69C756.44,-156.46 757.73,-156.23 759,-156 860.86,-137.85 887.38,-139.48 989,-120 991.92,-119.44 994.9,-118.85 997.9,-118.25"/>
<polygon fill="midnightblue" stroke="midnightblue" points="754.34,-153.28 745.14,-158.53 755.61,-160.17 754.34,-153.28"/>
</g>
<!-- Node10 -->
<g id="node10" class="node">
<title>Node10</title>
<g id="a_node10"><a xlink:href="full__slicer_8cpp.html" target="_top" xlink:title="Slicing.">
<polygon fill="none" stroke="black" points="586.5,-0.5 586.5,-41.5 731.5,-41.5 731.5,-0.5 586.5,-0.5"/>
<text text-anchor="start" x="594.5" y="-29.5" font-family="Helvetica,sans-Serif" font-size="10.00">/home/runner/work/cbmc</text>
<text text-anchor="start" x="594.5" y="-18.5" font-family="Helvetica,sans-Serif" font-size="10.00">/cbmc/src/goto&#45;instrument</text>
<text text-anchor="middle" x="659" y="-7.5" font-family="Helvetica,sans-Serif" font-size="10.00">/full_slicer.cpp</text>
</a>
</g>
</g>
<!-- Node9&#45;&gt;Node10 -->
<g id="edge10" class="edge">
<title>Node9&#45;&gt;Node10</title>
<path fill="none" stroke="midnightblue" d="M712.4,-71.49C701.76,-61.63 689.89,-50.63 680.05,-41.51"/>
<polygon fill="midnightblue" stroke="midnightblue" points="710.17,-74.2 719.88,-78.43 714.93,-69.06 710.17,-74.2"/>
</g>
<!-- Node11 -->
<g id="node11" class="node">
<title>Node11</title>
<g id="a_node11"><a xlink:href="reachability__slicer_8cpp.html" target="_top" xlink:title="Reachability Slicer Consider the control flow graph of the goto program and a criterion,...">
<polygon fill="none" stroke="black" points="749.5,-0.5 749.5,-41.5 894.5,-41.5 894.5,-0.5 749.5,-0.5"/>
<text text-anchor="start" x="757.5" y="-29.5" font-family="Helvetica,sans-Serif" font-size="10.00">/home/runner/work/cbmc</text>
<text text-anchor="start" x="757.5" y="-18.5" font-family="Helvetica,sans-Serif" font-size="10.00">/cbmc/src/goto&#45;instrument</text>
<text text-anchor="middle" x="822" y="-7.5" font-family="Helvetica,sans-Serif" font-size="10.00">/reachability_slicer.cpp</text>
</a>
</g>
</g>
<!-- Node9&#45;&gt;Node11 -->
<g id="edge11" class="edge">
<title>Node9&#45;&gt;Node11</title>
<path fill="none" stroke="midnightblue" d="M769.25,-71.49C779.76,-61.63 791.49,-50.63 801.21,-41.51"/>
<polygon fill="midnightblue" stroke="midnightblue" points="766.76,-69.03 761.86,-78.43 771.55,-74.14 766.76,-69.03"/>
</g>
</g>
</svg>
