<?xml version="1.0" encoding="UTF-8" standalone="no"?>
<!DOCTYPE svg PUBLIC "-//W3C//DTD SVG 1.1//EN"
 "http://www.w3.org/Graphics/SVG/1.1/DTD/svg11.dtd">
<!-- Generated by graphviz version 2.43.0 (0)
 -->
<!-- Title: /home/runner/work/cbmc/cbmc/src/goto&#45;programs/goto_inline.h Pages: 1 -->
<svg width="1524pt" height="139pt"
 viewBox="0.00 0.00 1524.00 139.00" xmlns="http://www.w3.org/2000/svg" xmlns:xlink="http://www.w3.org/1999/xlink">
<g id="graph0" class="graph" transform="scale(1 1) rotate(0) translate(4 135)">
<title>/home/runner/work/cbmc/cbmc/src/goto&#45;programs/goto_inline.h</title>
<!-- Node1 -->
<g id="node1" class="node">
<title>Node1</title>
<g id="a_node1"><a xlink:title="Function Inlining This gives a number of different interfaces to the function inlining functionality ...">
<polygon fill="#bfbfbf" stroke="black" points="669.5,-89.5 669.5,-130.5 807.5,-130.5 807.5,-89.5 669.5,-89.5"/>
<text text-anchor="start" x="677.5" y="-118.5" font-family="Helvetica,sans-Serif" font-size="10.00">/home/runner/work/cbmc</text>
<text text-anchor="start" x="677.5" y="-107.5" font-family="Helvetica,sans-Serif" font-size="10.00">/cbmc/src/goto&#45;programs</text>
<text text-anchor="middle" x="738.5" y="-96.5" font-family="Helvetica,sans-Serif" font-size="10.00">/goto_inline.h</text>
</a>
</g>
</g>
<!-- Node2 -->
<g id="node2" class="node">
<title>Node2</title>
<g id="a_node2"><a xlink:href="cprover__parse__options_8cpp.html" target="_top" xlink:title="cprover Command Line Options Processing">
<polygon fill="none" stroke="black" points="0,-6 0,-47 143,-47 143,-6 0,-6"/>
<text text-anchor="start" x="8" y="-35" font-family="Helvetica,sans-Serif" font-size="10.00">/home/runner/work/cbmc</text>
<text text-anchor="start" x="8" y="-24" font-family="Helvetica,sans-Serif" font-size="10.00">/cbmc/src/cprover/cprover</text>
<text text-anchor="middle" x="71.5" y="-13" font-family="Helvetica,sans-Serif" font-size="10.00">_parse_options.cpp</text>
</a>
</g>
</g>
<!-- Node1&#45;&gt;Node2 -->
<g id="edge1" class="edge">
<title>Node1&#45;&gt;Node2</title>
<path fill="none" stroke="midnightblue" d="M659.11,-106.79C545.54,-102.42 330.63,-89.66 151.5,-53 143.65,-51.39 135.47,-49.3 127.48,-47"/>
<polygon fill="midnightblue" stroke="midnightblue" points="658.99,-110.29 669.11,-107.16 659.25,-103.29 658.99,-110.29"/>
</g>
<!-- Node3 -->
<g id="node3" class="node">
<title>Node3</title>
<g id="a_node3"><a xlink:href="contracts_8cpp.html" target="_top" xlink:title="Verify and use annotated loop and function contracts.">
<polygon fill="none" stroke="black" points="161,-6 161,-47 306,-47 306,-6 161,-6"/>
<text text-anchor="start" x="169" y="-35" font-family="Helvetica,sans-Serif" font-size="10.00">/home/runner/work/cbmc</text>
<text text-anchor="start" x="169" y="-24" font-family="Helvetica,sans-Serif" font-size="10.00">/cbmc/src/goto&#45;instrument</text>
<text text-anchor="middle" x="233.5" y="-13" font-family="Helvetica,sans-Serif" font-size="10.00">/contracts/contracts.cpp</text>
</a>
</g>
</g>
<!-- Node1&#45;&gt;Node3 -->
<g id="edge2" class="edge">
<title>Node1&#45;&gt;Node3</title>
<path fill="none" stroke="midnightblue" d="M659.22,-102.56C573.69,-94.67 433.86,-79.04 315.5,-53 307.93,-51.33 300.05,-49.29 292.3,-47.1"/>
<polygon fill="midnightblue" stroke="midnightblue" points="659.1,-106.06 669.37,-103.48 659.73,-99.09 659.1,-106.06"/>
</g>
<!-- Node4 -->
<g id="node4" class="node">
<title>Node4</title>
<g id="a_node4"><a xlink:href="dfcc_8cpp.html" target="_top" xlink:title=" ">
<polygon fill="none" stroke="black" points="324.5,-0.5 324.5,-52.5 472.5,-52.5 472.5,-0.5 324.5,-0.5"/>
<text text-anchor="start" x="332.5" y="-40.5" font-family="Helvetica,sans-Serif" font-size="10.00">/home/runner/work/cbmc</text>
<text text-anchor="start" x="332.5" y="-29.5" font-family="Helvetica,sans-Serif" font-size="10.00">/cbmc/src/goto&#45;instrument</text>
<text text-anchor="start" x="332.5" y="-18.5" font-family="Helvetica,sans-Serif" font-size="10.00">/contracts/dynamic&#45;frames</text>
<text text-anchor="middle" x="398.5" y="-7.5" font-family="Helvetica,sans-Serif" font-size="10.00">/dfcc.cpp</text>
</a>
</g>
</g>
<!-- Node1&#45;&gt;Node4 -->
<g id="edge3" class="edge">
<title>Node1&#45;&gt;Node4</title>
<path fill="none" stroke="midnightblue" d="M659.43,-93.55C608.4,-83.14 540.72,-68.52 481.5,-53 478.58,-52.24 475.62,-51.44 472.62,-50.61"/>
<polygon fill="midnightblue" stroke="midnightblue" points="658.91,-97.02 669.41,-95.58 660.3,-90.16 658.91,-97.02"/>
</g>
<!-- Node5 -->
<g id="node5" class="node">
<title>Node5</title>
<g id="a_node5"><a xlink:href="dfcc__infer__loop__assigns_8cpp.html" target="_top" xlink:title=" ">
<polygon fill="none" stroke="black" points="490.5,-0.5 490.5,-52.5 646.5,-52.5 646.5,-0.5 490.5,-0.5"/>
<text text-anchor="start" x="498.5" y="-40.5" font-family="Helvetica,sans-Serif" font-size="10.00">/home/runner/work/cbmc</text>
<text text-anchor="start" x="498.5" y="-29.5" font-family="Helvetica,sans-Serif" font-size="10.00">/cbmc/src/goto&#45;instrument</text>
<text text-anchor="start" x="498.5" y="-18.5" font-family="Helvetica,sans-Serif" font-size="10.00">/contracts/dynamic&#45;frames</text>
<text text-anchor="middle" x="568.5" y="-7.5" font-family="Helvetica,sans-Serif" font-size="10.00">/dfcc_infer_loop_assigns.cpp</text>
</a>
</g>
</g>
<!-- Node1&#45;&gt;Node5 -->
<g id="edge4" class="edge">
<title>Node1&#45;&gt;Node5</title>
<path fill="none" stroke="midnightblue" d="M688.57,-85.07C667.26,-74.85 642.38,-62.92 620.81,-52.58"/>
<polygon fill="midnightblue" stroke="midnightblue" points="687.25,-88.31 697.78,-89.48 690.28,-82 687.25,-88.31"/>
</g>
<!-- Node6 -->
<g id="node6" class="node">
<title>Node6</title>
<g id="a_node6"><a xlink:href="dfcc__swap__and__wrap_8cpp.html" target="_top" xlink:title=" ">
<polygon fill="none" stroke="black" points="664.5,-0.5 664.5,-52.5 812.5,-52.5 812.5,-0.5 664.5,-0.5"/>
<text text-anchor="start" x="672.5" y="-40.5" font-family="Helvetica,sans-Serif" font-size="10.00">/home/runner/work/cbmc</text>
<text text-anchor="start" x="672.5" y="-29.5" font-family="Helvetica,sans-Serif" font-size="10.00">/cbmc/src/goto&#45;instrument</text>
<text text-anchor="start" x="672.5" y="-18.5" font-family="Helvetica,sans-Serif" font-size="10.00">/contracts/dynamic&#45;frames</text>
<text text-anchor="middle" x="738.5" y="-7.5" font-family="Helvetica,sans-Serif" font-size="10.00">/dfcc_swap_and_wrap.cpp</text>
</a>
</g>
</g>
<!-- Node1&#45;&gt;Node6 -->
<g id="edge5" class="edge">
<title>Node1&#45;&gt;Node6</title>
<path fill="none" stroke="midnightblue" d="M738.5,-79.12C738.5,-70.41 738.5,-60.99 738.5,-52.61"/>
<polygon fill="midnightblue" stroke="midnightblue" points="735,-79.27 738.5,-89.27 742,-79.27 735,-79.27"/>
</g>
<!-- Node7 -->
<g id="node7" class="node">
<title>Node7</title>
<g id="a_node7"><a xlink:href="dfcc__utils_8cpp.html" target="_top" xlink:title=" ">
<polygon fill="none" stroke="black" points="830.5,-0.5 830.5,-52.5 978.5,-52.5 978.5,-0.5 830.5,-0.5"/>
<text text-anchor="start" x="838.5" y="-40.5" font-family="Helvetica,sans-Serif" font-size="10.00">/home/runner/work/cbmc</text>
<text text-anchor="start" x="838.5" y="-29.5" font-family="Helvetica,sans-Serif" font-size="10.00">/cbmc/src/goto&#45;instrument</text>
<text text-anchor="start" x="838.5" y="-18.5" font-family="Helvetica,sans-Serif" font-size="10.00">/contracts/dynamic&#45;frames</text>
<text text-anchor="middle" x="904.5" y="-7.5" font-family="Helvetica,sans-Serif" font-size="10.00">/dfcc_utils.cpp</text>
</a>
</g>
</g>
<!-- Node1&#45;&gt;Node7 -->
<g id="edge6" class="edge">
<title>Node1&#45;&gt;Node7</title>
<path fill="none" stroke="midnightblue" d="M787.25,-85.07C808.06,-74.85 832.36,-62.92 853.42,-52.58"/>
<polygon fill="midnightblue" stroke="midnightblue" points="785.7,-81.93 778.26,-89.48 788.78,-88.21 785.7,-81.93"/>
</g>
<!-- Node8 -->
<g id="node8" class="node">
<title>Node8</title>
<g id="a_node8"><a xlink:href="goto__instrument__parse__options_8cpp.html" target="_top" xlink:title="Main Module.">
<polygon fill="none" stroke="black" points="996.5,-6 996.5,-47 1190.5,-47 1190.5,-6 996.5,-6"/>
<text text-anchor="start" x="1004.5" y="-35" font-family="Helvetica,sans-Serif" font-size="10.00">/home/runner/work/cbmc</text>
<text text-anchor="start" x="1004.5" y="-24" font-family="Helvetica,sans-Serif" font-size="10.00">/cbmc/src/goto&#45;instrument</text>
<text text-anchor="middle" x="1093.5" y="-13" font-family="Helvetica,sans-Serif" font-size="10.00">/goto_instrument_parse_options.cpp</text>
</a>
</g>
</g>
<!-- Node1&#45;&gt;Node8 -->
<g id="edge7" class="edge">
<title>Node1&#45;&gt;Node8</title>
<path fill="none" stroke="midnightblue" d="M817.43,-91.56C866.43,-80.66 930.67,-66.22 987.5,-53 995.7,-51.09 1004.26,-49.07 1012.79,-47.05"/>
<polygon fill="midnightblue" stroke="midnightblue" points="816.53,-88.18 807.53,-93.76 818.05,-95.01 816.53,-88.18"/>
</g>
<!-- Node9 -->
<g id="node9" class="node">
<title>Node9</title>
<g id="a_node9"><a xlink:href="goto__inline_8cpp.html" target="_top" xlink:title="Function Inlining.">
<polygon fill="none" stroke="black" points="1208.5,-6 1208.5,-47 1346.5,-47 1346.5,-6 1208.5,-6"/>
<text text-anchor="start" x="1216.5" y="-35" font-family="Helvetica,sans-Serif" font-size="10.00">/home/runner/work/cbmc</text>
<text text-anchor="start" x="1216.5" y="-24" font-family="Helvetica,sans-Serif" font-size="10.00">/cbmc/src/goto&#45;programs</text>
<text text-anchor="middle" x="1277.5" y="-13" font-family="Helvetica,sans-Serif" font-size="10.00">/goto_inline.cpp</text>
</a>
</g>
</g>
<!-- Node1&#45;&gt;Node9 -->
<g id="edge8" class="edge">
<title>Node1&#45;&gt;Node9</title>
<path fill="none" stroke="midnightblue" d="M817.67,-104.1C910.14,-97.29 1067.31,-82.34 1199.5,-53 1206.87,-51.36 1214.53,-49.31 1222.05,-47.09"/>
<polygon fill="midnightblue" stroke="midnightblue" points="817.27,-100.62 807.55,-104.83 817.78,-107.6 817.27,-100.62"/>
</g>
<!-- Node10 -->
<g id="node10" class="node">
<title>Node10</title>
<g id="a_node10"><a xlink:href="process__goto__program_8cpp.html" target="_top" xlink:title="Get a Goto Program.">
<polygon fill="none" stroke="black" points="1365,-6 1365,-47 1516,-47 1516,-6 1365,-6"/>
<text text-anchor="start" x="1373" y="-35" font-family="Helvetica,sans-Serif" font-size="10.00">/home/runner/work/cbmc</text>
<text text-anchor="start" x="1373" y="-24" font-family="Helvetica,sans-Serif" font-size="10.00">/cbmc/src/goto&#45;programs</text>
<text text-anchor="middle" x="1440.5" y="-13" font-family="Helvetica,sans-Serif" font-size="10.00">/process_goto_program.cpp</text>
</a>
</g>
</g>
<!-- Node1&#45;&gt;Node10 -->
<g id="edge9" class="edge">
<title>Node1&#45;&gt;Node10</title>
<path fill="none" stroke="midnightblue" d="M817.65,-106.89C935.75,-102.61 1164.64,-89.9 1355.5,-53 1363.67,-51.42 1372.17,-49.37 1380.51,-47.12"/>
<polygon fill="midnightblue" stroke="midnightblue" points="817.48,-103.4 807.61,-107.25 817.73,-110.39 817.48,-103.4"/>
</g>
</g>
</svg>
