<?xml version="1.0" encoding="UTF-8" standalone="no"?>
<!DOCTYPE svg PUBLIC "-//W3C//DTD SVG 1.1//EN"
 "http://www.w3.org/Graphics/SVG/1.1/DTD/svg11.dtd">
<!-- Generated by graphviz version 2.43.0 (0)
 -->
<!-- Title: Graphical Class Hierarchy Pages: 1 -->
<svg width="1173pt" height="682pt"
 viewBox="0.00 0.00 1173.00 682.00" xmlns="http://www.w3.org/2000/svg" xmlns:xlink="http://www.w3.org/1999/xlink">
<g id="graph0" class="graph" transform="scale(1 1) rotate(0) translate(4 678)">
<title>Graphical Class Hierarchy</title>
<!-- Node0 -->
<g id="node1" class="node">
<title>Node0</title>
<g id="a_node1"><a xlink:href="classhardness__collectort.html" target="_top" xlink:title=" ">
<polygon fill="none" stroke="black" points="149,-345.5 149,-364.5 261,-364.5 261,-345.5 149,-345.5"/>
<text text-anchor="middle" x="205" y="-352.5" font-family="Helvetica,sans-Serif" font-size="10.00">hardness_collectort</text>
</a>
</g>
</g>
<!-- Node1 -->
<g id="node2" class="node">
<title>Node1</title>
<g id="a_node2"><a xlink:href="classsatcheck__glucose__baset.html" target="_top" xlink:title=" ">
<polygon fill="none" stroke="black" points="314,-277 314,-307 449,-307 449,-277 314,-277"/>
<text text-anchor="start" x="322" y="-295" font-family="Helvetica,sans-Serif" font-size="10.00">satcheck_glucose_baset</text>
<text text-anchor="middle" x="381.5" y="-284" font-family="Helvetica,sans-Serif" font-size="10.00">&lt; Glucose::Solver &gt;</text>
</a>
</g>
</g>
<!-- Node0&#45;&gt;Node1 -->
<g id="edge1" class="edge">
<title>Node0&#45;&gt;Node1</title>
<path fill="none" stroke="midnightblue" d="M236.27,-341.42C253.82,-333.79 276.46,-324.34 297,-317 306.69,-313.54 317.12,-310.15 327.22,-307.04"/>
<polygon fill="midnightblue" stroke="midnightblue" points="234.83,-338.23 227.08,-345.46 237.65,-344.64 234.83,-338.23"/>
</g>
<!-- Node3 -->
<g id="node4" class="node">
<title>Node3</title>
<g id="a_node4"><a xlink:href="classsatcheck__glucose__baset.html" target="_top" xlink:title=" ">
<polygon fill="none" stroke="black" points="311.5,-228 311.5,-258 451.5,-258 451.5,-228 311.5,-228"/>
<text text-anchor="start" x="319.5" y="-246" font-family="Helvetica,sans-Serif" font-size="10.00">satcheck_glucose_baset</text>
<text text-anchor="middle" x="381.5" y="-235" font-family="Helvetica,sans-Serif" font-size="10.00">&lt; Glucose::SimpSolver &gt;</text>
</a>
</g>
</g>
<!-- Node0&#45;&gt;Node3 -->
<g id="edge3" class="edge">
<title>Node0&#45;&gt;Node3</title>
<path fill="none" stroke="midnightblue" d="M219.83,-337.51C236.25,-317.88 265.4,-286.38 297,-268 303.54,-264.2 310.71,-260.92 318.02,-258.12"/>
<polygon fill="midnightblue" stroke="midnightblue" points="217.03,-335.4 213.42,-345.36 222.46,-339.83 217.03,-335.4"/>
</g>
<!-- Node5 -->
<g id="node6" class="node">
<title>Node5</title>
<g id="a_node6"><a xlink:href="classsatcheck__minisat2__baset.html" target="_top" xlink:title=" ">
<polygon fill="none" stroke="black" points="311.5,-179 311.5,-209 451.5,-209 451.5,-179 311.5,-179"/>
<text text-anchor="start" x="319.5" y="-197" font-family="Helvetica,sans-Serif" font-size="10.00">satcheck_minisat2_baset</text>
<text text-anchor="middle" x="381.5" y="-186" font-family="Helvetica,sans-Serif" font-size="10.00">&lt; Minisat::SimpSolver &gt;</text>
</a>
</g>
</g>
<!-- Node0&#45;&gt;Node5 -->
<g id="edge5" class="edge">
<title>Node0&#45;&gt;Node5</title>
<path fill="none" stroke="midnightblue" d="M213.68,-335.89C226.5,-306.4 255.07,-249.96 297,-219 302.23,-215.14 308.07,-211.86 314.15,-209.09"/>
<polygon fill="midnightblue" stroke="midnightblue" points="210.31,-334.87 209.67,-345.44 216.77,-337.57 210.31,-334.87"/>
</g>
<!-- Node7 -->
<g id="node8" class="node">
<title>Node7</title>
<g id="a_node8"><a xlink:href="classsatcheck__minisat2__baset.html" target="_top" xlink:title=" ">
<polygon fill="none" stroke="black" points="311.5,-479 311.5,-509 451.5,-509 451.5,-479 311.5,-479"/>
<text text-anchor="start" x="319.5" y="-497" font-family="Helvetica,sans-Serif" font-size="10.00">satcheck_minisat2_baset</text>
<text text-anchor="middle" x="381.5" y="-486" font-family="Helvetica,sans-Serif" font-size="10.00">&lt; Minisat::Solver &gt;</text>
</a>
</g>
</g>
<!-- Node0&#45;&gt;Node7 -->
<g id="edge7" class="edge">
<title>Node0&#45;&gt;Node7</title>
<path fill="none" stroke="midnightblue" d="M233.27,-369.81C242.93,-376.02 253.29,-383.93 261,-393 285.2,-421.48 268.65,-444.65 297,-469 301.48,-472.85 306.53,-476.1 311.87,-478.85"/>
<polygon fill="midnightblue" stroke="midnightblue" points="235.07,-366.8 224.71,-364.59 231.43,-372.78 235.07,-366.8"/>
</g>
<!-- Node9 -->
<g id="node10" class="node">
<title>Node9</title>
<g id="a_node10"><a xlink:href="classsatcheck__cadical__baset.html" target="_top" xlink:title=" ">
<polygon fill="none" stroke="black" points="315.5,-326.5 315.5,-345.5 447.5,-345.5 447.5,-326.5 315.5,-326.5"/>
<text text-anchor="middle" x="381.5" y="-333.5" font-family="Helvetica,sans-Serif" font-size="10.00">satcheck_cadical_baset</text>
</a>
</g>
</g>
<!-- Node0&#45;&gt;Node9 -->
<g id="edge9" class="edge">
<title>Node0&#45;&gt;Node9</title>
<path fill="none" stroke="midnightblue" d="M271.47,-347.87C285.8,-346.31 300.96,-344.66 315.27,-343.1"/>
<polygon fill="midnightblue" stroke="midnightblue" points="270.78,-344.43 261.21,-348.99 271.53,-351.39 270.78,-344.43"/>
</g>
<!-- Node12 -->
<g id="node13" class="node">
<title>Node12</title>
<g id="a_node13"><a xlink:href="classsatcheck__glucose__baset.html" target="_top" xlink:title=" ">
<polygon fill="none" stroke="black" points="299.5,-440.5 299.5,-459.5 463.5,-459.5 463.5,-440.5 299.5,-440.5"/>
<text text-anchor="middle" x="381.5" y="-447.5" font-family="Helvetica,sans-Serif" font-size="10.00">satcheck_glucose_baset&lt; T &gt;</text>
</a>
</g>
</g>
<!-- Node0&#45;&gt;Node12 -->
<g id="edge12" class="edge">
<title>Node0&#45;&gt;Node12</title>
<path fill="none" stroke="midnightblue" d="M230.15,-370.11C240.06,-376.7 251.42,-384.79 261,-393 278.67,-408.14 276.79,-419.48 297,-431 303.85,-434.9 311.44,-438 319.17,-440.47"/>
<polygon fill="midnightblue" stroke="midnightblue" points="231.85,-367.04 221.56,-364.52 228.03,-372.9 231.85,-367.04"/>
</g>
<!-- Node13 -->
<g id="node14" class="node">
<title>Node13</title>
<g id="a_node14"><a xlink:href="classsatcheck__ipasirt.html" target="_top" xlink:title="Interface for generic SAT solver interface IPASIR.">
<polygon fill="none" stroke="black" points="333.5,-402.5 333.5,-421.5 429.5,-421.5 429.5,-402.5 333.5,-402.5"/>
<text text-anchor="middle" x="381.5" y="-409.5" font-family="Helvetica,sans-Serif" font-size="10.00">satcheck_ipasirt</text>
</a>
</g>
</g>
<!-- Node0&#45;&gt;Node13 -->
<g id="edge13" class="edge">
<title>Node0&#45;&gt;Node13</title>
<path fill="none" stroke="midnightblue" d="M235.4,-368.79C252.99,-376.66 275.95,-386.26 297,-393 308.61,-396.71 321.35,-400 333.31,-402.75"/>
<polygon fill="midnightblue" stroke="midnightblue" points="236.78,-365.57 226.22,-364.63 233.88,-371.95 236.78,-365.57"/>
</g>
<!-- Node14 -->
<g id="node15" class="node">
<title>Node14</title>
<g id="a_node15"><a xlink:href="classsatcheck__minisat2__baset.html" target="_top" xlink:title=" ">
<polygon fill="none" stroke="black" points="297,-364.5 297,-383.5 466,-383.5 466,-364.5 297,-364.5"/>
<text text-anchor="middle" x="381.5" y="-371.5" font-family="Helvetica,sans-Serif" font-size="10.00">satcheck_minisat2_baset&lt; T &gt;</text>
</a>
</g>
</g>
<!-- Node0&#45;&gt;Node14 -->
<g id="edge14" class="edge">
<title>Node0&#45;&gt;Node14</title>
<path fill="none" stroke="midnightblue" d="M271.27,-362.11C279.66,-363.02 288.33,-363.96 296.96,-364.9"/>
<polygon fill="midnightblue" stroke="midnightblue" points="271.53,-358.61 261.21,-361.01 270.78,-365.57 271.53,-358.61"/>
</g>
<!-- Node2 -->
<g id="node3" class="node">
<title>Node2</title>
<g id="a_node3"><a xlink:href="classsatcheck__glucose__no__simplifiert.html" target="_top" xlink:title=" ">
<polygon fill="none" stroke="black" points="530.5,-272 530.5,-302 650.5,-302 650.5,-272 530.5,-272"/>
<text text-anchor="start" x="538.5" y="-290" font-family="Helvetica,sans-Serif" font-size="10.00">satcheck_glucose_no</text>
<text text-anchor="middle" x="590.5" y="-279" font-family="Helvetica,sans-Serif" font-size="10.00">_simplifiert</text>
</a>
</g>
</g>
<!-- Node1&#45;&gt;Node2 -->
<g id="edge2" class="edge">
<title>Node1&#45;&gt;Node2</title>
<path fill="none" stroke="midnightblue" d="M459.4,-290.14C482.85,-289.58 508.25,-288.96 530.33,-288.43"/>
<polygon fill="midnightblue" stroke="midnightblue" points="459.05,-286.65 449.14,-290.39 459.22,-293.65 459.05,-286.65"/>
</g>
<!-- Node4 -->
<g id="node5" class="node">
<title>Node4</title>
<g id="a_node5"><a xlink:href="classsatcheck__glucose__simplifiert.html" target="_top" xlink:title=" ">
<polygon fill="none" stroke="black" points="511.5,-233.5 511.5,-252.5 669.5,-252.5 669.5,-233.5 511.5,-233.5"/>
<text text-anchor="middle" x="590.5" y="-240.5" font-family="Helvetica,sans-Serif" font-size="10.00">satcheck_glucose_simplifiert</text>
</a>
</g>
</g>
<!-- Node3&#45;&gt;Node4 -->
<g id="edge4" class="edge">
<title>Node3&#45;&gt;Node4</title>
<path fill="none" stroke="midnightblue" d="M461.73,-243C478.03,-243 495.17,-243 511.42,-243"/>
<polygon fill="midnightblue" stroke="midnightblue" points="461.72,-239.5 451.72,-243 461.72,-246.5 461.72,-239.5"/>
</g>
<!-- Node6 -->
<g id="node7" class="node">
<title>Node6</title>
<g id="a_node7"><a xlink:href="classsatcheck__minisat__simplifiert.html" target="_top" xlink:title=" ">
<polygon fill="none" stroke="black" points="512,-190.5 512,-209.5 669,-209.5 669,-190.5 512,-190.5"/>
<text text-anchor="middle" x="590.5" y="-197.5" font-family="Helvetica,sans-Serif" font-size="10.00">satcheck_minisat_simplifiert</text>
</a>
</g>
</g>
<!-- Node5&#45;&gt;Node6 -->
<g id="edge6" class="edge">
<title>Node5&#45;&gt;Node6</title>
<path fill="none" stroke="midnightblue" d="M461.8,-196.3C478.19,-196.77 495.45,-197.27 511.78,-197.75"/>
<polygon fill="midnightblue" stroke="midnightblue" points="461.81,-192.8 451.72,-196.01 461.61,-199.79 461.81,-192.8"/>
</g>
<!-- Node8 -->
<g id="node9" class="node">
<title>Node8</title>
<g id="a_node9"><a xlink:href="classsatcheck__minisat__no__simplifiert.html" target="_top" xlink:title=" ">
<polygon fill="none" stroke="black" points="531,-479 531,-509 650,-509 650,-479 531,-479"/>
<text text-anchor="start" x="539" y="-497" font-family="Helvetica,sans-Serif" font-size="10.00">satcheck_minisat_no</text>
<text text-anchor="middle" x="590.5" y="-486" font-family="Helvetica,sans-Serif" font-size="10.00">_simplifiert</text>
</a>
</g>
</g>
<!-- Node7&#45;&gt;Node8 -->
<g id="edge8" class="edge">
<title>Node7&#45;&gt;Node8</title>
<path fill="none" stroke="midnightblue" d="M461.77,-494C484.69,-494 509.29,-494 530.73,-494"/>
<polygon fill="midnightblue" stroke="midnightblue" points="461.72,-490.5 451.72,-494 461.72,-497.5 461.72,-490.5"/>
</g>
<!-- Node10 -->
<g id="node11" class="node">
<title>Node10</title>
<g id="a_node11"><a xlink:href="classsatcheck__cadical__no__preprocessingt.html" target="_top" xlink:title=" ">
<polygon fill="none" stroke="black" points="532,-321 532,-351 649,-351 649,-321 532,-321"/>
<text text-anchor="start" x="540" y="-339" font-family="Helvetica,sans-Serif" font-size="10.00">satcheck_cadical_no</text>
<text text-anchor="middle" x="590.5" y="-328" font-family="Helvetica,sans-Serif" font-size="10.00">_preprocessingt</text>
</a>
</g>
</g>
<!-- Node9&#45;&gt;Node10 -->
<g id="edge10" class="edge">
<title>Node9&#45;&gt;Node10</title>
<path fill="none" stroke="midnightblue" d="M458.02,-336C482.42,-336 509.07,-336 531.96,-336"/>
<polygon fill="midnightblue" stroke="midnightblue" points="457.71,-332.5 447.71,-336 457.71,-339.5 457.71,-332.5"/>
</g>
<!-- Node11 -->
<g id="node12" class="node">
<title>Node11</title>
<g id="a_node12"><a xlink:href="classsatcheck__cadical__preprocessingt.html" target="_top" xlink:title=" ">
<polygon fill="none" stroke="black" points="502,-370.5 502,-389.5 679,-389.5 679,-370.5 502,-370.5"/>
<text text-anchor="middle" x="590.5" y="-377.5" font-family="Helvetica,sans-Serif" font-size="10.00">satcheck_cadical_preprocessingt</text>
</a>
</g>
</g>
<!-- Node9&#45;&gt;Node11 -->
<g id="edge11" class="edge">
<title>Node9&#45;&gt;Node11</title>
<path fill="none" stroke="midnightblue" d="M437.51,-347.69C470.99,-354.81 513.23,-363.79 544.67,-370.47"/>
<polygon fill="midnightblue" stroke="midnightblue" points="437.93,-344.2 427.42,-345.55 436.47,-351.05 437.93,-344.2"/>
</g>
<!-- Node1081 -->
<g id="node16" class="node">
<title>Node1081</title>
<g id="a_node16"><a xlink:href="classpropt.html" target="_top" xlink:title="TO_BE_DOCUMENTED.">
<polygon fill="none" stroke="black" points="0,-111.5 0,-130.5 42,-130.5 42,-111.5 0,-111.5"/>
<text text-anchor="middle" x="21" y="-118.5" font-family="Helvetica,sans-Serif" font-size="10.00">propt</text>
</a>
</g>
</g>
<!-- Node1082 -->
<g id="node17" class="node">
<title>Node1082</title>
<g id="a_node17"><a xlink:href="classcnft.html" target="_top" xlink:title=" ">
<polygon fill="none" stroke="black" points="78,-111.5 78,-130.5 113,-130.5 113,-111.5 78,-111.5"/>
<text text-anchor="middle" x="95.5" y="-118.5" font-family="Helvetica,sans-Serif" font-size="10.00">cnft</text>
</a>
</g>
</g>
<!-- Node1081&#45;&gt;Node1082 -->
<g id="edge15" class="edge">
<title>Node1081&#45;&gt;Node1082</title>
<path fill="none" stroke="midnightblue" d="M52.44,-121C61.14,-121 70.29,-121 77.84,-121"/>
<polygon fill="midnightblue" stroke="midnightblue" points="52.2,-117.5 42.2,-121 52.2,-124.5 52.2,-117.5"/>
</g>
<!-- Node1083 -->
<g id="node18" class="node">
<title>Node1083</title>
<g id="a_node18"><a xlink:href="classcnf__clause__listt.html" target="_top" xlink:title=" ">
<polygon fill="none" stroke="black" points="159,-111.5 159,-130.5 251,-130.5 251,-111.5 159,-111.5"/>
<text text-anchor="middle" x="205" y="-118.5" font-family="Helvetica,sans-Serif" font-size="10.00">cnf_clause_listt</text>
</a>
</g>
</g>
<!-- Node1082&#45;&gt;Node1083 -->
<g id="edge16" class="edge">
<title>Node1082&#45;&gt;Node1083</title>
<path fill="none" stroke="midnightblue" d="M123.58,-121C134.19,-121 146.66,-121 158.57,-121"/>
<polygon fill="midnightblue" stroke="midnightblue" points="123.3,-117.5 113.3,-121 123.3,-124.5 123.3,-117.5"/>
</g>
<!-- Node1102 -->
<g id="node37" class="node">
<title>Node1102</title>
<g id="a_node37"><a xlink:href="classcnf__solvert.html" target="_top" xlink:title=" ">
<polygon fill="none" stroke="black" points="169.5,-402.5 169.5,-421.5 240.5,-421.5 240.5,-402.5 169.5,-402.5"/>
<text text-anchor="middle" x="205" y="-409.5" font-family="Helvetica,sans-Serif" font-size="10.00">cnf_solvert</text>
</a>
</g>
</g>
<!-- Node1082&#45;&gt;Node1102 -->
<g id="edge35" class="edge">
<title>Node1082&#45;&gt;Node1102</title>
<path fill="none" stroke="midnightblue" d="M95.83,-140.92C95.25,-186.25 99.29,-299.02 149,-374 157.27,-386.48 171.17,-396.03 182.93,-402.44"/>
<polygon fill="midnightblue" stroke="midnightblue" points="99.33,-140.76 96.06,-130.68 92.33,-140.6 99.33,-140.76"/>
</g>
<!-- Node1112 -->
<g id="node47" class="node">
<title>Node1112</title>
<g id="a_node47"><a xlink:href="classdimacs__cnf__dumpt.html" target="_top" xlink:title=" ">
<polygon fill="none" stroke="black" points="150.5,-73.5 150.5,-92.5 259.5,-92.5 259.5,-73.5 150.5,-73.5"/>
<text text-anchor="middle" x="205" y="-80.5" font-family="Helvetica,sans-Serif" font-size="10.00">dimacs_cnf_dumpt</text>
</a>
</g>
</g>
<!-- Node1082&#45;&gt;Node1112 -->
<g id="edge53" class="edge">
<title>Node1082&#45;&gt;Node1112</title>
<path fill="none" stroke="midnightblue" d="M122.69,-111.44C131.08,-108.4 140.42,-105.03 149,-102 157.76,-98.9 167.33,-95.58 175.99,-92.59"/>
<polygon fill="midnightblue" stroke="midnightblue" points="121.23,-108.24 113.03,-114.95 123.62,-114.82 121.23,-108.24"/>
</g>
<!-- Node1084 -->
<g id="node19" class="node">
<title>Node1084</title>
<g id="a_node19"><a xlink:href="classcnf__clause__list__assignmentt.html" target="_top" xlink:title=" ">
<polygon fill="none" stroke="black" points="304,-130.5 304,-149.5 459,-149.5 459,-130.5 304,-130.5"/>
<text text-anchor="middle" x="381.5" y="-137.5" font-family="Helvetica,sans-Serif" font-size="10.00">cnf_clause_list_assignmentt</text>
</a>
</g>
</g>
<!-- Node1083&#45;&gt;Node1084 -->
<g id="edge17" class="edge">
<title>Node1083&#45;&gt;Node1084</title>
<path fill="none" stroke="midnightblue" d="M261.46,-127.04C274.95,-128.51 289.62,-130.11 303.91,-131.66"/>
<polygon fill="midnightblue" stroke="midnightblue" points="261.71,-123.55 251.39,-125.94 260.95,-130.5 261.71,-123.55"/>
</g>
<!-- Node1086 -->
<g id="node21" class="node">
<title>Node1086</title>
<g id="a_node21"><a xlink:href="classdimacs__cnft.html" target="_top" xlink:title=" ">
<polygon fill="none" stroke="black" points="344,-84.5 344,-103.5 419,-103.5 419,-84.5 344,-84.5"/>
<text text-anchor="middle" x="381.5" y="-91.5" font-family="Helvetica,sans-Serif" font-size="10.00">dimacs_cnft</text>
</a>
</g>
</g>
<!-- Node1083&#45;&gt;Node1086 -->
<g id="edge19" class="edge">
<title>Node1083&#45;&gt;Node1086</title>
<path fill="none" stroke="midnightblue" d="M261.45,-112.42C288.37,-108.25 319.97,-103.37 343.84,-99.67"/>
<polygon fill="midnightblue" stroke="midnightblue" points="260.74,-108.99 251.39,-113.98 261.81,-115.91 260.74,-108.99"/>
</g>
<!-- Node1100 -->
<g id="node35" class="node">
<title>Node1100</title>
<g id="a_node35"><a xlink:href="classsatcheck__zchaff__baset.html" target="_top" xlink:title=" ">
<polygon fill="none" stroke="black" points="318,-27.5 318,-46.5 445,-46.5 445,-27.5 318,-27.5"/>
<text text-anchor="middle" x="381.5" y="-34.5" font-family="Helvetica,sans-Serif" font-size="10.00">satcheck_zchaff_baset</text>
</a>
</g>
</g>
<!-- Node1083&#45;&gt;Node1100 -->
<g id="edge33" class="edge">
<title>Node1083&#45;&gt;Node1100</title>
<path fill="none" stroke="midnightblue" d="M248.46,-107.84C252.77,-106.06 257.03,-104.11 261,-102 278.66,-92.62 279.8,-85.2 297,-75 315.9,-63.79 338.69,-53.62 355.68,-46.63"/>
<polygon fill="midnightblue" stroke="midnightblue" points="247.07,-104.62 238.99,-111.47 249.58,-111.16 247.07,-104.62"/>
</g>
<!-- Node1085 -->
<g id="node20" class="node">
<title>Node1085</title>
<g id="a_node20"><a xlink:href="classexternal__satt.html" target="_top" xlink:title=" ">
<polygon fill="none" stroke="black" points="550,-152.5 550,-171.5 631,-171.5 631,-152.5 550,-152.5"/>
<text text-anchor="middle" x="590.5" y="-159.5" font-family="Helvetica,sans-Serif" font-size="10.00">external_satt</text>
</a>
</g>
</g>
<!-- Node1084&#45;&gt;Node1085 -->
<g id="edge18" class="edge">
<title>Node1084&#45;&gt;Node1085</title>
<path fill="none" stroke="midnightblue" d="M469.51,-149.25C497.51,-152.22 527.16,-155.37 549.98,-157.8"/>
<polygon fill="midnightblue" stroke="midnightblue" points="469.6,-145.74 459.28,-148.16 468.86,-152.7 469.6,-145.74"/>
</g>
<!-- Node1087 -->
<g id="node22" class="node">
<title>Node1087</title>
<g id="a_node22"><a xlink:href="classpbs__dimacs__cnft.html" target="_top" xlink:title=" ">
<polygon fill="none" stroke="black" points="541.5,-114.5 541.5,-133.5 639.5,-133.5 639.5,-114.5 541.5,-114.5"/>
<text text-anchor="middle" x="590.5" y="-121.5" font-family="Helvetica,sans-Serif" font-size="10.00">pbs_dimacs_cnft</text>
</a>
</g>
</g>
<!-- Node1086&#45;&gt;Node1087 -->
<g id="edge20" class="edge">
<title>Node1086&#45;&gt;Node1087</title>
<path fill="none" stroke="midnightblue" d="M429.02,-100.74C462.46,-105.59 507.45,-112.11 541.28,-117.01"/>
<polygon fill="midnightblue" stroke="midnightblue" points="429.43,-97.26 419.03,-99.29 428.43,-104.19 429.43,-97.26"/>
</g>
<!-- Node1088 -->
<g id="node23" class="node">
<title>Node1088</title>
<g id="a_node23"><a xlink:href="classqdimacs__cnft.html" target="_top" xlink:title=" ">
<polygon fill="none" stroke="black" points="550,-76.5 550,-95.5 631,-95.5 631,-76.5 550,-76.5"/>
<text text-anchor="middle" x="590.5" y="-83.5" font-family="Helvetica,sans-Serif" font-size="10.00">qdimacs_cnft</text>
</a>
</g>
</g>
<!-- Node1086&#45;&gt;Node1088 -->
<g id="edge21" class="edge">
<title>Node1086&#45;&gt;Node1088</title>
<path fill="none" stroke="midnightblue" d="M429.36,-92.19C465.68,-90.79 515.44,-88.86 549.81,-87.53"/>
<polygon fill="midnightblue" stroke="midnightblue" points="428.89,-88.7 419.03,-92.59 429.16,-95.7 428.89,-88.7"/>
</g>
<!-- Node1099 -->
<g id="node34" class="node">
<title>Node1099</title>
<g id="a_node34"><a xlink:href="classsatcheck__zcoret.html" target="_top" xlink:title=" ">
<polygon fill="none" stroke="black" points="543,-38.5 543,-57.5 638,-57.5 638,-38.5 543,-38.5"/>
<text text-anchor="middle" x="590.5" y="-45.5" font-family="Helvetica,sans-Serif" font-size="10.00">satcheck_zcoret</text>
</a>
</g>
</g>
<!-- Node1086&#45;&gt;Node1099 -->
<g id="edge32" class="edge">
<title>Node1086&#45;&gt;Node1099</title>
<path fill="none" stroke="midnightblue" d="M428.9,-83.42C451.02,-78.4 477.87,-72.35 502,-67 515.96,-63.91 531.19,-60.58 544.97,-57.59"/>
<polygon fill="midnightblue" stroke="midnightblue" points="428.07,-80.02 419.09,-85.65 429.62,-86.85 428.07,-80.02"/>
</g>
<!-- Node1089 -->
<g id="node24" class="node">
<title>Node1089</title>
<g id="a_node24"><a xlink:href="classqbf__quantort.html" target="_top" xlink:title=" ">
<polygon fill="none" stroke="black" points="746.5,-76.5 746.5,-95.5 825.5,-95.5 825.5,-76.5 746.5,-76.5"/>
<text text-anchor="middle" x="786" y="-83.5" font-family="Helvetica,sans-Serif" font-size="10.00">qbf_quantort</text>
</a>
</g>
</g>
<!-- Node1088&#45;&gt;Node1089 -->
<g id="edge22" class="edge">
<title>Node1088&#45;&gt;Node1089</title>
<path fill="none" stroke="midnightblue" d="M641.39,-86C674.11,-86 716.26,-86 746.42,-86"/>
<polygon fill="midnightblue" stroke="midnightblue" points="641.12,-82.5 631.12,-86 641.12,-89.5 641.12,-82.5"/>
</g>
<!-- Node1090 -->
<g id="node25" class="node">
<title>Node1090</title>
<g id="a_node25"><a xlink:href="classqbf__qubet.html" target="_top" xlink:title=" ">
<polygon fill="none" stroke="black" points="753.5,-38.5 753.5,-57.5 818.5,-57.5 818.5,-38.5 753.5,-38.5"/>
<text text-anchor="middle" x="786" y="-45.5" font-family="Helvetica,sans-Serif" font-size="10.00">qbf_qubet</text>
</a>
</g>
</g>
<!-- Node1088&#45;&gt;Node1090 -->
<g id="edge23" class="edge">
<title>Node1088&#45;&gt;Node1090</title>
<path fill="none" stroke="midnightblue" d="M641.25,-76.23C676.6,-69.29 723.02,-60.17 753.41,-54.2"/>
<polygon fill="midnightblue" stroke="midnightblue" points="640.26,-72.86 631.12,-78.22 641.61,-79.73 640.26,-72.86"/>
</g>
<!-- Node1091 -->
<g id="node26" class="node">
<title>Node1091</title>
<g id="a_node26"><a xlink:href="classqbf__skizzot.html" target="_top" xlink:title=" ">
<polygon fill="none" stroke="black" points="750,-0.5 750,-19.5 822,-19.5 822,-0.5 750,-0.5"/>
<text text-anchor="middle" x="786" y="-7.5" font-family="Helvetica,sans-Serif" font-size="10.00">qbf_skizzot</text>
</a>
</g>
</g>
<!-- Node1088&#45;&gt;Node1091 -->
<g id="edge24" class="edge">
<title>Node1088&#45;&gt;Node1091</title>
<path fill="none" stroke="midnightblue" d="M641.32,-80.52C654.16,-77.7 667.57,-73.44 679,-67 699.27,-55.58 695.03,-40.94 715,-29 725.48,-22.73 738.07,-18.49 749.67,-15.63"/>
<polygon fill="midnightblue" stroke="midnightblue" points="640.34,-77.14 631.19,-82.48 641.68,-84.01 640.34,-77.14"/>
</g>
<!-- Node1092 -->
<g id="node27" class="node">
<title>Node1092</title>
<g id="a_node27"><a xlink:href="classqbf__squolemt.html" target="_top" xlink:title=" ">
<polygon fill="none" stroke="black" points="744.5,-152.5 744.5,-171.5 827.5,-171.5 827.5,-152.5 744.5,-152.5"/>
<text text-anchor="middle" x="786" y="-159.5" font-family="Helvetica,sans-Serif" font-size="10.00">qbf_squolemt</text>
</a>
</g>
</g>
<!-- Node1088&#45;&gt;Node1092 -->
<g id="edge25" class="edge">
<title>Node1088&#45;&gt;Node1092</title>
<path fill="none" stroke="midnightblue" d="M641.32,-91.48C654.16,-94.3 667.57,-98.56 679,-105 699.27,-116.42 695.03,-131.06 715,-143 723.86,-148.3 734.23,-152.15 744.23,-154.94"/>
<polygon fill="midnightblue" stroke="midnightblue" points="641.68,-87.99 631.19,-89.52 640.34,-94.86 641.68,-87.99"/>
</g>
<!-- Node1093 -->
<g id="node28" class="node">
<title>Node1093</title>
<g id="a_node28"><a xlink:href="classqdimacs__coret.html" target="_top" xlink:title=" ">
<polygon fill="none" stroke="black" points="742,-114.5 742,-133.5 830,-133.5 830,-114.5 742,-114.5"/>
<text text-anchor="middle" x="786" y="-121.5" font-family="Helvetica,sans-Serif" font-size="10.00">qdimacs_coret</text>
</a>
</g>
</g>
<!-- Node1088&#45;&gt;Node1093 -->
<g id="edge26" class="edge">
<title>Node1088&#45;&gt;Node1093</title>
<path fill="none" stroke="midnightblue" d="M641.31,-95.78C672.38,-101.88 711.97,-109.66 741.73,-115.5"/>
<polygon fill="midnightblue" stroke="midnightblue" points="641.61,-92.27 631.12,-93.78 640.26,-99.14 641.61,-92.27"/>
</g>
<!-- Node1094 -->
<g id="node29" class="node">
<title>Node1094</title>
<g id="a_node29"><a xlink:href="classqbf__bdd__certificatet.html" target="_top" xlink:title=" ">
<polygon fill="none" stroke="black" points="905.5,-76.5 905.5,-95.5 1018.5,-95.5 1018.5,-76.5 905.5,-76.5"/>
<text text-anchor="middle" x="962" y="-83.5" font-family="Helvetica,sans-Serif" font-size="10.00">qbf_bdd_certificatet</text>
</a>
</g>
</g>
<!-- Node1093&#45;&gt;Node1094 -->
<g id="edge27" class="edge">
<title>Node1093&#45;&gt;Node1094</title>
<path fill="none" stroke="midnightblue" d="M839.96,-112.43C864.71,-107.03 893.81,-100.67 917.27,-95.55"/>
<polygon fill="midnightblue" stroke="midnightblue" points="839.03,-109.05 830.01,-114.61 840.53,-115.89 839.03,-109.05"/>
</g>
<!-- Node1097 -->
<g id="node32" class="node">
<title>Node1097</title>
<g id="a_node32"><a xlink:href="classqbf__qube__coret.html" target="_top" xlink:title=" ">
<polygon fill="none" stroke="black" points="916,-152.5 916,-171.5 1008,-171.5 1008,-152.5 916,-152.5"/>
<text text-anchor="middle" x="962" y="-159.5" font-family="Helvetica,sans-Serif" font-size="10.00">qbf_qube_coret</text>
</a>
</g>
</g>
<!-- Node1093&#45;&gt;Node1097 -->
<g id="edge30" class="edge">
<title>Node1093&#45;&gt;Node1097</title>
<path fill="none" stroke="midnightblue" d="M839.96,-135.57C864.71,-140.97 893.81,-147.33 917.27,-152.45"/>
<polygon fill="midnightblue" stroke="midnightblue" points="840.53,-132.11 830.01,-133.39 839.03,-138.95 840.53,-132.11"/>
</g>
<!-- Node1098 -->
<g id="node33" class="node">
<title>Node1098</title>
<g id="a_node33"><a xlink:href="classqbf__squolem__coret.html" target="_top" xlink:title=" ">
<polygon fill="none" stroke="black" points="907,-114.5 907,-133.5 1017,-133.5 1017,-114.5 907,-114.5"/>
<text text-anchor="middle" x="962" y="-121.5" font-family="Helvetica,sans-Serif" font-size="10.00">qbf_squolem_coret</text>
</a>
</g>
</g>
<!-- Node1093&#45;&gt;Node1098 -->
<g id="edge31" class="edge">
<title>Node1093&#45;&gt;Node1098</title>
<path fill="none" stroke="midnightblue" d="M840.13,-124C861.31,-124 885.67,-124 906.95,-124"/>
<polygon fill="midnightblue" stroke="midnightblue" points="840.01,-120.5 830.01,-124 840.01,-127.5 840.01,-120.5"/>
</g>
<!-- Node1095 -->
<g id="node30" class="node">
<title>Node1095</title>
<g id="a_node30"><a xlink:href="classqbf__bdd__coret.html" target="_top" xlink:title=" ">
<polygon fill="none" stroke="black" points="1073,-95.5 1073,-114.5 1159,-114.5 1159,-95.5 1073,-95.5"/>
<text text-anchor="middle" x="1116" y="-102.5" font-family="Helvetica,sans-Serif" font-size="10.00">qbf_bdd_coret</text>
</a>
</g>
</g>
<!-- Node1094&#45;&gt;Node1095 -->
<g id="edge28" class="edge">
<title>Node1094&#45;&gt;Node1095</title>
<path fill="none" stroke="midnightblue" d="M1028.88,-94.24C1043.71,-96.09 1059.05,-98.01 1072.61,-99.7"/>
<polygon fill="midnightblue" stroke="midnightblue" points="1029.09,-90.73 1018.74,-92.97 1028.22,-97.68 1029.09,-90.73"/>
</g>
<!-- Node1096 -->
<g id="node31" class="node">
<title>Node1096</title>
<g id="a_node31"><a xlink:href="classqbf__skizzo__coret.html" target="_top" xlink:title=" ">
<polygon fill="none" stroke="black" points="1067,-57.5 1067,-76.5 1165,-76.5 1165,-57.5 1067,-57.5"/>
<text text-anchor="middle" x="1116" y="-64.5" font-family="Helvetica,sans-Serif" font-size="10.00">qbf_skizzo_coret</text>
</a>
</g>
</g>
<!-- Node1094&#45;&gt;Node1096 -->
<g id="edge29" class="edge">
<title>Node1094&#45;&gt;Node1096</title>
<path fill="none" stroke="midnightblue" d="M1028.85,-77.77C1041.6,-76.18 1054.73,-74.53 1066.79,-73.03"/>
<polygon fill="midnightblue" stroke="midnightblue" points="1028.22,-74.32 1018.74,-79.03 1029.09,-81.27 1028.22,-74.32"/>
</g>
<!-- Node1101 -->
<g id="node36" class="node">
<title>Node1101</title>
<g id="a_node36"><a xlink:href="classsatcheck__zchafft.html" target="_top" xlink:title=" ">
<polygon fill="none" stroke="black" points="541.5,-0.5 541.5,-19.5 639.5,-19.5 639.5,-0.5 541.5,-0.5"/>
<text text-anchor="middle" x="590.5" y="-7.5" font-family="Helvetica,sans-Serif" font-size="10.00">satcheck_zchafft</text>
</a>
</g>
</g>
<!-- Node1100&#45;&gt;Node1101 -->
<g id="edge34" class="edge">
<title>Node1100&#45;&gt;Node1101</title>
<path fill="none" stroke="midnightblue" d="M455.1,-27.53C483.61,-23.81 515.58,-19.64 541.18,-16.3"/>
<polygon fill="midnightblue" stroke="midnightblue" points="454.63,-24.06 445.17,-28.83 455.54,-31 454.63,-24.06"/>
</g>
<!-- Node1102&#45;&gt;Node1 -->
<g id="edge36" class="edge">
<title>Node1102&#45;&gt;Node1</title>
<path fill="none" stroke="midnightblue" d="M232.06,-397.09C241.82,-390.75 252.57,-382.78 261,-374 281.75,-352.38 273.13,-335.11 297,-317 302.06,-313.16 307.71,-309.9 313.62,-307.15"/>
<polygon fill="midnightblue" stroke="midnightblue" points="230.11,-394.18 223.47,-402.44 233.81,-400.12 230.11,-394.18"/>
</g>
<!-- Node1102&#45;&gt;Node3 -->
<g id="edge37" class="edge">
<title>Node1102&#45;&gt;Node3</title>
<path fill="none" stroke="midnightblue" d="M234.58,-397.19C244.08,-391.09 254,-383.26 261,-374 290.98,-334.3 261.18,-302.53 297,-268 301.25,-263.9 306.14,-260.48 311.38,-257.61"/>
<polygon fill="midnightblue" stroke="midnightblue" points="232.5,-394.36 225.71,-402.5 236.09,-400.36 232.5,-394.36"/>
</g>
<!-- Node1102&#45;&gt;Node5 -->
<g id="edge38" class="edge">
<title>Node1102&#45;&gt;Node5</title>
<path fill="none" stroke="midnightblue" d="M235.75,-397.15C245.09,-391.14 254.62,-383.38 261,-374 300.77,-315.52 248.58,-270.55 297,-219 301.14,-214.59 306.03,-210.94 311.33,-207.94"/>
<polygon fill="midnightblue" stroke="midnightblue" points="233.77,-394.25 226.96,-402.36 237.35,-400.27 233.77,-394.25"/>
</g>
<!-- Node1102&#45;&gt;Node7 -->
<g id="edge39" class="edge">
<title>Node1102&#45;&gt;Node7</title>
<path fill="none" stroke="midnightblue" d="M227.44,-427.75C245.32,-440.31 271.84,-457.6 297,-469 305.13,-472.68 313.95,-476 322.71,-478.92"/>
<polygon fill="midnightblue" stroke="midnightblue" points="229.11,-424.64 218.93,-421.68 225.04,-430.34 229.11,-424.64"/>
</g>
<!-- Node1102&#45;&gt;Node9 -->
<g id="edge43" class="edge">
<title>Node1102&#45;&gt;Node9</title>
<path fill="none" stroke="midnightblue" d="M228.63,-396.6C250.78,-381.75 283.14,-360.72 297,-355 306.21,-351.2 316.31,-348.08 326.22,-345.56"/>
<polygon fill="midnightblue" stroke="midnightblue" points="226.47,-393.84 220.13,-402.33 230.38,-399.64 226.47,-393.84"/>
</g>
<!-- Node1102&#45;&gt;Node12 -->
<g id="edge44" class="edge">
<title>Node1102&#45;&gt;Node12</title>
<path fill="none" stroke="midnightblue" d="M251,-421.8C277.37,-427.54 310.52,-434.76 336.68,-440.46"/>
<polygon fill="midnightblue" stroke="midnightblue" points="251.41,-418.31 240.89,-419.6 249.92,-425.15 251.41,-418.31"/>
</g>
<!-- Node1102&#45;&gt;Node13 -->
<g id="edge45" class="edge">
<title>Node1102&#45;&gt;Node13</title>
<path fill="none" stroke="midnightblue" d="M250.96,-412C276.26,-412 307.8,-412 333.43,-412"/>
<polygon fill="midnightblue" stroke="midnightblue" points="250.89,-408.5 240.89,-412 250.89,-415.5 250.89,-408.5"/>
</g>
<!-- Node1102&#45;&gt;Node14 -->
<g id="edge51" class="edge">
<title>Node1102&#45;&gt;Node14</title>
<path fill="none" stroke="midnightblue" d="M251,-402.2C277.37,-396.46 310.52,-389.24 336.68,-383.54"/>
<polygon fill="midnightblue" stroke="midnightblue" points="249.92,-398.85 240.89,-404.4 251.41,-405.69 249.92,-398.85"/>
</g>
<!-- Node1103 -->
<g id="node38" class="node">
<title>Node1103</title>
<g id="a_node38"><a xlink:href="classsatcheck__booleforce__baset.html" target="_top" xlink:title=" ">
<polygon fill="none" stroke="black" points="323,-567 323,-597 440,-597 440,-567 323,-567"/>
<text text-anchor="start" x="331" y="-585" font-family="Helvetica,sans-Serif" font-size="10.00">satcheck_booleforce</text>
<text text-anchor="middle" x="381.5" y="-574" font-family="Helvetica,sans-Serif" font-size="10.00">_baset</text>
</a>
</g>
</g>
<!-- Node1102&#45;&gt;Node1103 -->
<g id="edge40" class="edge">
<title>Node1102&#45;&gt;Node1103</title>
<path fill="none" stroke="midnightblue" d="M212.99,-431.5C225.16,-462.69 253.21,-523.67 297,-557 304.59,-562.77 313.49,-567.22 322.62,-570.64"/>
<polygon fill="midnightblue" stroke="midnightblue" points="216.14,-429.94 209.35,-421.81 209.59,-432.4 216.14,-429.94"/>
</g>
<!-- Node1106 -->
<g id="node41" class="node">
<title>Node1106</title>
<g id="a_node41"><a xlink:href="classsatcheck__lingelingt.html" target="_top" xlink:title=" ">
<polygon fill="none" stroke="black" points="326,-528.5 326,-547.5 437,-547.5 437,-528.5 326,-528.5"/>
<text text-anchor="middle" x="381.5" y="-535.5" font-family="Helvetica,sans-Serif" font-size="10.00">satcheck_lingelingt</text>
</a>
</g>
</g>
<!-- Node1102&#45;&gt;Node1106 -->
<g id="edge46" class="edge">
<title>Node1102&#45;&gt;Node1106</title>
<path fill="none" stroke="midnightblue" d="M216.43,-430.43C231.15,-454.68 260.36,-496.79 297,-519 305.77,-524.32 315.88,-528.15 325.97,-530.91"/>
<polygon fill="midnightblue" stroke="midnightblue" points="219.45,-428.65 211.35,-421.81 213.41,-432.2 219.45,-428.65"/>
</g>
<!-- Node1107 -->
<g id="node42" class="node">
<title>Node1107</title>
<g id="a_node42"><a xlink:href="classsatcheck__minisat1__baset.html" target="_top" xlink:title=" ">
<polygon fill="none" stroke="black" points="311.5,-654.5 311.5,-673.5 451.5,-673.5 451.5,-654.5 311.5,-654.5"/>
<text text-anchor="middle" x="381.5" y="-661.5" font-family="Helvetica,sans-Serif" font-size="10.00">satcheck_minisat1_baset</text>
</a>
</g>
</g>
<!-- Node1102&#45;&gt;Node1107 -->
<g id="edge47" class="edge">
<title>Node1102&#45;&gt;Node1107</title>
<path fill="none" stroke="midnightblue" d="M207.64,-431.78C212.49,-476.92 230.88,-588.04 297,-645 301.39,-648.78 306.39,-651.86 311.69,-654.35"/>
<polygon fill="midnightblue" stroke="midnightblue" points="211.12,-431.41 206.68,-421.79 204.15,-432.08 211.12,-431.41"/>
</g>
<!-- Node1111 -->
<g id="node46" class="node">
<title>Node1111</title>
<g id="a_node46"><a xlink:href="classsatcheck__picosatt.html" target="_top" xlink:title=" ">
<polygon fill="none" stroke="black" points="329.5,-616.5 329.5,-635.5 433.5,-635.5 433.5,-616.5 329.5,-616.5"/>
<text text-anchor="middle" x="381.5" y="-623.5" font-family="Helvetica,sans-Serif" font-size="10.00">satcheck_picosatt</text>
</a>
</g>
</g>
<!-- Node1102&#45;&gt;Node1111 -->
<g id="edge52" class="edge">
<title>Node1102&#45;&gt;Node1111</title>
<path fill="none" stroke="midnightblue" d="M209.25,-431.47C216.92,-471.05 239.98,-560.99 297,-607 306.26,-614.47 317.88,-619.13 329.49,-622"/>
<polygon fill="midnightblue" stroke="midnightblue" points="212.67,-430.74 207.44,-421.52 205.79,-431.99 212.67,-430.74"/>
</g>
<!-- Node1104 -->
<g id="node39" class="node">
<title>Node1104</title>
<g id="a_node39"><a xlink:href="classsatcheck__booleforce__coret.html" target="_top" xlink:title=" ">
<polygon fill="none" stroke="black" points="532,-586 532,-616 649,-616 649,-586 532,-586"/>
<text text-anchor="start" x="540" y="-604" font-family="Helvetica,sans-Serif" font-size="10.00">satcheck_booleforce</text>
<text text-anchor="middle" x="590.5" y="-593" font-family="Helvetica,sans-Serif" font-size="10.00">_coret</text>
</a>
</g>
</g>
<!-- Node1103&#45;&gt;Node1104 -->
<g id="edge41" class="edge">
<title>Node1103&#45;&gt;Node1104</title>
<path fill="none" stroke="midnightblue" d="M450.43,-588.24C476.74,-590.65 506.54,-593.39 531.79,-595.7"/>
<polygon fill="midnightblue" stroke="midnightblue" points="450.44,-584.72 440.16,-587.29 449.8,-591.69 450.44,-584.72"/>
</g>
<!-- Node1105 -->
<g id="node40" class="node">
<title>Node1105</title>
<g id="a_node40"><a xlink:href="classsatcheck__booleforcet.html" target="_top" xlink:title=" ">
<polygon fill="none" stroke="black" points="530,-547.5 530,-566.5 651,-566.5 651,-547.5 530,-547.5"/>
<text text-anchor="middle" x="590.5" y="-554.5" font-family="Helvetica,sans-Serif" font-size="10.00">satcheck_booleforcet</text>
</a>
</g>
</g>
<!-- Node1103&#45;&gt;Node1105 -->
<g id="edge42" class="edge">
<title>Node1103&#45;&gt;Node1105</title>
<path fill="none" stroke="midnightblue" d="M450.22,-573.82C475.96,-570.71 505.06,-567.2 529.99,-564.19"/>
<polygon fill="midnightblue" stroke="midnightblue" points="449.67,-570.36 440.16,-575.04 450.51,-577.31 449.67,-570.36"/>
</g>
<!-- Node1108 -->
<g id="node43" class="node">
<title>Node1108</title>
<g id="a_node43"><a xlink:href="classsatcheck__minisat1t.html" target="_top" xlink:title=" ">
<polygon fill="none" stroke="black" points="534.5,-654.5 534.5,-673.5 646.5,-673.5 646.5,-654.5 534.5,-654.5"/>
<text text-anchor="middle" x="590.5" y="-661.5" font-family="Helvetica,sans-Serif" font-size="10.00">satcheck_minisat1t</text>
</a>
</g>
</g>
<!-- Node1107&#45;&gt;Node1108 -->
<g id="edge48" class="edge">
<title>Node1107&#45;&gt;Node1108</title>
<path fill="none" stroke="midnightblue" d="M461.96,-664C486.15,-664 512.21,-664 534.42,-664"/>
<polygon fill="midnightblue" stroke="midnightblue" points="461.72,-660.5 451.72,-664 461.72,-667.5 461.72,-660.5"/>
</g>
<!-- Node1109 -->
<g id="node44" class="node">
<title>Node1109</title>
<g id="a_node44"><a xlink:href="classsatcheck__minisat1__prooft.html" target="_top" xlink:title=" ">
<polygon fill="none" stroke="black" points="715,-654.5 715,-673.5 857,-673.5 857,-654.5 715,-654.5"/>
<text text-anchor="middle" x="786" y="-661.5" font-family="Helvetica,sans-Serif" font-size="10.00">satcheck_minisat1_prooft</text>
</a>
</g>
</g>
<!-- Node1108&#45;&gt;Node1109 -->
<g id="edge49" class="edge">
<title>Node1108&#45;&gt;Node1109</title>
<path fill="none" stroke="midnightblue" d="M656.86,-664C675.53,-664 695.94,-664 714.88,-664"/>
<polygon fill="midnightblue" stroke="midnightblue" points="656.69,-660.5 646.69,-664 656.69,-667.5 656.69,-660.5"/>
</g>
<!-- Node1110 -->
<g id="node45" class="node">
<title>Node1110</title>
<g id="a_node45"><a xlink:href="classsatcheck__minisat1__coret.html" target="_top" xlink:title=" ">
<polygon fill="none" stroke="black" points="893,-654.5 893,-673.5 1031,-673.5 1031,-654.5 893,-654.5"/>
<text text-anchor="middle" x="962" y="-661.5" font-family="Helvetica,sans-Serif" font-size="10.00">satcheck_minisat1_coret</text>
</a>
</g>
</g>
<!-- Node1109&#45;&gt;Node1110 -->
<g id="edge50" class="edge">
<title>Node1109&#45;&gt;Node1110</title>
<path fill="none" stroke="midnightblue" d="M867.06,-664C875.67,-664 884.37,-664 892.82,-664"/>
<polygon fill="midnightblue" stroke="midnightblue" points="867.02,-660.5 857.02,-664 867.02,-667.5 867.02,-660.5"/>
</g>
</g>
</svg>
