<?xml version="1.0" encoding="UTF-8" standalone="no"?>
<!DOCTYPE svg PUBLIC "-//W3C//DTD SVG 1.1//EN"
 "http://www.w3.org/Graphics/SVG/1.1/DTD/svg11.dtd">
<!-- Generated by graphviz version 2.43.0 (0)
 -->
<!-- Title: /home/runner/work/cbmc/cbmc/src/util/mathematical_expr.cpp Pages: 1 -->
<svg width="860pt" height="498pt"
 viewBox="0.00 0.00 859.52 498.00" xmlns="http://www.w3.org/2000/svg" xmlns:xlink="http://www.w3.org/1999/xlink">
<g id="graph0" class="graph" transform="scale(1 1) rotate(0) translate(4 494)">
<title>/home/runner/work/cbmc/cbmc/src/util/mathematical_expr.cpp</title>
<!-- Node1 -->
<g id="node1" class="node">
<title>Node1</title>
<g id="a_node1"><a xlink:title=" ">
<polygon fill="#bfbfbf" stroke="black" points="429.46,-448.5 429.46,-489.5 582.46,-489.5 582.46,-448.5 429.46,-448.5"/>
<text text-anchor="start" x="437.46" y="-477.5" font-family="Helvetica,sans-Serif" font-size="10.00">/home/runner/work/cbmc</text>
<text text-anchor="start" x="437.46" y="-466.5" font-family="Helvetica,sans-Serif" font-size="10.00">/cbmc/src/util/mathematical</text>
<text text-anchor="middle" x="505.96" y="-455.5" font-family="Helvetica,sans-Serif" font-size="10.00">_expr.cpp</text>
</a>
</g>
</g>
<!-- Node2 -->
<g id="node2" class="node">
<title>Node2</title>
<g id="a_node2"><a xlink:href="mathematical__expr_8h.html" target="_top" xlink:title="API to expression classes for &#39;mathematical&#39; expressions.">
<polygon fill="none" stroke="black" points="445.96,-392.5 445.96,-411.5 565.96,-411.5 565.96,-392.5 445.96,-392.5"/>
<text text-anchor="middle" x="505.96" y="-399.5" font-family="Helvetica,sans-Serif" font-size="10.00">mathematical_expr.h</text>
</a>
</g>
</g>
<!-- Node1&#45;&gt;Node2 -->
<g id="edge1" class="edge">
<title>Node1&#45;&gt;Node2</title>
<path fill="none" stroke="midnightblue" d="M505.96,-448.5C505.96,-440.07 505.96,-430.24 505.96,-421.87"/>
<polygon fill="midnightblue" stroke="midnightblue" points="509.46,-421.65 505.96,-411.65 502.46,-421.65 509.46,-421.65"/>
</g>
<!-- Node3 -->
<g id="node3" class="node">
<title>Node3</title>
<g id="a_node3"><a xlink:href="mathematical__types_8h.html" target="_top" xlink:title="Mathematical types.">
<polygon fill="none" stroke="black" points="336.96,-280.5 336.96,-299.5 462.96,-299.5 462.96,-280.5 336.96,-280.5"/>
<text text-anchor="middle" x="399.96" y="-287.5" font-family="Helvetica,sans-Serif" font-size="10.00">mathematical_types.h</text>
</a>
</g>
</g>
<!-- Node1&#45;&gt;Node3 -->
<g id="edge46" class="edge">
<title>Node1&#45;&gt;Node3</title>
<path fill="none" stroke="midnightblue" d="M474.19,-448.38C461.03,-438.84 446.61,-426.33 436.96,-412 415.35,-379.93 405.97,-334.75 402.21,-309.65"/>
<polygon fill="midnightblue" stroke="midnightblue" points="405.67,-309.1 400.86,-299.66 398.73,-310.04 405.67,-309.1"/>
</g>
<!-- Node44 -->
<g id="node26" class="node">
<title>Node44</title>
<g id="a_node26"><a xlink:href="arith__tools_8h.html" target="_top" xlink:title=" ">
<polygon fill="none" stroke="black" points="668.46,-392.5 668.46,-411.5 745.46,-411.5 745.46,-392.5 668.46,-392.5"/>
<text text-anchor="middle" x="706.96" y="-399.5" font-family="Helvetica,sans-Serif" font-size="10.00">arith_tools.h</text>
</a>
</g>
</g>
<!-- Node1&#45;&gt;Node44 -->
<g id="edge41" class="edge">
<title>Node1&#45;&gt;Node44</title>
<path fill="none" stroke="midnightblue" d="M566.27,-448.5C600.3,-437.49 641.69,-424.11 670.74,-414.71"/>
<polygon fill="midnightblue" stroke="midnightblue" points="672.03,-417.97 680.47,-411.57 669.88,-411.31 672.03,-417.97"/>
</g>
<!-- Node2&#45;&gt;Node3 -->
<g id="edge2" class="edge">
<title>Node2&#45;&gt;Node3</title>
<path fill="none" stroke="midnightblue" d="M497.64,-392.37C479.92,-373.97 438.19,-330.67 415.43,-307.05"/>
<polygon fill="midnightblue" stroke="midnightblue" points="417.7,-304.36 408.24,-299.59 412.66,-309.22 417.7,-304.36"/>
</g>
<!-- Node40 -->
<g id="node20" class="node">
<title>Node40</title>
<g id="a_node20"><a xlink:href="std__expr_8h.html" target="_top" xlink:title="API to expression classes.">
<polygon fill="none" stroke="black" points="522.46,-336.5 522.46,-355.5 589.46,-355.5 589.46,-336.5 522.46,-336.5"/>
<text text-anchor="middle" x="555.96" y="-343.5" font-family="Helvetica,sans-Serif" font-size="10.00">std_expr.h</text>
</a>
</g>
</g>
<!-- Node2&#45;&gt;Node40 -->
<g id="edge28" class="edge">
<title>Node2&#45;&gt;Node40</title>
<path fill="none" stroke="midnightblue" d="M514.22,-392.08C521.42,-384.3 532.07,-372.8 540.81,-363.37"/>
<polygon fill="midnightblue" stroke="midnightblue" points="543.63,-365.47 547.86,-355.75 538.49,-360.71 543.63,-365.47"/>
</g>
<!-- Node4 -->
<g id="node4" class="node">
<title>Node4</title>
<g id="a_node4"><a xlink:href="expr__cast_8h.html" target="_top" xlink:title="Templated functions to cast to specific exprt&#45;derived classes.">
<polygon fill="none" stroke="black" points="341.46,-224.5 341.46,-243.5 414.46,-243.5 414.46,-224.5 341.46,-224.5"/>
<text text-anchor="middle" x="377.96" y="-231.5" font-family="Helvetica,sans-Serif" font-size="10.00">expr_cast.h</text>
</a>
</g>
</g>
<!-- Node3&#45;&gt;Node4 -->
<g id="edge3" class="edge">
<title>Node3&#45;&gt;Node4</title>
<path fill="none" stroke="midnightblue" d="M396.33,-280.08C393.35,-272.77 389.03,-262.18 385.34,-253.1"/>
<polygon fill="midnightblue" stroke="midnightblue" points="388.54,-251.69 381.53,-243.75 382.06,-254.33 388.54,-251.69"/>
</g>
<!-- Node8 -->
<g id="node8" class="node">
<title>Node8</title>
<g id="a_node8"><a xlink:href="src_2util_2invariant_8h.html" target="_top" xlink:title=" ">
<polygon fill="none" stroke="black" points="581.46,-168.5 581.46,-187.5 650.46,-187.5 650.46,-168.5 581.46,-168.5"/>
<text text-anchor="middle" x="615.96" y="-175.5" font-family="Helvetica,sans-Serif" font-size="10.00">invariant.h</text>
</a>
</g>
</g>
<!-- Node3&#45;&gt;Node8 -->
<g id="edge26" class="edge">
<title>Node3&#45;&gt;Node8</title>
<path fill="none" stroke="midnightblue" d="M411.49,-280.37C429.62,-267.06 466.23,-241.27 499.96,-224 525.87,-210.73 556.64,-198.97 579.98,-190.79"/>
<polygon fill="midnightblue" stroke="midnightblue" points="581.18,-194.08 589.49,-187.52 578.9,-187.47 581.18,-194.08"/>
</g>
<!-- Node14 -->
<g id="node14" class="node">
<title>Node14</title>
<g id="a_node14"><a xlink:href="type_8h.html" target="_top" xlink:title="Defines typet, type_with_subtypet and type_with_subtypest.">
<polygon fill="none" stroke="black" points="284.46,-112.5 284.46,-131.5 331.46,-131.5 331.46,-112.5 284.46,-112.5"/>
<text text-anchor="middle" x="307.96" y="-119.5" font-family="Helvetica,sans-Serif" font-size="10.00">type.h</text>
</a>
</g>
</g>
<!-- Node3&#45;&gt;Node14 -->
<g id="edge27" class="edge">
<title>Node3&#45;&gt;Node14</title>
<path fill="none" stroke="midnightblue" d="M380.9,-280.43C365.81,-272.78 345.14,-260.29 331.96,-244 308.13,-214.55 305.77,-168.02 306.59,-142.08"/>
<polygon fill="midnightblue" stroke="midnightblue" points="310.11,-141.91 307.13,-131.75 303.12,-141.55 310.11,-141.91"/>
</g>
<!-- Node5 -->
<g id="node5" class="node">
<title>Node5</title>
<g id="a_node5"><a xlink:title=" ">
<polygon fill="none" stroke="#bfbfbf" points="319.46,-168.5 319.46,-187.5 376.46,-187.5 376.46,-168.5 319.46,-168.5"/>
<text text-anchor="middle" x="347.96" y="-175.5" font-family="Helvetica,sans-Serif" font-size="10.00">typeinfo</text>
</a>
</g>
</g>
<!-- Node4&#45;&gt;Node5 -->
<g id="edge4" class="edge">
<title>Node4&#45;&gt;Node5</title>
<path fill="none" stroke="midnightblue" d="M373.01,-224.08C368.86,-216.61 362.81,-205.72 357.69,-196.52"/>
<polygon fill="midnightblue" stroke="midnightblue" points="360.74,-194.79 352.82,-187.75 354.62,-198.19 360.74,-194.79"/>
</g>
<!-- Node6 -->
<g id="node6" class="node">
<title>Node6</title>
<g id="a_node6"><a xlink:title=" ">
<polygon fill="none" stroke="#bfbfbf" points="446.46,-0.5 446.46,-19.5 515.46,-19.5 515.46,-0.5 446.46,-0.5"/>
<text text-anchor="middle" x="480.96" y="-7.5" font-family="Helvetica,sans-Serif" font-size="10.00">type_traits</text>
</a>
</g>
</g>
<!-- Node4&#45;&gt;Node6 -->
<g id="edge5" class="edge">
<title>Node4&#45;&gt;Node6</title>
<path fill="none" stroke="midnightblue" d="M382.24,-224.4C386.73,-215.37 393.93,-200.73 399.96,-188 427.36,-130.09 458.6,-60.89 472.96,-28.87"/>
<polygon fill="midnightblue" stroke="midnightblue" points="476.26,-30.07 477.16,-19.51 469.87,-27.2 476.26,-30.07"/>
</g>
<!-- Node7 -->
<g id="node7" class="node">
<title>Node7</title>
<g id="a_node7"><a xlink:title=" ">
<polygon fill="none" stroke="#bfbfbf" points="349.46,-112.5 349.46,-131.5 414.46,-131.5 414.46,-112.5 349.46,-112.5"/>
<text text-anchor="middle" x="381.96" y="-119.5" font-family="Helvetica,sans-Serif" font-size="10.00">functional</text>
</a>
</g>
</g>
<!-- Node4&#45;&gt;Node7 -->
<g id="edge6" class="edge">
<title>Node4&#45;&gt;Node7</title>
<path fill="none" stroke="midnightblue" d="M379.7,-224.42C381.43,-215.4 383.97,-200.77 384.96,-188 386.16,-172.49 385.2,-154.87 384.06,-141.88"/>
<polygon fill="midnightblue" stroke="midnightblue" points="387.53,-141.45 383.06,-131.84 380.57,-142.14 387.53,-141.45"/>
</g>
<!-- Node4&#45;&gt;Node8 -->
<g id="edge7" class="edge">
<title>Node4&#45;&gt;Node8</title>
<path fill="none" stroke="midnightblue" d="M414.63,-224.68C456.81,-215.11 526.07,-199.39 571.35,-189.12"/>
<polygon fill="midnightblue" stroke="midnightblue" points="572.21,-192.52 581.19,-186.89 570.66,-185.69 572.21,-192.52"/>
</g>
<!-- Node12 -->
<g id="node12" class="node">
<title>Node12</title>
<g id="a_node12"><a xlink:href="expr_8h.html" target="_top" xlink:title=" ">
<polygon fill="none" stroke="black" points="197.46,-168.5 197.46,-187.5 244.46,-187.5 244.46,-168.5 197.46,-168.5"/>
<text text-anchor="middle" x="220.96" y="-175.5" font-family="Helvetica,sans-Serif" font-size="10.00">expr.h</text>
</a>
</g>
</g>
<!-- Node4&#45;&gt;Node12 -->
<g id="edge12" class="edge">
<title>Node4&#45;&gt;Node12</title>
<path fill="none" stroke="midnightblue" d="M353.08,-224.44C326.36,-215.25 283.76,-200.6 254.18,-190.43"/>
<polygon fill="midnightblue" stroke="midnightblue" points="255.29,-187.11 244.69,-187.16 253.01,-193.73 255.29,-187.11"/>
</g>
<!-- Node8&#45;&gt;Node6 -->
<g id="edge11" class="edge">
<title>Node8&#45;&gt;Node6</title>
<path fill="none" stroke="midnightblue" d="M624.27,-168.28C635.39,-155.5 652.55,-131.14 641.96,-112 616.16,-65.35 558.8,-37.36 519.99,-23.05"/>
<polygon fill="midnightblue" stroke="midnightblue" points="520.66,-19.57 510.07,-19.54 518.33,-26.17 520.66,-19.57"/>
</g>
<!-- Node9 -->
<g id="node9" class="node">
<title>Node9</title>
<g id="a_node9"><a xlink:title=" ">
<polygon fill="none" stroke="#bfbfbf" points="509.46,-112.5 509.46,-131.5 558.46,-131.5 558.46,-112.5 509.46,-112.5"/>
<text text-anchor="middle" x="533.96" y="-119.5" font-family="Helvetica,sans-Serif" font-size="10.00">cstdlib</text>
</a>
</g>
</g>
<!-- Node8&#45;&gt;Node9 -->
<g id="edge8" class="edge">
<title>Node8&#45;&gt;Node9</title>
<path fill="none" stroke="midnightblue" d="M602.79,-168.32C590.11,-159.98 570.73,-147.21 555.75,-137.35"/>
<polygon fill="midnightblue" stroke="midnightblue" points="557.38,-134.23 547.1,-131.65 553.53,-140.08 557.38,-134.23"/>
</g>
<!-- Node10 -->
<g id="node10" class="node">
<title>Node10</title>
<g id="a_node10"><a xlink:title=" ">
<polygon fill="none" stroke="#bfbfbf" points="576.96,-112.5 576.96,-131.5 632.96,-131.5 632.96,-112.5 576.96,-112.5"/>
<text text-anchor="middle" x="604.96" y="-119.5" font-family="Helvetica,sans-Serif" font-size="10.00">sstream</text>
</a>
</g>
</g>
<!-- Node8&#45;&gt;Node10 -->
<g id="edge9" class="edge">
<title>Node8&#45;&gt;Node10</title>
<path fill="none" stroke="midnightblue" d="M614.14,-168.08C612.69,-160.93 610.59,-150.64 608.77,-141.69"/>
<polygon fill="midnightblue" stroke="midnightblue" points="612.17,-140.85 606.74,-131.75 605.31,-142.25 612.17,-140.85"/>
</g>
<!-- Node11 -->
<g id="node11" class="node">
<title>Node11</title>
<g id="a_node11"><a xlink:title=" ">
<polygon fill="none" stroke="#bfbfbf" points="796.96,-0.5 796.96,-19.5 840.96,-19.5 840.96,-0.5 796.96,-0.5"/>
<text text-anchor="middle" x="818.96" y="-7.5" font-family="Helvetica,sans-Serif" font-size="10.00">string</text>
</a>
</g>
</g>
<!-- Node8&#45;&gt;Node11 -->
<g id="edge10" class="edge">
<title>Node8&#45;&gt;Node11</title>
<path fill="none" stroke="midnightblue" d="M646.17,-168.45C687.07,-155.32 759.57,-126.29 799.96,-76 810.65,-62.69 815.32,-43.57 817.37,-29.51"/>
<polygon fill="midnightblue" stroke="midnightblue" points="820.85,-29.86 818.51,-19.53 813.9,-29.07 820.85,-29.86"/>
</g>
<!-- Node12&#45;&gt;Node7 -->
<g id="edge25" class="edge">
<title>Node12&#45;&gt;Node7</title>
<path fill="none" stroke="midnightblue" d="M244.72,-169.03C271.71,-159.98 316.02,-145.12 346.97,-134.74"/>
<polygon fill="midnightblue" stroke="midnightblue" points="348.14,-138.03 356.51,-131.54 345.92,-131.4 348.14,-138.03"/>
</g>
<!-- Node13 -->
<g id="node13" class="node">
<title>Node13</title>
<g id="a_node13"><a xlink:href="as__const_8h.html" target="_top" xlink:title=" ">
<polygon fill="none" stroke="black" points="12.96,-112.5 12.96,-131.5 80.96,-131.5 80.96,-112.5 12.96,-112.5"/>
<text text-anchor="middle" x="46.96" y="-119.5" font-family="Helvetica,sans-Serif" font-size="10.00">as_const.h</text>
</a>
</g>
</g>
<!-- Node12&#45;&gt;Node13 -->
<g id="edge13" class="edge">
<title>Node12&#45;&gt;Node13</title>
<path fill="none" stroke="midnightblue" d="M197.13,-169.6C167.99,-160.56 118.33,-145.15 84.15,-134.54"/>
<polygon fill="midnightblue" stroke="midnightblue" points="85.1,-131.17 74.51,-131.55 83.03,-137.86 85.1,-131.17"/>
</g>
<!-- Node12&#45;&gt;Node14 -->
<g id="edge14" class="edge">
<title>Node12&#45;&gt;Node14</title>
<path fill="none" stroke="midnightblue" d="M234.94,-168.32C248.51,-159.9 269.34,-146.97 285.28,-137.07"/>
<polygon fill="midnightblue" stroke="midnightblue" points="287.37,-139.9 294.02,-131.65 283.67,-133.95 287.37,-139.9"/>
</g>
<!-- Node37 -->
<g id="node17" class="node">
<title>Node37</title>
<g id="a_node17"><a xlink:href="validation__mode_8h.html" target="_top" xlink:title=" ">
<polygon fill="none" stroke="black" points="254.46,-0.5 254.46,-19.5 361.46,-19.5 361.46,-0.5 254.46,-0.5"/>
<text text-anchor="middle" x="307.96" y="-7.5" font-family="Helvetica,sans-Serif" font-size="10.00">validation_mode.h</text>
</a>
</g>
</g>
<!-- Node12&#45;&gt;Node37 -->
<g id="edge24" class="edge">
<title>Node12&#45;&gt;Node37</title>
<path fill="none" stroke="midnightblue" d="M197.46,-175.74C146.44,-172.47 28.19,-161.77 3.96,-132 -1.65,-125.11 -0.66,-119.6 3.96,-112 29.76,-69.56 167.54,-37.18 248.49,-21.47"/>
<polygon fill="midnightblue" stroke="midnightblue" points="249.38,-24.87 258.55,-19.55 248.07,-17.99 249.38,-24.87"/>
</g>
<!-- Node38 -->
<g id="node18" class="node">
<title>Node38</title>
<g id="a_node18"><a xlink:href="validate__types_8h.html" target="_top" xlink:title=" ">
<polygon fill="none" stroke="black" points="120.96,-56.5 120.96,-75.5 218.96,-75.5 218.96,-56.5 120.96,-56.5"/>
<text text-anchor="middle" x="169.96" y="-63.5" font-family="Helvetica,sans-Serif" font-size="10.00">validate_types.h</text>
</a>
</g>
</g>
<!-- Node12&#45;&gt;Node38 -->
<g id="edge23" class="edge">
<title>Node12&#45;&gt;Node38</title>
<path fill="none" stroke="midnightblue" d="M197.13,-172.82C174.91,-167.52 143.02,-156.01 127.96,-132 117.18,-114.81 133.74,-95.28 149.13,-82.15"/>
<polygon fill="midnightblue" stroke="midnightblue" points="151.74,-84.54 157.38,-75.57 147.38,-79.07 151.74,-84.54"/>
</g>
<!-- Node39 -->
<g id="node19" class="node">
<title>Node39</title>
<g id="a_node19"><a xlink:href="validate__expressions_8h.html" target="_top" xlink:title=" ">
<polygon fill="none" stroke="black" points="137.46,-112.5 137.46,-131.5 266.46,-131.5 266.46,-112.5 137.46,-112.5"/>
<text text-anchor="middle" x="201.96" y="-119.5" font-family="Helvetica,sans-Serif" font-size="10.00">validate_expressions.h</text>
</a>
</g>
</g>
<!-- Node12&#45;&gt;Node39 -->
<g id="edge22" class="edge">
<title>Node12&#45;&gt;Node39</title>
<path fill="none" stroke="midnightblue" d="M217.82,-168.08C215.28,-160.85 211.6,-150.41 208.43,-141.4"/>
<polygon fill="midnightblue" stroke="midnightblue" points="211.66,-140.02 205.04,-131.75 205.06,-142.35 211.66,-140.02"/>
</g>
<!-- Node15 -->
<g id="node15" class="node">
<title>Node15</title>
<g id="a_node15"><a xlink:href="source__location_8h.html" target="_top" xlink:title=" ">
<polygon fill="none" stroke="red" points="688.96,-56.5 688.96,-75.5 790.96,-75.5 790.96,-56.5 688.96,-56.5"/>
<text text-anchor="middle" x="739.96" y="-63.5" font-family="Helvetica,sans-Serif" font-size="10.00">source_location.h</text>
</a>
</g>
</g>
<!-- Node14&#45;&gt;Node15 -->
<g id="edge15" class="edge">
<title>Node14&#45;&gt;Node15</title>
<path fill="none" stroke="midnightblue" d="M331.62,-113.88C334.42,-113.18 337.24,-112.53 339.96,-112 458.6,-88.8 599.54,-76.41 678.48,-70.81"/>
<polygon fill="midnightblue" stroke="midnightblue" points="678.99,-74.28 688.73,-70.1 678.51,-67.3 678.99,-74.28"/>
</g>
<!-- Node35 -->
<g id="node16" class="node">
<title>Node35</title>
<g id="a_node16"><a xlink:href="validate_8h.html" target="_top" xlink:title=" ">
<polygon fill="none" stroke="red" points="362.46,-56.5 362.46,-75.5 427.46,-75.5 427.46,-56.5 362.46,-56.5"/>
<text text-anchor="middle" x="394.96" y="-63.5" font-family="Helvetica,sans-Serif" font-size="10.00">validate.h</text>
</a>
</g>
</g>
<!-- Node14&#45;&gt;Node35 -->
<g id="edge17" class="edge">
<title>Node14&#45;&gt;Node35</title>
<path fill="none" stroke="midnightblue" d="M321.94,-112.32C335.51,-103.9 356.34,-90.97 372.28,-81.07"/>
<polygon fill="midnightblue" stroke="midnightblue" points="374.37,-83.9 381.02,-75.65 370.67,-77.95 374.37,-83.9"/>
</g>
<!-- Node14&#45;&gt;Node37 -->
<g id="edge21" class="edge">
<title>Node14&#45;&gt;Node37</title>
<path fill="none" stroke="midnightblue" d="M307.96,-112.37C307.96,-94.62 307.96,-53.67 307.96,-29.6"/>
<polygon fill="midnightblue" stroke="midnightblue" points="311.46,-29.59 307.96,-19.59 304.46,-29.59 311.46,-29.59"/>
</g>
<!-- Node14&#45;&gt;Node38 -->
<g id="edge20" class="edge">
<title>Node14&#45;&gt;Node38</title>
<path fill="none" stroke="midnightblue" d="M286.09,-112.44C263.18,-103.48 226.98,-89.31 201.09,-79.18"/>
<polygon fill="midnightblue" stroke="midnightblue" points="202.31,-75.9 191.72,-75.52 199.76,-82.42 202.31,-75.9"/>
</g>
<!-- Node15&#45;&gt;Node11 -->
<g id="edge16" class="edge">
<title>Node15&#45;&gt;Node11</title>
<path fill="none" stroke="midnightblue" d="M752.65,-56.32C764.86,-47.98 783.54,-35.21 797.96,-25.35"/>
<polygon fill="midnightblue" stroke="midnightblue" points="800.02,-28.19 806.3,-19.65 796.07,-22.41 800.02,-28.19"/>
</g>
<!-- Node35&#45;&gt;Node6 -->
<g id="edge18" class="edge">
<title>Node35&#45;&gt;Node6</title>
<path fill="none" stroke="midnightblue" d="M408.78,-56.32C422.19,-47.9 442.78,-34.97 458.55,-25.07"/>
<polygon fill="midnightblue" stroke="midnightblue" points="460.57,-27.94 467.18,-19.65 456.85,-22.01 460.57,-27.94"/>
</g>
<!-- Node35&#45;&gt;Node37 -->
<g id="edge19" class="edge">
<title>Node35&#45;&gt;Node37</title>
<path fill="none" stroke="midnightblue" d="M380.98,-56.32C367.41,-47.9 346.58,-34.97 330.63,-25.07"/>
<polygon fill="midnightblue" stroke="midnightblue" points="332.25,-21.95 321.9,-19.65 328.55,-27.9 332.25,-21.95"/>
</g>
<!-- Node40&#45;&gt;Node4 -->
<g id="edge29" class="edge">
<title>Node40&#45;&gt;Node4</title>
<path fill="none" stroke="midnightblue" d="M546.37,-336.48C531.27,-323.32 500.68,-297.71 471.96,-280 451.63,-267.47 427.28,-255.89 408.45,-247.62"/>
<polygon fill="midnightblue" stroke="midnightblue" points="409.73,-244.36 399.16,-243.61 406.96,-250.79 409.73,-244.36"/>
</g>
<!-- Node40&#45;&gt;Node8 -->
<g id="edge30" class="edge">
<title>Node40&#45;&gt;Node8</title>
<path fill="none" stroke="midnightblue" d="M566.21,-336.49C576,-327.98 590.75,-314.16 600.96,-300 617.23,-277.43 622.57,-271.08 628.96,-244 632.64,-228.42 628.48,-210.59 623.92,-197.55"/>
<polygon fill="midnightblue" stroke="midnightblue" points="627.04,-195.92 620.16,-187.87 620.52,-198.46 627.04,-195.92"/>
</g>
<!-- Node41 -->
<g id="node21" class="node">
<title>Node41</title>
<g id="a_node21"><a xlink:href="std__types_8h.html" target="_top" xlink:title="Pre&#45;defined types.">
<polygon fill="none" stroke="black" points="519.46,-280.5 519.46,-299.5 592.46,-299.5 592.46,-280.5 519.46,-280.5"/>
<text text-anchor="middle" x="555.96" y="-287.5" font-family="Helvetica,sans-Serif" font-size="10.00">std_types.h</text>
</a>
</g>
</g>
<!-- Node40&#45;&gt;Node41 -->
<g id="edge31" class="edge">
<title>Node40&#45;&gt;Node41</title>
<path fill="none" stroke="midnightblue" d="M555.96,-336.08C555.96,-329.01 555.96,-318.86 555.96,-309.99"/>
<polygon fill="midnightblue" stroke="midnightblue" points="559.46,-309.75 555.96,-299.75 552.46,-309.75 559.46,-309.75"/>
</g>
<!-- Node41&#45;&gt;Node4 -->
<g id="edge33" class="edge">
<title>Node41&#45;&gt;Node4</title>
<path fill="none" stroke="midnightblue" d="M527.76,-280.44C497.55,-271.28 449.45,-256.69 415.93,-246.52"/>
<polygon fill="midnightblue" stroke="midnightblue" points="416.62,-243.07 406.03,-243.52 414.59,-249.77 416.62,-243.07"/>
</g>
<!-- Node41&#45;&gt;Node8 -->
<g id="edge34" class="edge">
<title>Node41&#45;&gt;Node8</title>
<path fill="none" stroke="midnightblue" d="M572.56,-280.37C585.45,-272.7 602.51,-260.19 610.96,-244 618.4,-229.73 619.12,-211.26 618.29,-197.66"/>
<polygon fill="midnightblue" stroke="midnightblue" points="621.76,-197.2 617.34,-187.58 614.79,-197.86 621.76,-197.2"/>
</g>
<!-- Node41&#45;&gt;Node12 -->
<g id="edge32" class="edge">
<title>Node41&#45;&gt;Node12</title>
<path fill="none" stroke="midnightblue" d="M519.24,-285.4C474,-280.11 395.34,-268.15 331.96,-244 298,-231.06 262.35,-208.3 240.89,-193.44"/>
<polygon fill="midnightblue" stroke="midnightblue" points="242.8,-190.5 232.61,-187.6 238.77,-196.23 242.8,-190.5"/>
</g>
<!-- Node41&#45;&gt;Node35 -->
<g id="edge39" class="edge">
<title>Node41&#45;&gt;Node35</title>
<path fill="none" stroke="midnightblue" d="M542.34,-280.19C530.21,-271.88 512.49,-258.55 499.96,-244 455.64,-192.54 458.02,-170.17 422.96,-112 417.37,-102.72 411,-92.46 405.75,-84.09"/>
<polygon fill="midnightblue" stroke="midnightblue" points="408.69,-82.18 400.4,-75.58 402.76,-85.91 408.69,-82.18"/>
</g>
<!-- Node42 -->
<g id="node22" class="node">
<title>Node42</title>
<g id="a_node22"><a xlink:href="mp__arith_8h.html" target="_top" xlink:title=" ">
<polygon fill="none" stroke="black" points="735.46,-224.5 735.46,-243.5 804.46,-243.5 804.46,-224.5 735.46,-224.5"/>
<text text-anchor="middle" x="769.96" y="-231.5" font-family="Helvetica,sans-Serif" font-size="10.00">mp_arith.h</text>
</a>
</g>
</g>
<!-- Node41&#45;&gt;Node42 -->
<g id="edge35" class="edge">
<title>Node41&#45;&gt;Node42</title>
<path fill="none" stroke="midnightblue" d="M589.87,-280.44C626.81,-271.12 686.01,-256.18 726.38,-246"/>
<polygon fill="midnightblue" stroke="midnightblue" points="727.37,-249.36 736.21,-243.52 725.66,-242.57 727.37,-249.36"/>
</g>
<!-- Node26 -->
<g id="node25" class="node">
<title>Node26</title>
<g id="a_node25"><a xlink:title=" ">
<polygon fill="none" stroke="#bfbfbf" points="509.46,-224.5 509.46,-243.5 602.46,-243.5 602.46,-224.5 509.46,-224.5"/>
<text text-anchor="middle" x="555.96" y="-231.5" font-family="Helvetica,sans-Serif" font-size="10.00">unordered_map</text>
</a>
</g>
</g>
<!-- Node41&#45;&gt;Node26 -->
<g id="edge40" class="edge">
<title>Node41&#45;&gt;Node26</title>
<path fill="none" stroke="midnightblue" d="M555.96,-280.08C555.96,-273.01 555.96,-262.86 555.96,-253.99"/>
<polygon fill="midnightblue" stroke="midnightblue" points="559.46,-253.75 555.96,-243.75 552.46,-253.75 559.46,-253.75"/>
</g>
<!-- Node42&#45;&gt;Node11 -->
<g id="edge37" class="edge">
<title>Node42&#45;&gt;Node11</title>
<path fill="none" stroke="midnightblue" d="M793.41,-224.41C809.12,-217.28 828.58,-205.46 837.96,-188 865.95,-135.92 841.5,-62.84 827.35,-29.22"/>
<polygon fill="midnightblue" stroke="midnightblue" points="830.43,-27.52 823.2,-19.77 824.02,-30.34 830.43,-27.52"/>
</g>
<!-- Node21 -->
<g id="node23" class="node">
<title>Node21</title>
<g id="a_node23"><a xlink:title=" ">
<polygon fill="none" stroke="#bfbfbf" points="668.96,-168.5 668.96,-187.5 716.96,-187.5 716.96,-168.5 668.96,-168.5"/>
<text text-anchor="middle" x="692.96" y="-175.5" font-family="Helvetica,sans-Serif" font-size="10.00">iosfwd</text>
</a>
</g>
</g>
<!-- Node42&#45;&gt;Node21 -->
<g id="edge36" class="edge">
<title>Node42&#45;&gt;Node21</title>
<path fill="none" stroke="midnightblue" d="M757.59,-224.32C745.8,-216.06 727.83,-203.45 713.82,-193.63"/>
<polygon fill="midnightblue" stroke="midnightblue" points="715.5,-190.53 705.3,-187.65 711.48,-196.26 715.5,-190.53"/>
</g>
<!-- Node43 -->
<g id="node24" class="node">
<title>Node43</title>
<g id="a_node24"><a xlink:title=" ">
<polygon fill="none" stroke="#bfbfbf" points="734.96,-168.5 734.96,-187.5 828.96,-187.5 828.96,-168.5 734.96,-168.5"/>
<text text-anchor="middle" x="781.96" y="-175.5" font-family="Helvetica,sans-Serif" font-size="10.00">big&#45;int/bigint.hh</text>
</a>
</g>
</g>
<!-- Node42&#45;&gt;Node43 -->
<g id="edge38" class="edge">
<title>Node42&#45;&gt;Node43</title>
<path fill="none" stroke="midnightblue" d="M771.94,-224.08C773.53,-216.93 775.82,-206.64 777.81,-197.69"/>
<polygon fill="midnightblue" stroke="midnightblue" points="781.26,-198.27 780.02,-187.75 774.43,-196.75 781.26,-198.27"/>
</g>
<!-- Node44&#45;&gt;Node8 -->
<g id="edge42" class="edge">
<title>Node44&#45;&gt;Node8</title>
<path fill="none" stroke="midnightblue" d="M704.58,-392.26C697.27,-366.04 673.85,-285.99 643.96,-224 639.31,-214.36 633.11,-204.2 627.73,-195.98"/>
<polygon fill="midnightblue" stroke="midnightblue" points="630.61,-193.99 622.12,-187.64 624.8,-197.89 630.61,-193.99"/>
</g>
<!-- Node44&#45;&gt;Node40 -->
<g id="edge44" class="edge">
<title>Node44&#45;&gt;Node40</title>
<path fill="none" stroke="midnightblue" d="M683.03,-392.44C657.74,-383.4 617.66,-369.06 589.28,-358.92"/>
<polygon fill="midnightblue" stroke="midnightblue" points="590.37,-355.59 579.77,-355.52 588.01,-362.18 590.37,-355.59"/>
</g>
<!-- Node44&#45;&gt;Node42 -->
<g id="edge43" class="edge">
<title>Node44&#45;&gt;Node42</title>
<path fill="none" stroke="midnightblue" d="M710.35,-392.08C720.31,-365.83 749.64,-288.55 763.08,-253.12"/>
<polygon fill="midnightblue" stroke="midnightblue" points="766.43,-254.16 766.71,-243.57 759.89,-251.68 766.43,-254.16"/>
</g>
<!-- Node45 -->
<g id="node27" class="node">
<title>Node45</title>
<g id="a_node27"><a xlink:title=" ">
<polygon fill="none" stroke="#bfbfbf" points="772.96,-336.5 772.96,-355.5 816.96,-355.5 816.96,-336.5 772.96,-336.5"/>
<text text-anchor="middle" x="794.96" y="-343.5" font-family="Helvetica,sans-Serif" font-size="10.00">limits</text>
</a>
</g>
</g>
<!-- Node44&#45;&gt;Node45 -->
<g id="edge45" class="edge">
<title>Node44&#45;&gt;Node45</title>
<path fill="none" stroke="midnightblue" d="M721.1,-392.32C734.83,-383.9 755.9,-370.97 772.02,-361.07"/>
<polygon fill="midnightblue" stroke="midnightblue" points="774.16,-363.87 780.86,-355.65 770.5,-357.9 774.16,-363.87"/>
</g>
</g>
</svg>
